%TF.GenerationSoftware,KiCad,Pcbnew,8.0.0*%
%TF.CreationDate,2024-03-13T03:04:33+09:00*%
%TF.ProjectId,esp32tester,65737033-3274-4657-9374-65722e6b6963,rev?*%
%TF.SameCoordinates,Original*%
%TF.FileFunction,Copper,L2,Bot*%
%TF.FilePolarity,Positive*%
%FSLAX46Y46*%
G04 Gerber Fmt 4.6, Leading zero omitted, Abs format (unit mm)*
G04 Created by KiCad (PCBNEW 8.0.0) date 2024-03-13 03:04:33*
%MOMM*%
%LPD*%
G01*
G04 APERTURE LIST*
%TA.AperFunction,ComponentPad*%
%ADD10R,1.700000X1.700000*%
%TD*%
%TA.AperFunction,ComponentPad*%
%ADD11O,1.700000X1.700000*%
%TD*%
%TA.AperFunction,ComponentPad*%
%ADD12O,1.200000X2.000000*%
%TD*%
%TA.AperFunction,ComponentPad*%
%ADD13R,1.200000X2.000000*%
%TD*%
%TA.AperFunction,ComponentPad*%
%ADD14R,1.500000X1.500000*%
%TD*%
%TA.AperFunction,ComponentPad*%
%ADD15C,1.500000*%
%TD*%
%TA.AperFunction,ComponentPad*%
%ADD16C,2.300000*%
%TD*%
%TA.AperFunction,ComponentPad*%
%ADD17R,2.100000X2.100000*%
%TD*%
%TA.AperFunction,ComponentPad*%
%ADD18C,2.100000*%
%TD*%
%TA.AperFunction,ViaPad*%
%ADD19C,0.600000*%
%TD*%
%TA.AperFunction,Conductor*%
%ADD20C,0.200000*%
%TD*%
%TA.AperFunction,Conductor*%
%ADD21C,0.500000*%
%TD*%
%TA.AperFunction,Conductor*%
%ADD22C,0.250000*%
%TD*%
%TA.AperFunction,Conductor*%
%ADD23C,1.000000*%
%TD*%
G04 APERTURE END LIST*
D10*
%TO.P,REF\u002A\u002A,1*%
%TO.N,GND*%
X83794600Y-80162400D03*
D11*
%TO.P,REF\u002A\u002A,2*%
%TO.N,GPIO23*%
X86334600Y-80162400D03*
%TO.P,REF\u002A\u002A,3*%
%TO.N,GPIO22*%
X88874600Y-80162400D03*
%TO.P,REF\u002A\u002A,4*%
%TO.N,GPIO1*%
X91414600Y-80162400D03*
%TO.P,REF\u002A\u002A,5*%
%TO.N,GPIO3*%
X93954600Y-80162400D03*
%TO.P,REF\u002A\u002A,6*%
%TO.N,GPIO21*%
X96494600Y-80162400D03*
%TO.P,REF\u002A\u002A,7*%
%TO.N,GND*%
X99034600Y-80162400D03*
%TO.P,REF\u002A\u002A,8*%
%TO.N,GPIO19*%
X101574600Y-80162400D03*
%TO.P,REF\u002A\u002A,9*%
%TO.N,GPIO18*%
X104114600Y-80162400D03*
%TO.P,REF\u002A\u002A,10*%
%TO.N,GPIO5*%
X106654600Y-80162400D03*
%TO.P,REF\u002A\u002A,11*%
%TO.N,GPIO17*%
X109194600Y-80162400D03*
%TO.P,REF\u002A\u002A,12*%
%TO.N,GPIO16*%
X111734600Y-80162400D03*
%TO.P,REF\u002A\u002A,13*%
%TO.N,GPIO4*%
X114274600Y-80162400D03*
%TO.P,REF\u002A\u002A,14*%
%TO.N,GPIO0*%
X116814600Y-80162400D03*
%TO.P,REF\u002A\u002A,15*%
%TO.N,GPIO2*%
X119354600Y-80162400D03*
%TO.P,REF\u002A\u002A,16*%
%TO.N,GPIO15*%
X121894600Y-80162400D03*
%TO.P,REF\u002A\u002A,17*%
%TO.N,D1*%
X124434600Y-80162400D03*
%TO.P,REF\u002A\u002A,18*%
%TO.N,D0*%
X126974600Y-80162400D03*
%TO.P,REF\u002A\u002A,19*%
%TO.N,clk*%
X129514600Y-80162400D03*
%TD*%
D10*
%TO.P,REF\u002A\u002A,1*%
%TO.N,Net-(IC1-VIO)*%
X83820000Y-116078000D03*
D11*
%TO.P,REF\u002A\u002A,2*%
%TO.N,reset*%
X86360000Y-116078000D03*
%TO.P,REF\u002A\u002A,3*%
%TO.N,GPIO36*%
X88900000Y-116078000D03*
%TO.P,REF\u002A\u002A,4*%
%TO.N,GPIO39*%
X91440000Y-116078000D03*
%TO.P,REF\u002A\u002A,5*%
%TO.N,GPIO34*%
X93980000Y-116078000D03*
%TO.P,REF\u002A\u002A,6*%
%TO.N,GPIO35*%
X96520000Y-116078000D03*
%TO.P,REF\u002A\u002A,7*%
%TO.N,GPIO32*%
X99060000Y-116078000D03*
%TO.P,REF\u002A\u002A,8*%
%TO.N,unconnected-(U1-32K_XN{slash}GPIO33{slash}ADC1_CH5-Pad8)*%
X101600000Y-116078000D03*
%TO.P,REF\u002A\u002A,9*%
%TO.N,unconnected-(U1-DAC_1{slash}ADC2_CH8{slash}GPIO25-Pad9)*%
X104140000Y-116078000D03*
%TO.P,REF\u002A\u002A,10*%
%TO.N,unconnected-(U1-DAC_2{slash}ADC2_CH9{slash}GPIO26-Pad10)*%
X106680000Y-116078000D03*
%TO.P,REF\u002A\u002A,11*%
%TO.N,unconnected-(U1-ADC2_CH7{slash}GPIO27-Pad11)*%
X109220000Y-116078000D03*
%TO.P,REF\u002A\u002A,12*%
%TO.N,unconnected-(U1-MTMS{slash}GPIO14{slash}ADC2_CH6-Pad12)*%
X111760000Y-116078000D03*
%TO.P,REF\u002A\u002A,13*%
%TO.N,unconnected-(U1-MTDI{slash}GPIO12{slash}ADC2_CH5-Pad13)*%
X114300000Y-116078000D03*
%TO.P,REF\u002A\u002A,14*%
%TO.N,GND*%
X116840000Y-116078000D03*
%TO.P,REF\u002A\u002A,15*%
%TO.N,unconnected-(U1-MTCK{slash}GPIO13{slash}ADC2_CH4-Pad15)*%
X119380000Y-116078000D03*
%TO.P,REF\u002A\u002A,16*%
%TO.N,unconnected-(U1-SD_DATA2{slash}GPIO9-Pad16)*%
X121920000Y-116078000D03*
%TO.P,REF\u002A\u002A,17*%
%TO.N,unconnected-(U1-SD_DATA3{slash}GPIO10-Pad17)*%
X124460000Y-116078000D03*
%TO.P,REF\u002A\u002A,18*%
%TO.N,unconnected-(U1-CMD-Pad18)*%
X127000000Y-116078000D03*
%TO.P,REF\u002A\u002A,19*%
%TO.N,Net-(IC1-VCC)*%
X129540000Y-116078000D03*
%TD*%
D12*
%TO.P,U1,38,GND*%
%TO.N,GND*%
X83830160Y-85623400D03*
%TO.P,U1,37,GPIO23*%
%TO.N,GPIO23*%
X86370160Y-85623400D03*
%TO.P,U1,36,GPIO22*%
%TO.N,GPIO22*%
X88910160Y-85623400D03*
%TO.P,U1,35,U0TXD/GPIO1*%
%TO.N,GPIO1*%
X91450160Y-85623400D03*
%TO.P,U1,34,U0RXD/GPIO3*%
%TO.N,GPIO3*%
X93990160Y-85623400D03*
%TO.P,U1,33,GPIO21*%
%TO.N,GPIO21*%
X96530160Y-85623400D03*
%TO.P,U1,32,GND*%
%TO.N,GND*%
X99070160Y-85623400D03*
%TO.P,U1,31,GPIO19*%
%TO.N,GPIO19*%
X101610160Y-85623400D03*
%TO.P,U1,30,GPIO18*%
%TO.N,GPIO18*%
X104150160Y-85623400D03*
%TO.P,U1,29,GPIO5*%
%TO.N,GPIO5*%
X106690160Y-85623400D03*
%TO.P,U1,28,GPIO17*%
%TO.N,GPIO17*%
X109230160Y-85623400D03*
%TO.P,U1,27,GPIO16*%
%TO.N,GPIO16*%
X111770160Y-85623400D03*
%TO.P,U1,26,ADC2_CH0/GPIO4*%
%TO.N,GPIO4*%
X114310160Y-85623400D03*
%TO.P,U1,25,GPIO0/BOOT/ADC2_CH1*%
%TO.N,GPIO0*%
X116850160Y-85623400D03*
%TO.P,U1,24,ADC2_CH2/GPIO2*%
%TO.N,GPIO2*%
X119390160Y-85623400D03*
%TO.P,U1,23,MTDO/GPIO15/ADC2_CH3*%
%TO.N,GPIO15*%
X121930160Y-85623400D03*
%TO.P,U1,22,SD_DATA1/GPIO8*%
%TO.N,D1*%
X124470160Y-85623400D03*
%TO.P,U1,21,SD_DATA0/GPIO7*%
%TO.N,D0*%
X127007440Y-85627080D03*
%TO.P,U1,20,SD_CLK/GPIO6*%
%TO.N,clk*%
X129547440Y-85627080D03*
%TO.P,U1,19,5V*%
%TO.N,Net-(IC1-VCC)*%
X129550160Y-111023400D03*
%TO.P,U1,18,CMD*%
%TO.N,unconnected-(U1-CMD-Pad18)*%
X127010160Y-111023400D03*
%TO.P,U1,17,SD_DATA3/GPIO10*%
%TO.N,unconnected-(U1-SD_DATA3{slash}GPIO10-Pad17)*%
X124470160Y-111023400D03*
%TO.P,U1,16,SD_DATA2/GPIO9*%
%TO.N,unconnected-(U1-SD_DATA2{slash}GPIO9-Pad16)*%
X121930160Y-111023400D03*
%TO.P,U1,15,MTCK/GPIO13/ADC2_CH4*%
%TO.N,unconnected-(U1-MTCK{slash}GPIO13{slash}ADC2_CH4-Pad15)*%
X119390160Y-111023400D03*
%TO.P,U1,14,GND*%
%TO.N,GND*%
X116850160Y-111023400D03*
%TO.P,U1,13,MTDI/GPIO12/ADC2_CH5*%
%TO.N,unconnected-(U1-MTDI{slash}GPIO12{slash}ADC2_CH5-Pad13)*%
X114310160Y-111023400D03*
%TO.P,U1,12,MTMS/GPIO14/ADC2_CH6*%
%TO.N,unconnected-(U1-MTMS{slash}GPIO14{slash}ADC2_CH6-Pad12)*%
X111770160Y-111023400D03*
%TO.P,U1,11,ADC2_CH7/GPIO27*%
%TO.N,unconnected-(U1-ADC2_CH7{slash}GPIO27-Pad11)*%
X109230160Y-111023400D03*
%TO.P,U1,10,DAC_2/ADC2_CH9/GPIO26*%
%TO.N,unconnected-(U1-DAC_2{slash}ADC2_CH9{slash}GPIO26-Pad10)*%
X106690160Y-111023400D03*
%TO.P,U1,9,DAC_1/ADC2_CH8/GPIO25*%
%TO.N,unconnected-(U1-DAC_1{slash}ADC2_CH8{slash}GPIO25-Pad9)*%
X104150160Y-111023400D03*
%TO.P,U1,8,32K_XN/GPIO33/ADC1_CH5*%
%TO.N,unconnected-(U1-32K_XN{slash}GPIO33{slash}ADC1_CH5-Pad8)*%
X101610160Y-111023400D03*
%TO.P,U1,7,32K_XP/GPIO32/ADC1_CH4*%
%TO.N,GPIO32*%
X99070160Y-111023400D03*
%TO.P,U1,6,VDET_2/GPIO35/ADC1_CH7*%
%TO.N,GPIO35*%
X96530160Y-111023400D03*
%TO.P,U1,5,VDET_1/GPIO34/ADC1_CH6*%
%TO.N,GPIO34*%
X93990160Y-111023400D03*
%TO.P,U1,4,SENSOR_VN/GPIO39/ADC1_CH3*%
%TO.N,GPIO39*%
X91450160Y-111023400D03*
%TO.P,U1,3,SENSOR_VP/GPIO36/ADC1_CH0*%
%TO.N,GPIO36*%
X88910160Y-111023400D03*
%TO.P,U1,2,CHIP_PU*%
%TO.N,reset*%
X86370160Y-111023400D03*
D13*
%TO.P,U1,1,3V3*%
%TO.N,Net-(IC1-VIO)*%
X83830160Y-111023400D03*
%TD*%
D10*
%TO.P,J6,1,Pin_1*%
%TO.N,Net-(J6-Pin_1)*%
X60026000Y-80015000D03*
D11*
%TO.P,J6,2,Pin_2*%
%TO.N,Net-(J6-Pin_2)*%
X57486000Y-80015000D03*
%TD*%
D14*
%TO.P,J2,1*%
%TO.N,unconnected-(J2-Pad1)*%
X45089000Y-111639000D03*
D15*
%TO.P,J2,2*%
%TO.N,unconnected-(J2-Pad2)*%
X46869000Y-110623000D03*
%TO.P,J2,3*%
%TO.N,unconnected-(J2-Pad3)*%
X45089000Y-109607000D03*
%TO.P,J2,4*%
%TO.N,/CAN_BUS+*%
X46869000Y-108591000D03*
%TO.P,J2,5*%
%TO.N,/CAN_BUS-*%
X45089000Y-107575000D03*
%TO.P,J2,6*%
%TO.N,unconnected-(J2-Pad6)*%
X46869000Y-106559000D03*
%TO.P,J2,7*%
%TO.N,unconnected-(J2-Pad7)*%
X45089000Y-105543000D03*
%TO.P,J2,8*%
%TO.N,unconnected-(J2-Pad8)*%
X46869000Y-104527000D03*
%TO.P,J2,9*%
%TO.N,GND*%
X51689000Y-114939000D03*
%TO.P,J2,10*%
%TO.N,Net-(J2-Pad10)*%
X51689000Y-112649000D03*
%TO.P,J2,11*%
%TO.N,GND*%
X51689000Y-103509000D03*
%TO.P,J2,12*%
%TO.N,Net-(J2-Pad12)*%
X51689000Y-101219000D03*
D16*
%TO.P,J2,SH*%
%TO.N,unconnected-(J2-PadSH)*%
X45979000Y-116209000D03*
%TO.N,unconnected-(J2-PadSH)_0*%
X45979000Y-99949000D03*
%TD*%
D10*
%TO.P,J4,1,Pin_1*%
%TO.N,Net-(J3-Pin_2)*%
X63393000Y-91009000D03*
D11*
%TO.P,J4,2,Pin_2*%
%TO.N,Net-(J4-Pin_2)*%
X65933000Y-91009000D03*
%TD*%
D14*
%TO.P,J1,1*%
%TO.N,Net-(J6-Pin_2)*%
X45089000Y-91954000D03*
D15*
%TO.P,J1,2*%
%TO.N,unconnected-(J1-Pad2)*%
X46869000Y-90938000D03*
%TO.P,J1,3*%
%TO.N,unconnected-(J1-Pad3)*%
X45089000Y-89922000D03*
%TO.P,J1,4*%
%TO.N,/CAN_BUS+*%
X46869000Y-88906000D03*
%TO.P,J1,5*%
%TO.N,/CAN_BUS-*%
X45089000Y-87890000D03*
%TO.P,J1,6*%
%TO.N,unconnected-(J1-Pad6)*%
X46869000Y-86874000D03*
%TO.P,J1,7*%
%TO.N,unconnected-(J1-Pad7)*%
X45089000Y-85858000D03*
%TO.P,J1,8*%
%TO.N,Net-(J6-Pin_1)*%
X46869000Y-84842000D03*
%TO.P,J1,9*%
%TO.N,unconnected-(J1-Pad9)*%
X51689000Y-95254000D03*
%TO.P,J1,10*%
%TO.N,unconnected-(J1-Pad10)*%
X51689000Y-92964000D03*
%TO.P,J1,11*%
%TO.N,unconnected-(J1-Pad11)*%
X51689000Y-83824000D03*
%TO.P,J1,12*%
%TO.N,unconnected-(J1-Pad12)*%
X51689000Y-81534000D03*
D16*
%TO.P,J1,SH*%
%TO.N,unconnected-(J1-PadSH)_0*%
X45979000Y-96524000D03*
%TO.N,unconnected-(J1-PadSH)*%
X45979000Y-80264000D03*
%TD*%
D10*
%TO.P,J3,1,Pin_1*%
%TO.N,Net-(J3-Pin_1)*%
X65913000Y-104775000D03*
D11*
%TO.P,J3,2,Pin_2*%
%TO.N,Net-(J3-Pin_2)*%
X63373000Y-104775000D03*
%TD*%
D17*
%TO.P,J5,1,Pin_1*%
%TO.N,GND*%
X77811000Y-82169000D03*
D18*
%TO.P,J5,2,Pin_2*%
%TO.N,Net-(IC1-VCC)*%
X72811000Y-82169000D03*
%TD*%
D19*
%TO.N,GND*%
X69723000Y-103632000D03*
X59309000Y-103505000D03*
X39624000Y-85471000D03*
X40386000Y-109728000D03*
X54864000Y-83185000D03*
X127000000Y-96520000D03*
X127000000Y-91694000D03*
%TO.N,Net-(IC1-VIO)*%
X72644000Y-104902000D03*
%TD*%
D20*
%TO.N,/CAN_BUS+*%
X49276000Y-106613573D02*
G75*
G02*
X48690227Y-108027801I-2000000J-27D01*
G01*
X48012000Y-88906000D02*
X46869000Y-88906000D01*
D21*
%TO.N,Net-(IC1-VIO)*%
X72644000Y-106934000D02*
X76733400Y-111023400D01*
X72644000Y-104902000D02*
X72644000Y-106934000D01*
X76733400Y-111023400D02*
X83830160Y-111023400D01*
D22*
%TO.N,clk*%
X129547440Y-80195240D02*
X129514600Y-80162400D01*
X129547440Y-85627080D02*
X129547440Y-80195240D01*
%TO.N,D0*%
X126974600Y-85594240D02*
X127007440Y-85627080D01*
X126974600Y-80162400D02*
X126974600Y-85594240D01*
%TO.N,D1*%
X124470160Y-80197960D02*
X124434600Y-80162400D01*
X124470160Y-85623400D02*
X124470160Y-80197960D01*
%TO.N,GPIO15*%
X121894600Y-85587840D02*
X121930160Y-85623400D01*
X121894600Y-80162400D02*
X121894600Y-85587840D01*
%TO.N,GPIO2*%
X119390160Y-85623400D02*
X119390160Y-80197960D01*
X119390160Y-80197960D02*
X119354600Y-80162400D01*
%TO.N,GPIO0*%
X116814600Y-85587840D02*
X116850160Y-85623400D01*
X116814600Y-80162400D02*
X116814600Y-85587840D01*
%TO.N,GPIO4*%
X114310160Y-80197960D02*
X114274600Y-80162400D01*
X114310160Y-85623400D02*
X114310160Y-80197960D01*
%TO.N,GPIO16*%
X111734600Y-85587840D02*
X111770160Y-85623400D01*
X111734600Y-80162400D02*
X111734600Y-85587840D01*
%TO.N,GPIO17*%
X109230160Y-80197960D02*
X109194600Y-80162400D01*
X109230160Y-85623400D02*
X109230160Y-80197960D01*
%TO.N,GPIO5*%
X106654600Y-85587840D02*
X106690160Y-85623400D01*
X106654600Y-80162400D02*
X106654600Y-85587840D01*
%TO.N,GPIO18*%
X104150160Y-85623400D02*
X104150160Y-80197960D01*
X104150160Y-80197960D02*
X104114600Y-80162400D01*
%TO.N,GPIO19*%
X101574600Y-80162400D02*
X101574600Y-85587840D01*
X101574600Y-85587840D02*
X101610160Y-85623400D01*
%TO.N,GPIO21*%
X96530160Y-80197960D02*
X96494600Y-80162400D01*
X96530160Y-85623400D02*
X96530160Y-80197960D01*
%TO.N,GPIO3*%
X93954600Y-85587840D02*
X93990160Y-85623400D01*
X93954600Y-80162400D02*
X93954600Y-85587840D01*
%TO.N,GPIO1*%
X91450160Y-80197960D02*
X91414600Y-80162400D01*
X91450160Y-85623400D02*
X91450160Y-80197960D01*
%TO.N,GPIO22*%
X88874600Y-85587840D02*
X88910160Y-85623400D01*
X88874600Y-80162400D02*
X88874600Y-85587840D01*
%TO.N,GPIO23*%
X86370160Y-85623400D02*
X86370160Y-80197960D01*
X86370160Y-80197960D02*
X86334600Y-80162400D01*
%TO.N,Net-(IC1-VIO)*%
X83820000Y-111033560D02*
X83830160Y-111023400D01*
D23*
X83820000Y-116078000D02*
X83820000Y-111033560D01*
D22*
%TO.N,reset*%
X86370160Y-116067840D02*
X86360000Y-116078000D01*
X86370160Y-111023400D02*
X86370160Y-116067840D01*
%TO.N,GPIO36*%
X88900000Y-111033560D02*
X88910160Y-111023400D01*
X88900000Y-116078000D02*
X88900000Y-111033560D01*
%TO.N,GPIO39*%
X91450160Y-116067840D02*
X91440000Y-116078000D01*
X91450160Y-111023400D02*
X91450160Y-116067840D01*
%TO.N,GPIO34*%
X93980000Y-111033560D02*
X93990160Y-111023400D01*
X93980000Y-116078000D02*
X93980000Y-111033560D01*
%TO.N,GPIO35*%
X96530160Y-111023400D02*
X96530160Y-116067840D01*
X96530160Y-116067840D02*
X96520000Y-116078000D01*
%TO.N,GPIO32*%
X99060000Y-111033560D02*
X99070160Y-111023400D01*
X99060000Y-116078000D02*
X99060000Y-111033560D01*
%TO.N,unconnected-(U1-32K_XN{slash}GPIO33{slash}ADC1_CH5-Pad8)*%
X101610160Y-116067840D02*
X101600000Y-116078000D01*
X101610160Y-111023400D02*
X101610160Y-116067840D01*
%TO.N,unconnected-(U1-DAC_1{slash}ADC2_CH8{slash}GPIO25-Pad9)*%
X104150160Y-116067840D02*
X104140000Y-116078000D01*
X104150160Y-111023400D02*
X104150160Y-116067840D01*
%TO.N,unconnected-(U1-DAC_2{slash}ADC2_CH9{slash}GPIO26-Pad10)*%
X106690160Y-116067840D02*
X106680000Y-116078000D01*
X106690160Y-111023400D02*
X106690160Y-116067840D01*
%TO.N,unconnected-(U1-ADC2_CH7{slash}GPIO27-Pad11)*%
X109230160Y-116067840D02*
X109220000Y-116078000D01*
X109230160Y-111023400D02*
X109230160Y-116067840D01*
%TO.N,unconnected-(U1-MTMS{slash}GPIO14{slash}ADC2_CH6-Pad12)*%
X111770160Y-111023400D02*
X111770160Y-116067840D01*
X111770160Y-116067840D02*
X111760000Y-116078000D01*
%TO.N,unconnected-(U1-MTDI{slash}GPIO12{slash}ADC2_CH5-Pad13)*%
X114310160Y-116067840D02*
X114300000Y-116078000D01*
X114310160Y-111023400D02*
X114310160Y-116067840D01*
%TO.N,unconnected-(U1-MTCK{slash}GPIO13{slash}ADC2_CH4-Pad15)*%
X119390160Y-116067840D02*
X119380000Y-116078000D01*
X119390160Y-111023400D02*
X119390160Y-116067840D01*
%TO.N,unconnected-(U1-SD_DATA2{slash}GPIO9-Pad16)*%
X121930160Y-116067840D02*
X121920000Y-116078000D01*
X121930160Y-111023400D02*
X121930160Y-116067840D01*
%TO.N,unconnected-(U1-SD_DATA3{slash}GPIO10-Pad17)*%
X124470160Y-116067840D02*
X124460000Y-116078000D01*
X124470160Y-111023400D02*
X124470160Y-116067840D01*
%TO.N,unconnected-(U1-CMD-Pad18)*%
X127010160Y-116067840D02*
X127000000Y-116078000D01*
X127010160Y-111023400D02*
X127010160Y-116067840D01*
%TO.N,Net-(IC1-VCC)*%
X129550160Y-116067840D02*
X129540000Y-116078000D01*
D23*
X129550160Y-111023400D02*
X129550160Y-116067840D01*
X72811000Y-85862800D02*
X72811000Y-82169000D01*
X72771000Y-85902800D02*
X72811000Y-85862800D01*
X85699600Y-98831400D02*
X72771000Y-85902800D01*
D20*
%TO.N,Net-(J6-Pin_2)*%
X56846000Y-79375000D02*
X57486000Y-80015000D01*
X50673000Y-79375000D02*
X56846000Y-79375000D01*
X45593000Y-82677000D02*
X47371000Y-82677000D01*
X42418000Y-85852000D02*
X45593000Y-82677000D01*
X42418000Y-90678000D02*
X42418000Y-85852000D01*
X43694000Y-91954000D02*
X42418000Y-90678000D01*
X45089000Y-91954000D02*
X43694000Y-91954000D01*
X47371000Y-82677000D02*
X50673000Y-79375000D01*
%TO.N,Net-(J6-Pin_1)*%
X60026000Y-82341000D02*
X60026000Y-80015000D01*
X55499000Y-86868000D02*
X60026000Y-82341000D01*
X50673000Y-86868000D02*
X55499000Y-86868000D01*
X48647000Y-84842000D02*
X50673000Y-86868000D01*
X46869000Y-84842000D02*
X48647000Y-84842000D01*
%TO.N,Net-(J3-Pin_2)*%
X63373000Y-91029000D02*
X63393000Y-91009000D01*
X63373000Y-104775000D02*
X63373000Y-91029000D01*
D23*
%TO.N,Net-(IC1-VCC)*%
X129550160Y-111023400D02*
X129550160Y-106613960D01*
X129550160Y-106613960D02*
X121767600Y-98831400D01*
X121767600Y-98831400D02*
X85699600Y-98831400D01*
D20*
%TO.N,/CAN_BUS+*%
X48690213Y-108027787D02*
X48127000Y-108591000D01*
X48127000Y-108591000D02*
X46869000Y-108591000D01*
X49536000Y-99684337D02*
X48536000Y-99684337D01*
X48536000Y-100334337D02*
X49016000Y-100334337D01*
X49536000Y-99034337D02*
X50016000Y-99034337D01*
X49276000Y-101283413D02*
X49276000Y-106613573D01*
X50016000Y-99684337D02*
X49536000Y-99684337D01*
X48276000Y-99944337D02*
X48276000Y-100074337D01*
X49276000Y-90170000D02*
X49276000Y-98774337D01*
X49276000Y-100594337D02*
X49276000Y-100724337D01*
X49276000Y-100724337D02*
X49276000Y-101283413D01*
X50276000Y-99294337D02*
X50276000Y-99424337D01*
X49276000Y-90170000D02*
X48012000Y-88906000D01*
X48276000Y-100074337D02*
G75*
G03*
X48536000Y-100334300I260000J37D01*
G01*
X50276000Y-99424337D02*
G75*
G02*
X50016000Y-99684300I-260000J37D01*
G01*
X49276000Y-98774337D02*
G75*
G03*
X49536000Y-99034300I260000J37D01*
G01*
X50016000Y-99034337D02*
G75*
G02*
X50275963Y-99294337I0J-259963D01*
G01*
X49016000Y-100334337D02*
G75*
G02*
X49275963Y-100594337I0J-259963D01*
G01*
X48536000Y-99684337D02*
G75*
G03*
X48276037Y-99944337I0J-259963D01*
G01*
%TD*%
%TA.AperFunction,Conductor*%
%TO.N,GND*%
G36*
X45420262Y-78498185D02*
G01*
X45466017Y-78550989D01*
X45475961Y-78620147D01*
X45446936Y-78683703D01*
X45400676Y-78717061D01*
X45227376Y-78788843D01*
X45005859Y-78924588D01*
X44808311Y-79093311D01*
X44639588Y-79290859D01*
X44503843Y-79512376D01*
X44404427Y-79752389D01*
X44343778Y-80005009D01*
X44323396Y-80264000D01*
X44343778Y-80522990D01*
X44404427Y-80775610D01*
X44503843Y-81015623D01*
X44503845Y-81015627D01*
X44503846Y-81015628D01*
X44639588Y-81237140D01*
X44808311Y-81434689D01*
X45005860Y-81603412D01*
X45227372Y-81739154D01*
X45227374Y-81739154D01*
X45227376Y-81739156D01*
X45258329Y-81751977D01*
X45467390Y-81838573D01*
X45485519Y-81842925D01*
X45546108Y-81877712D01*
X45578273Y-81939738D01*
X45571799Y-82009307D01*
X45528741Y-82064332D01*
X45488665Y-82083273D01*
X45361210Y-82117424D01*
X45361209Y-82117425D01*
X45311096Y-82146359D01*
X45311095Y-82146360D01*
X45284633Y-82161638D01*
X45224285Y-82196479D01*
X45224282Y-82196481D01*
X45112478Y-82308286D01*
X44455744Y-82965019D01*
X44394421Y-82998504D01*
X44324729Y-82993520D01*
X44268796Y-82951648D01*
X44244379Y-82886184D01*
X44253502Y-82829885D01*
X44280852Y-82763856D01*
X44328778Y-82648153D01*
X44392409Y-82410677D01*
X44424500Y-82166927D01*
X44424500Y-81921073D01*
X44392409Y-81677323D01*
X44328778Y-81439847D01*
X44326641Y-81434689D01*
X44289708Y-81345523D01*
X44234694Y-81212708D01*
X44111767Y-80999792D01*
X44037548Y-80903068D01*
X43962102Y-80804745D01*
X43962096Y-80804738D01*
X43788261Y-80630903D01*
X43788254Y-80630897D01*
X43593212Y-80481236D01*
X43593211Y-80481235D01*
X43593208Y-80481233D01*
X43380292Y-80358306D01*
X43380285Y-80358303D01*
X43153162Y-80264225D01*
X43153155Y-80264223D01*
X43153153Y-80264222D01*
X42915677Y-80200591D01*
X42874939Y-80195227D01*
X42671934Y-80168500D01*
X42671927Y-80168500D01*
X42426073Y-80168500D01*
X42426065Y-80168500D01*
X42194059Y-80199045D01*
X42182323Y-80200591D01*
X42079187Y-80228226D01*
X41944847Y-80264222D01*
X41944837Y-80264225D01*
X41717714Y-80358303D01*
X41717705Y-80358307D01*
X41533313Y-80464766D01*
X41509244Y-80478663D01*
X41504787Y-80481236D01*
X41309745Y-80630897D01*
X41309738Y-80630903D01*
X41135903Y-80804738D01*
X41135897Y-80804745D01*
X40986236Y-80999787D01*
X40863307Y-81212705D01*
X40863303Y-81212714D01*
X40769225Y-81439837D01*
X40769222Y-81439847D01*
X40721219Y-81619000D01*
X40705592Y-81677320D01*
X40705590Y-81677331D01*
X40673500Y-81921065D01*
X40673500Y-82166934D01*
X40696401Y-82340877D01*
X40705591Y-82410677D01*
X40749028Y-82572786D01*
X40769222Y-82648152D01*
X40769225Y-82648162D01*
X40824073Y-82780575D01*
X40863306Y-82875292D01*
X40986233Y-83088208D01*
X40986235Y-83088211D01*
X40986236Y-83088212D01*
X41135897Y-83283254D01*
X41135903Y-83283261D01*
X41309738Y-83457096D01*
X41309744Y-83457101D01*
X41504792Y-83606767D01*
X41717708Y-83729694D01*
X41944847Y-83823778D01*
X42182323Y-83887409D01*
X42426073Y-83919500D01*
X42426080Y-83919500D01*
X42671920Y-83919500D01*
X42671927Y-83919500D01*
X42915677Y-83887409D01*
X43153153Y-83823778D01*
X43334885Y-83748501D01*
X43404354Y-83741033D01*
X43466834Y-83772308D01*
X43502486Y-83832397D01*
X43499992Y-83902222D01*
X43470019Y-83950744D01*
X42049286Y-85371478D01*
X41937481Y-85483282D01*
X41937475Y-85483290D01*
X41892153Y-85561792D01*
X41892153Y-85561793D01*
X41858423Y-85620215D01*
X41817499Y-85772943D01*
X41817499Y-85772945D01*
X41817499Y-85941046D01*
X41817500Y-85941059D01*
X41817500Y-90591330D01*
X41817499Y-90591348D01*
X41817499Y-90757054D01*
X41817498Y-90757054D01*
X41858423Y-90909785D01*
X41874713Y-90938000D01*
X41887358Y-90959900D01*
X41887359Y-90959904D01*
X41887360Y-90959904D01*
X41925360Y-91025724D01*
X41937479Y-91046714D01*
X41937481Y-91046717D01*
X42056349Y-91165585D01*
X42056354Y-91165589D01*
X43325284Y-92434520D01*
X43325286Y-92434521D01*
X43325290Y-92434524D01*
X43462209Y-92513573D01*
X43462216Y-92513577D01*
X43614943Y-92554501D01*
X43614945Y-92554501D01*
X43714501Y-92554501D01*
X43781540Y-92574186D01*
X43827295Y-92626990D01*
X43838501Y-92678501D01*
X43838501Y-92751876D01*
X43844908Y-92811483D01*
X43895202Y-92946328D01*
X43895206Y-92946335D01*
X43981452Y-93061544D01*
X43981455Y-93061547D01*
X44096664Y-93147793D01*
X44096671Y-93147797D01*
X44231517Y-93198091D01*
X44231516Y-93198091D01*
X44238444Y-93198835D01*
X44291127Y-93204500D01*
X45886872Y-93204499D01*
X45946483Y-93198091D01*
X46081331Y-93147796D01*
X46196546Y-93061546D01*
X46282796Y-92946331D01*
X46333091Y-92811483D01*
X46339500Y-92751873D01*
X46339499Y-92252333D01*
X46359183Y-92185295D01*
X46411987Y-92139540D01*
X46481146Y-92129596D01*
X46495584Y-92132557D01*
X46651023Y-92174207D01*
X46838787Y-92190633D01*
X46868998Y-92193277D01*
X46869000Y-92193277D01*
X46869002Y-92193277D01*
X46897254Y-92190805D01*
X47086977Y-92174207D01*
X47298330Y-92117575D01*
X47496639Y-92025102D01*
X47675877Y-91899598D01*
X47830598Y-91744877D01*
X47956102Y-91565639D01*
X48048575Y-91367330D01*
X48105207Y-91155977D01*
X48124277Y-90938000D01*
X48105207Y-90720023D01*
X48048575Y-90508670D01*
X47956102Y-90310362D01*
X47956100Y-90310359D01*
X47956099Y-90310357D01*
X47830599Y-90131124D01*
X47778533Y-90079058D01*
X47709154Y-90009679D01*
X47675671Y-89948359D01*
X47680655Y-89878667D01*
X47709156Y-89834319D01*
X47812439Y-89731036D01*
X47873762Y-89697551D01*
X47943454Y-89702535D01*
X47987801Y-89731036D01*
X48639181Y-90382416D01*
X48672666Y-90443739D01*
X48675500Y-90470097D01*
X48675500Y-98694005D01*
X48675489Y-98694189D01*
X48675492Y-98723021D01*
X48675456Y-98723143D01*
X48675474Y-98859168D01*
X48675474Y-98859169D01*
X48690686Y-98935593D01*
X48684468Y-99005186D01*
X48641612Y-99060368D01*
X48575725Y-99083621D01*
X48569072Y-99083800D01*
X48451239Y-99083800D01*
X48284978Y-99116875D01*
X48284971Y-99116877D01*
X48128368Y-99181751D01*
X48128357Y-99181757D01*
X47987425Y-99275936D01*
X47987419Y-99275941D01*
X47867564Y-99395812D01*
X47867563Y-99395814D01*
X47786733Y-99516807D01*
X47733124Y-99561617D01*
X47663800Y-99570330D01*
X47600770Y-99540180D01*
X47564046Y-99480740D01*
X47563059Y-99476905D01*
X47553573Y-99437390D01*
X47461572Y-99215280D01*
X47454156Y-99197376D01*
X47444582Y-99181753D01*
X47318412Y-98975860D01*
X47149689Y-98778311D01*
X46952140Y-98609588D01*
X46730628Y-98473846D01*
X46730627Y-98473845D01*
X46730623Y-98473843D01*
X46564627Y-98405086D01*
X46490610Y-98374427D01*
X46490611Y-98374427D01*
X46465407Y-98368376D01*
X46418326Y-98357073D01*
X46357736Y-98322283D01*
X46325572Y-98260257D01*
X46332048Y-98190688D01*
X46375108Y-98135664D01*
X46418325Y-98115926D01*
X46490610Y-98098573D01*
X46730628Y-97999154D01*
X46952140Y-97863412D01*
X47149689Y-97694689D01*
X47318412Y-97497140D01*
X47454154Y-97275628D01*
X47553573Y-97035610D01*
X47614221Y-96782994D01*
X47634604Y-96524000D01*
X47614221Y-96265006D01*
X47553573Y-96012390D01*
X47454154Y-95772372D01*
X47318412Y-95550860D01*
X47149689Y-95353311D01*
X46952140Y-95184588D01*
X46730628Y-95048846D01*
X46730627Y-95048845D01*
X46730623Y-95048843D01*
X46564627Y-94980086D01*
X46490610Y-94949427D01*
X46490611Y-94949427D01*
X46292559Y-94901879D01*
X46237994Y-94888779D01*
X46237992Y-94888778D01*
X46237991Y-94888778D01*
X45979000Y-94868396D01*
X45720009Y-94888778D01*
X45467389Y-94949427D01*
X45227376Y-95048843D01*
X45005859Y-95184588D01*
X44808311Y-95353311D01*
X44639588Y-95550859D01*
X44503843Y-95772376D01*
X44404427Y-96012389D01*
X44343778Y-96265009D01*
X44323396Y-96524000D01*
X44343778Y-96782990D01*
X44404427Y-97035610D01*
X44503843Y-97275623D01*
X44503845Y-97275627D01*
X44503846Y-97275628D01*
X44639588Y-97497140D01*
X44808311Y-97694689D01*
X45005860Y-97863412D01*
X45227372Y-97999154D01*
X45227374Y-97999154D01*
X45227376Y-97999156D01*
X45302212Y-98030154D01*
X45467390Y-98098573D01*
X45539673Y-98115926D01*
X45600264Y-98150717D01*
X45632427Y-98212744D01*
X45625951Y-98282313D01*
X45582891Y-98337336D01*
X45539674Y-98357073D01*
X45467390Y-98374427D01*
X45467388Y-98374427D01*
X45467387Y-98374428D01*
X45227376Y-98473843D01*
X45005859Y-98609588D01*
X44808311Y-98778311D01*
X44639588Y-98975859D01*
X44503843Y-99197376D01*
X44404427Y-99437389D01*
X44343778Y-99690009D01*
X44323396Y-99949000D01*
X44343778Y-100207990D01*
X44404427Y-100460610D01*
X44503843Y-100700623D01*
X44503845Y-100700627D01*
X44503846Y-100700628D01*
X44639588Y-100922140D01*
X44808311Y-101119689D01*
X45005860Y-101288412D01*
X45227372Y-101424154D01*
X45227374Y-101424154D01*
X45227376Y-101424156D01*
X45258329Y-101436977D01*
X45467390Y-101523573D01*
X45720006Y-101584221D01*
X45979000Y-101604604D01*
X46237994Y-101584221D01*
X46490610Y-101523573D01*
X46730628Y-101424154D01*
X46952140Y-101288412D01*
X47149689Y-101119689D01*
X47318412Y-100922140D01*
X47454154Y-100700628D01*
X47544518Y-100482469D01*
X47588359Y-100428066D01*
X47654653Y-100406001D01*
X47722352Y-100423280D01*
X47769963Y-100474417D01*
X47773310Y-100481746D01*
X47773442Y-100481993D01*
X47867619Y-100622911D01*
X47867623Y-100622916D01*
X47987476Y-100742753D01*
X47987481Y-100742757D01*
X48128412Y-100836913D01*
X48128413Y-100836913D01*
X48128417Y-100836916D01*
X48285013Y-100901774D01*
X48451252Y-100934838D01*
X48536000Y-100934837D01*
X48551500Y-100934837D01*
X48618539Y-100954522D01*
X48664294Y-101007326D01*
X48675500Y-101058837D01*
X48675500Y-106534533D01*
X48675499Y-106534555D01*
X48675499Y-106609516D01*
X48675234Y-106617624D01*
X48664060Y-106788145D01*
X48661943Y-106804226D01*
X48629404Y-106967826D01*
X48625205Y-106983495D01*
X48571584Y-107141459D01*
X48565378Y-107156444D01*
X48491605Y-107306045D01*
X48483495Y-107320091D01*
X48390820Y-107458793D01*
X48380946Y-107471662D01*
X48268469Y-107599919D01*
X48262923Y-107605840D01*
X48239814Y-107628950D01*
X48239812Y-107628952D01*
X48039716Y-107829047D01*
X47978393Y-107862532D01*
X47908701Y-107857548D01*
X47852768Y-107815676D01*
X47850459Y-107812488D01*
X47836797Y-107792977D01*
X47830598Y-107784123D01*
X47830597Y-107784122D01*
X47830595Y-107784119D01*
X47709156Y-107662680D01*
X47675671Y-107601357D01*
X47680655Y-107531665D01*
X47709152Y-107487322D01*
X47830598Y-107365877D01*
X47956102Y-107186639D01*
X48048575Y-106988330D01*
X48105207Y-106776977D01*
X48121805Y-106587254D01*
X48124277Y-106559002D01*
X48124277Y-106558997D01*
X48120464Y-106515416D01*
X48105207Y-106341023D01*
X48048575Y-106129670D01*
X47956102Y-105931362D01*
X47956100Y-105931359D01*
X47956099Y-105931357D01*
X47830597Y-105752121D01*
X47709156Y-105630680D01*
X47675671Y-105569357D01*
X47680655Y-105499665D01*
X47709152Y-105455322D01*
X47830598Y-105333877D01*
X47956102Y-105154639D01*
X48048575Y-104956330D01*
X48105207Y-104744977D01*
X48124277Y-104527000D01*
X48105207Y-104309023D01*
X48048575Y-104097670D01*
X47956102Y-103899362D01*
X47956100Y-103899359D01*
X47956099Y-103899357D01*
X47830599Y-103720124D01*
X47791239Y-103680764D01*
X47675877Y-103565402D01*
X47496639Y-103439898D01*
X47496640Y-103439898D01*
X47496638Y-103439897D01*
X47397484Y-103393661D01*
X47298330Y-103347425D01*
X47298326Y-103347424D01*
X47298322Y-103347422D01*
X47086977Y-103290793D01*
X46869002Y-103271723D01*
X46868998Y-103271723D01*
X46723682Y-103284436D01*
X46651023Y-103290793D01*
X46651020Y-103290793D01*
X46439677Y-103347422D01*
X46439668Y-103347426D01*
X46241361Y-103439898D01*
X46241357Y-103439900D01*
X46062121Y-103565402D01*
X45907402Y-103720121D01*
X45781900Y-103899357D01*
X45781898Y-103899361D01*
X45689426Y-104097668D01*
X45689423Y-104097675D01*
X45643618Y-104268621D01*
X45607253Y-104328281D01*
X45544405Y-104358810D01*
X45491750Y-104356302D01*
X45306977Y-104306793D01*
X45089002Y-104287723D01*
X45088998Y-104287723D01*
X44943682Y-104300436D01*
X44871023Y-104306793D01*
X44871020Y-104306793D01*
X44659677Y-104363422D01*
X44659668Y-104363426D01*
X44461361Y-104455898D01*
X44461357Y-104455900D01*
X44282121Y-104581402D01*
X44127402Y-104736121D01*
X44001900Y-104915357D01*
X44001898Y-104915361D01*
X43909426Y-105113668D01*
X43909422Y-105113677D01*
X43852793Y-105325020D01*
X43852793Y-105325023D01*
X43833723Y-105543000D01*
X43852018Y-105752123D01*
X43852793Y-105760975D01*
X43852793Y-105760979D01*
X43909422Y-105972322D01*
X43909424Y-105972326D01*
X43909425Y-105972330D01*
X43945131Y-106048901D01*
X44001897Y-106170638D01*
X44001898Y-106170639D01*
X44127402Y-106349877D01*
X44127406Y-106349881D01*
X44248843Y-106471318D01*
X44282328Y-106532641D01*
X44277344Y-106602333D01*
X44248844Y-106646680D01*
X44127400Y-106768124D01*
X44001900Y-106947357D01*
X44001898Y-106947361D01*
X43909426Y-107145668D01*
X43909422Y-107145677D01*
X43852793Y-107357020D01*
X43852793Y-107357024D01*
X43843890Y-107458793D01*
X43833723Y-107575000D01*
X43852018Y-107784123D01*
X43852793Y-107792975D01*
X43852793Y-107792979D01*
X43909422Y-108004322D01*
X43909424Y-108004326D01*
X43909425Y-108004330D01*
X43955661Y-108103484D01*
X44001897Y-108202638D01*
X44001898Y-108202639D01*
X44127402Y-108381877D01*
X44127406Y-108381881D01*
X44248843Y-108503318D01*
X44282328Y-108564641D01*
X44277344Y-108634333D01*
X44248844Y-108678680D01*
X44127400Y-108800124D01*
X44001900Y-108979357D01*
X44001898Y-108979361D01*
X43909426Y-109177668D01*
X43909422Y-109177677D01*
X43852793Y-109389020D01*
X43852793Y-109389024D01*
X43833723Y-109606997D01*
X43833723Y-109607002D01*
X43841394Y-109694680D01*
X43852018Y-109816123D01*
X43852793Y-109824975D01*
X43852793Y-109824979D01*
X43909422Y-110036322D01*
X43909424Y-110036326D01*
X43909425Y-110036330D01*
X44001898Y-110234639D01*
X44028689Y-110272900D01*
X44062323Y-110320934D01*
X44084650Y-110387140D01*
X44067640Y-110454908D01*
X44035060Y-110491324D01*
X43981452Y-110531455D01*
X43895206Y-110646664D01*
X43895202Y-110646671D01*
X43844908Y-110781517D01*
X43838501Y-110841116D01*
X43838500Y-110841135D01*
X43838500Y-112436870D01*
X43838501Y-112436876D01*
X43844908Y-112496483D01*
X43895202Y-112631328D01*
X43895206Y-112631335D01*
X43981452Y-112746544D01*
X43981455Y-112746547D01*
X44096664Y-112832793D01*
X44096671Y-112832797D01*
X44231517Y-112883091D01*
X44231516Y-112883091D01*
X44238444Y-112883835D01*
X44291127Y-112889500D01*
X45886872Y-112889499D01*
X45946483Y-112883091D01*
X46081331Y-112832796D01*
X46196546Y-112746546D01*
X46269567Y-112649002D01*
X50433723Y-112649002D01*
X50452793Y-112866975D01*
X50452793Y-112866979D01*
X50509422Y-113078322D01*
X50509424Y-113078326D01*
X50509425Y-113078330D01*
X50555661Y-113177484D01*
X50601897Y-113276638D01*
X50601898Y-113276639D01*
X50727402Y-113455877D01*
X50882123Y-113610598D01*
X50999420Y-113692730D01*
X51043044Y-113747306D01*
X51050237Y-113816804D01*
X51018715Y-113879159D01*
X50999428Y-113895871D01*
X50999427Y-113895873D01*
X51604498Y-114500944D01*
X51517236Y-114524326D01*
X51415764Y-114582911D01*
X51332911Y-114665764D01*
X51274326Y-114767236D01*
X51250944Y-114854498D01*
X50645874Y-114249428D01*
X50602333Y-114311613D01*
X50509898Y-114509840D01*
X50509894Y-114509849D01*
X50453289Y-114721105D01*
X50453287Y-114721115D01*
X50434225Y-114938999D01*
X50434225Y-114939000D01*
X50453287Y-115156884D01*
X50453289Y-115156894D01*
X50509894Y-115368150D01*
X50509898Y-115368159D01*
X50602333Y-115566387D01*
X50645874Y-115628571D01*
X51250944Y-115023501D01*
X51274326Y-115110764D01*
X51332911Y-115212236D01*
X51415764Y-115295089D01*
X51517236Y-115353674D01*
X51604497Y-115377055D01*
X50999427Y-115982124D01*
X51061612Y-116025666D01*
X51259840Y-116118101D01*
X51259849Y-116118105D01*
X51471105Y-116174710D01*
X51471115Y-116174712D01*
X51688999Y-116193775D01*
X51689001Y-116193775D01*
X51906884Y-116174712D01*
X51906894Y-116174710D01*
X52118150Y-116118105D01*
X52118164Y-116118100D01*
X52316383Y-116025669D01*
X52316385Y-116025668D01*
X52378571Y-115982124D01*
X51773503Y-115377055D01*
X51860764Y-115353674D01*
X51962236Y-115295089D01*
X52045089Y-115212236D01*
X52103674Y-115110764D01*
X52127055Y-115023502D01*
X52732124Y-115628570D01*
X52775668Y-115566385D01*
X52775669Y-115566383D01*
X52868100Y-115368164D01*
X52868105Y-115368150D01*
X52924710Y-115156894D01*
X52924712Y-115156884D01*
X52943775Y-114939000D01*
X52943775Y-114938999D01*
X52924712Y-114721115D01*
X52924710Y-114721105D01*
X52868105Y-114509849D01*
X52868101Y-114509840D01*
X52775667Y-114311614D01*
X52775666Y-114311612D01*
X52732124Y-114249428D01*
X52732124Y-114249427D01*
X52127055Y-114854496D01*
X52103674Y-114767236D01*
X52045089Y-114665764D01*
X51962236Y-114582911D01*
X51860764Y-114524326D01*
X51773502Y-114500944D01*
X52378571Y-113895874D01*
X52378571Y-113895870D01*
X52334954Y-113841303D01*
X52327762Y-113771804D01*
X52359284Y-113709449D01*
X52378572Y-113692735D01*
X52495877Y-113610598D01*
X52650598Y-113455877D01*
X52776102Y-113276639D01*
X52868575Y-113078330D01*
X52925207Y-112866977D01*
X52944277Y-112649000D01*
X52925207Y-112431023D01*
X52868575Y-112219670D01*
X52776102Y-112021362D01*
X52776100Y-112021359D01*
X52776099Y-112021357D01*
X52650599Y-111842124D01*
X52582375Y-111773900D01*
X52495877Y-111687402D01*
X52316639Y-111561898D01*
X52316640Y-111561898D01*
X52316638Y-111561897D01*
X52205281Y-111509971D01*
X52118330Y-111469425D01*
X52118326Y-111469424D01*
X52118322Y-111469422D01*
X51906977Y-111412793D01*
X51689002Y-111393723D01*
X51688998Y-111393723D01*
X51543682Y-111406436D01*
X51471023Y-111412793D01*
X51471020Y-111412793D01*
X51259677Y-111469422D01*
X51259668Y-111469426D01*
X51061361Y-111561898D01*
X51061357Y-111561900D01*
X50882121Y-111687402D01*
X50727402Y-111842121D01*
X50601900Y-112021357D01*
X50601898Y-112021361D01*
X50509426Y-112219668D01*
X50509422Y-112219677D01*
X50452793Y-112431020D01*
X50452793Y-112431023D01*
X50452281Y-112436872D01*
X50433723Y-112648997D01*
X50433723Y-112649002D01*
X46269567Y-112649002D01*
X46282796Y-112631331D01*
X46333091Y-112496483D01*
X46339500Y-112436873D01*
X46339499Y-111937333D01*
X46359183Y-111870295D01*
X46411987Y-111824540D01*
X46481146Y-111814596D01*
X46495584Y-111817557D01*
X46651023Y-111859207D01*
X46838787Y-111875633D01*
X46868998Y-111878277D01*
X46869000Y-111878277D01*
X46869002Y-111878277D01*
X46897254Y-111875805D01*
X47086977Y-111859207D01*
X47298330Y-111802575D01*
X47496639Y-111710102D01*
X47675877Y-111584598D01*
X47830598Y-111429877D01*
X47956102Y-111250639D01*
X48048575Y-111052330D01*
X48105207Y-110840977D01*
X48124277Y-110623000D01*
X48105207Y-110405023D01*
X48048575Y-110193670D01*
X47956102Y-109995362D01*
X47956100Y-109995359D01*
X47956099Y-109995357D01*
X47830597Y-109816121D01*
X47709156Y-109694680D01*
X47675671Y-109633357D01*
X47680655Y-109563665D01*
X47709152Y-109519322D01*
X47830598Y-109397877D01*
X47938081Y-109244374D01*
X47992657Y-109200751D01*
X48039655Y-109191500D01*
X48040331Y-109191500D01*
X48040347Y-109191501D01*
X48047943Y-109191501D01*
X48206054Y-109191501D01*
X48206057Y-109191501D01*
X48358785Y-109150577D01*
X48408904Y-109121639D01*
X48495716Y-109071520D01*
X48607520Y-108959716D01*
X48607520Y-108959714D01*
X48617728Y-108949507D01*
X48617730Y-108949504D01*
X49053067Y-108514167D01*
X49053072Y-108514163D01*
X49063276Y-108503959D01*
X49063277Y-108503959D01*
X49078503Y-108488733D01*
X49078558Y-108488702D01*
X49114847Y-108452413D01*
X49114848Y-108452414D01*
X49218115Y-108349147D01*
X49400223Y-108120785D01*
X49555619Y-107873469D01*
X49682346Y-107610309D01*
X49778812Y-107334615D01*
X49820282Y-107152913D01*
X49843800Y-107049870D01*
X49843801Y-107049861D01*
X49843803Y-107049854D01*
X49876502Y-106759607D01*
X49876500Y-106613565D01*
X49876500Y-106578506D01*
X49876500Y-104775000D01*
X62017341Y-104775000D01*
X62037936Y-105010403D01*
X62037938Y-105010413D01*
X62099094Y-105238655D01*
X62099096Y-105238659D01*
X62099097Y-105238663D01*
X62139368Y-105325024D01*
X62198965Y-105452830D01*
X62198967Y-105452834D01*
X62262104Y-105543002D01*
X62334505Y-105646401D01*
X62501599Y-105813495D01*
X62598384Y-105881265D01*
X62695165Y-105949032D01*
X62695167Y-105949033D01*
X62695170Y-105949035D01*
X62909337Y-106048903D01*
X63137592Y-106110063D01*
X63314034Y-106125500D01*
X63372999Y-106130659D01*
X63373000Y-106130659D01*
X63373001Y-106130659D01*
X63431966Y-106125500D01*
X63608408Y-106110063D01*
X63836663Y-106048903D01*
X64050830Y-105949035D01*
X64244401Y-105813495D01*
X64366329Y-105691566D01*
X64427648Y-105658084D01*
X64497340Y-105663068D01*
X64553274Y-105704939D01*
X64570189Y-105735917D01*
X64619202Y-105867328D01*
X64619206Y-105867335D01*
X64705452Y-105982544D01*
X64705455Y-105982547D01*
X64820664Y-106068793D01*
X64820671Y-106068797D01*
X64955517Y-106119091D01*
X64955516Y-106119091D01*
X64962444Y-106119835D01*
X65015127Y-106125500D01*
X66810872Y-106125499D01*
X66870483Y-106119091D01*
X67005331Y-106068796D01*
X67120546Y-105982546D01*
X67206796Y-105867331D01*
X67257091Y-105732483D01*
X67263500Y-105672873D01*
X67263499Y-103877128D01*
X67257091Y-103817517D01*
X67255810Y-103814083D01*
X67206797Y-103682671D01*
X67206793Y-103682664D01*
X67120547Y-103567455D01*
X67120544Y-103567452D01*
X67005335Y-103481206D01*
X67005328Y-103481202D01*
X66870482Y-103430908D01*
X66870483Y-103430908D01*
X66810883Y-103424501D01*
X66810881Y-103424500D01*
X66810873Y-103424500D01*
X66810864Y-103424500D01*
X65015129Y-103424500D01*
X65015123Y-103424501D01*
X64955516Y-103430908D01*
X64820671Y-103481202D01*
X64820664Y-103481206D01*
X64705455Y-103567452D01*
X64705452Y-103567455D01*
X64619206Y-103682664D01*
X64619203Y-103682669D01*
X64570189Y-103814083D01*
X64528317Y-103870016D01*
X64462853Y-103894433D01*
X64394580Y-103879581D01*
X64366326Y-103858430D01*
X64244402Y-103736506D01*
X64244395Y-103736501D01*
X64221006Y-103720124D01*
X64167518Y-103682671D01*
X64050831Y-103600965D01*
X64050826Y-103600962D01*
X64045091Y-103598288D01*
X63992653Y-103552113D01*
X63973500Y-103485908D01*
X63973500Y-92483499D01*
X63993185Y-92416460D01*
X64045989Y-92370705D01*
X64097500Y-92359499D01*
X64290871Y-92359499D01*
X64290872Y-92359499D01*
X64350483Y-92353091D01*
X64485331Y-92302796D01*
X64600546Y-92216546D01*
X64686796Y-92101331D01*
X64735810Y-91969916D01*
X64777681Y-91913984D01*
X64843145Y-91889566D01*
X64911418Y-91904417D01*
X64939673Y-91925569D01*
X65061599Y-92047495D01*
X65158384Y-92115265D01*
X65255165Y-92183032D01*
X65255167Y-92183033D01*
X65255170Y-92183035D01*
X65469337Y-92282903D01*
X65697592Y-92344063D01*
X65874034Y-92359500D01*
X65932999Y-92364659D01*
X65933000Y-92364659D01*
X65933001Y-92364659D01*
X65991966Y-92359500D01*
X66168408Y-92344063D01*
X66396663Y-92282903D01*
X66610830Y-92183035D01*
X66804401Y-92047495D01*
X66971495Y-91880401D01*
X67107035Y-91686830D01*
X67206903Y-91472663D01*
X67268063Y-91244408D01*
X67288659Y-91009000D01*
X67268063Y-90773592D01*
X67208056Y-90549639D01*
X67206905Y-90545344D01*
X67206904Y-90545343D01*
X67206903Y-90545337D01*
X67107035Y-90331171D01*
X67092465Y-90310362D01*
X66971494Y-90137597D01*
X66804402Y-89970506D01*
X66804395Y-89970501D01*
X66610834Y-89834967D01*
X66610830Y-89834965D01*
X66609445Y-89834319D01*
X66396663Y-89735097D01*
X66396659Y-89735096D01*
X66396655Y-89735094D01*
X66168413Y-89673938D01*
X66168403Y-89673936D01*
X65933001Y-89653341D01*
X65932999Y-89653341D01*
X65697596Y-89673936D01*
X65697586Y-89673938D01*
X65469344Y-89735094D01*
X65469335Y-89735098D01*
X65255171Y-89834964D01*
X65255169Y-89834965D01*
X65061600Y-89970503D01*
X64939673Y-90092430D01*
X64878350Y-90125914D01*
X64808658Y-90120930D01*
X64752725Y-90079058D01*
X64735810Y-90048081D01*
X64686797Y-89916671D01*
X64686793Y-89916664D01*
X64600547Y-89801455D01*
X64600544Y-89801452D01*
X64485335Y-89715206D01*
X64485328Y-89715202D01*
X64350482Y-89664908D01*
X64350483Y-89664908D01*
X64290883Y-89658501D01*
X64290881Y-89658500D01*
X64290873Y-89658500D01*
X64290864Y-89658500D01*
X62495129Y-89658500D01*
X62495123Y-89658501D01*
X62435516Y-89664908D01*
X62300671Y-89715202D01*
X62300664Y-89715206D01*
X62185455Y-89801452D01*
X62185452Y-89801455D01*
X62099206Y-89916664D01*
X62099202Y-89916671D01*
X62048908Y-90051517D01*
X62042501Y-90111116D01*
X62042500Y-90111135D01*
X62042500Y-91906870D01*
X62042501Y-91906876D01*
X62048908Y-91966483D01*
X62099202Y-92101328D01*
X62099206Y-92101335D01*
X62185452Y-92216544D01*
X62185455Y-92216547D01*
X62300664Y-92302793D01*
X62300671Y-92302797D01*
X62345618Y-92319561D01*
X62435517Y-92353091D01*
X62495127Y-92359500D01*
X62648500Y-92359499D01*
X62715539Y-92379183D01*
X62761294Y-92431987D01*
X62772500Y-92483499D01*
X62772500Y-103485908D01*
X62752815Y-103552947D01*
X62700914Y-103598286D01*
X62695173Y-103600963D01*
X62695169Y-103600965D01*
X62501597Y-103736505D01*
X62334505Y-103903597D01*
X62198965Y-104097169D01*
X62198964Y-104097171D01*
X62099098Y-104311335D01*
X62099094Y-104311344D01*
X62037938Y-104539586D01*
X62037936Y-104539596D01*
X62017341Y-104774999D01*
X62017341Y-104775000D01*
X49876500Y-104775000D01*
X49876500Y-101219002D01*
X50433723Y-101219002D01*
X50439796Y-101288412D01*
X50446262Y-101362331D01*
X50452793Y-101436975D01*
X50452793Y-101436979D01*
X50509422Y-101648322D01*
X50509424Y-101648326D01*
X50509425Y-101648330D01*
X50555661Y-101747484D01*
X50601897Y-101846638D01*
X50626998Y-101882486D01*
X50727402Y-102025877D01*
X50882123Y-102180598D01*
X50999420Y-102262730D01*
X51043044Y-102317306D01*
X51050237Y-102386804D01*
X51018715Y-102449159D01*
X50999428Y-102465871D01*
X50999427Y-102465873D01*
X51604498Y-103070944D01*
X51517236Y-103094326D01*
X51415764Y-103152911D01*
X51332911Y-103235764D01*
X51274326Y-103337236D01*
X51250944Y-103424498D01*
X50645874Y-102819428D01*
X50602333Y-102881613D01*
X50509898Y-103079840D01*
X50509894Y-103079849D01*
X50453289Y-103291105D01*
X50453287Y-103291115D01*
X50434225Y-103508999D01*
X50434225Y-103509000D01*
X50453287Y-103726884D01*
X50453289Y-103726894D01*
X50509894Y-103938150D01*
X50509898Y-103938159D01*
X50602333Y-104136387D01*
X50645874Y-104198571D01*
X51250944Y-103593501D01*
X51274326Y-103680764D01*
X51332911Y-103782236D01*
X51415764Y-103865089D01*
X51517236Y-103923674D01*
X51604497Y-103947055D01*
X50999427Y-104552124D01*
X51061612Y-104595666D01*
X51259840Y-104688101D01*
X51259849Y-104688105D01*
X51471105Y-104744710D01*
X51471115Y-104744712D01*
X51688999Y-104763775D01*
X51689001Y-104763775D01*
X51906884Y-104744712D01*
X51906894Y-104744710D01*
X52118150Y-104688105D01*
X52118164Y-104688100D01*
X52316383Y-104595669D01*
X52316385Y-104595668D01*
X52378571Y-104552124D01*
X51773503Y-103947055D01*
X51860764Y-103923674D01*
X51962236Y-103865089D01*
X52045089Y-103782236D01*
X52103674Y-103680764D01*
X52127055Y-103593502D01*
X52732124Y-104198570D01*
X52775668Y-104136385D01*
X52775669Y-104136383D01*
X52868100Y-103938164D01*
X52868105Y-103938150D01*
X52924710Y-103726894D01*
X52924712Y-103726884D01*
X52943775Y-103509000D01*
X52943775Y-103508999D01*
X52924712Y-103291115D01*
X52924710Y-103291105D01*
X52868105Y-103079849D01*
X52868101Y-103079840D01*
X52775667Y-102881614D01*
X52775666Y-102881612D01*
X52732124Y-102819428D01*
X52732124Y-102819427D01*
X52127055Y-103424496D01*
X52103674Y-103337236D01*
X52045089Y-103235764D01*
X51962236Y-103152911D01*
X51860764Y-103094326D01*
X51773502Y-103070944D01*
X52378571Y-102465874D01*
X52378571Y-102465870D01*
X52334954Y-102411303D01*
X52327762Y-102341804D01*
X52359284Y-102279449D01*
X52378572Y-102262735D01*
X52495877Y-102180598D01*
X52650598Y-102025877D01*
X52776102Y-101846639D01*
X52868575Y-101648330D01*
X52925207Y-101436977D01*
X52944277Y-101219000D01*
X52925207Y-101001023D01*
X52868575Y-100789670D01*
X52776102Y-100591362D01*
X52776100Y-100591359D01*
X52776099Y-100591357D01*
X52650599Y-100412124D01*
X52581883Y-100343408D01*
X52495877Y-100257402D01*
X52316639Y-100131898D01*
X52316640Y-100131898D01*
X52316638Y-100131897D01*
X52193381Y-100074422D01*
X52118330Y-100039425D01*
X52118326Y-100039424D01*
X52118322Y-100039422D01*
X51906977Y-99982793D01*
X51689002Y-99963723D01*
X51688998Y-99963723D01*
X51584149Y-99972896D01*
X51471023Y-99982793D01*
X51471020Y-99982793D01*
X51259677Y-100039422D01*
X51259668Y-100039426D01*
X51061361Y-100131898D01*
X51061357Y-100131900D01*
X50882121Y-100257402D01*
X50727402Y-100412121D01*
X50601900Y-100591357D01*
X50601898Y-100591361D01*
X50509426Y-100789668D01*
X50509422Y-100789677D01*
X50452793Y-101001020D01*
X50452793Y-101001024D01*
X50433723Y-101218997D01*
X50433723Y-101219002D01*
X49876500Y-101219002D01*
X49876500Y-101204356D01*
X49876500Y-100645280D01*
X49876500Y-100515280D01*
X49876500Y-100509930D01*
X49876475Y-100509676D01*
X49876473Y-100509670D01*
X49876474Y-100509667D01*
X49861236Y-100433010D01*
X49867473Y-100363421D01*
X49910343Y-100308250D01*
X49976236Y-100285014D01*
X49982857Y-100284837D01*
X50100378Y-100284837D01*
X50100743Y-100284801D01*
X50100743Y-100284800D01*
X50100744Y-100284801D01*
X50266977Y-100251739D01*
X50423566Y-100186884D01*
X50564495Y-100092728D01*
X50684350Y-99972891D01*
X50778526Y-99831974D01*
X50843403Y-99675394D01*
X50876489Y-99509167D01*
X50876489Y-99509161D01*
X50876500Y-99509052D01*
X50876500Y-99424252D01*
X50876504Y-99395812D01*
X50876510Y-99351509D01*
X50876509Y-99351505D01*
X50876510Y-99344189D01*
X50876500Y-99344005D01*
X50876500Y-99209930D01*
X50876475Y-99209676D01*
X50876473Y-99209670D01*
X50876474Y-99209667D01*
X50843425Y-99043408D01*
X50778572Y-98886793D01*
X50684409Y-98745841D01*
X50564555Y-98625969D01*
X50540042Y-98609588D01*
X50423617Y-98531786D01*
X50423613Y-98531784D01*
X50267014Y-98466912D01*
X50267010Y-98466911D01*
X50100754Y-98433837D01*
X50095060Y-98433837D01*
X50095057Y-98433837D01*
X50000500Y-98433837D01*
X49933461Y-98414152D01*
X49887706Y-98361348D01*
X49876500Y-98309837D01*
X49876500Y-95254002D01*
X50433723Y-95254002D01*
X50452793Y-95471975D01*
X50452793Y-95471979D01*
X50509422Y-95683322D01*
X50509424Y-95683326D01*
X50509425Y-95683330D01*
X50550946Y-95772372D01*
X50601897Y-95881638D01*
X50601898Y-95881639D01*
X50727402Y-96060877D01*
X50882123Y-96215598D01*
X51061361Y-96341102D01*
X51259670Y-96433575D01*
X51471023Y-96490207D01*
X51653926Y-96506208D01*
X51688998Y-96509277D01*
X51689000Y-96509277D01*
X51689002Y-96509277D01*
X51717254Y-96506805D01*
X51906977Y-96490207D01*
X52118330Y-96433575D01*
X52316639Y-96341102D01*
X52495877Y-96215598D01*
X52650598Y-96060877D01*
X52776102Y-95881639D01*
X52868575Y-95683330D01*
X52925207Y-95471977D01*
X52944277Y-95254000D01*
X52925207Y-95036023D01*
X52868575Y-94824670D01*
X52776102Y-94626362D01*
X52776100Y-94626359D01*
X52776099Y-94626357D01*
X52650599Y-94447124D01*
X52580795Y-94377320D01*
X52495877Y-94292402D01*
X52379013Y-94210573D01*
X52335390Y-94155998D01*
X52328198Y-94086499D01*
X52359720Y-94024145D01*
X52379010Y-94007429D01*
X52495877Y-93925598D01*
X52650598Y-93770877D01*
X52776102Y-93591639D01*
X52868575Y-93393330D01*
X52925207Y-93181977D01*
X52944277Y-92964000D01*
X52925207Y-92746023D01*
X52873889Y-92554501D01*
X52868577Y-92534677D01*
X52868576Y-92534676D01*
X52868575Y-92534670D01*
X52776102Y-92336362D01*
X52776100Y-92336359D01*
X52776099Y-92336357D01*
X52650599Y-92157124D01*
X52594803Y-92101328D01*
X52495877Y-92002402D01*
X52334731Y-91889566D01*
X52316638Y-91876897D01*
X52217484Y-91830661D01*
X52118330Y-91784425D01*
X52118326Y-91784424D01*
X52118322Y-91784422D01*
X51906977Y-91727793D01*
X51689002Y-91708723D01*
X51688998Y-91708723D01*
X51543682Y-91721436D01*
X51471023Y-91727793D01*
X51471020Y-91727793D01*
X51259677Y-91784422D01*
X51259668Y-91784426D01*
X51061361Y-91876898D01*
X51061357Y-91876900D01*
X50882121Y-92002402D01*
X50727402Y-92157121D01*
X50601900Y-92336357D01*
X50601898Y-92336361D01*
X50509426Y-92534668D01*
X50509422Y-92534677D01*
X50452793Y-92746020D01*
X50452793Y-92746024D01*
X50433723Y-92963997D01*
X50433723Y-92964002D01*
X50452793Y-93181975D01*
X50452793Y-93181979D01*
X50509422Y-93393322D01*
X50509424Y-93393326D01*
X50509425Y-93393330D01*
X50555661Y-93492484D01*
X50601897Y-93591638D01*
X50601898Y-93591639D01*
X50727402Y-93770877D01*
X50727406Y-93770881D01*
X50882122Y-93925597D01*
X50998984Y-94007426D01*
X51042609Y-94062003D01*
X51049801Y-94131501D01*
X51018278Y-94193856D01*
X50998984Y-94210575D01*
X50882118Y-94292405D01*
X50727402Y-94447121D01*
X50601900Y-94626357D01*
X50601898Y-94626361D01*
X50509426Y-94824668D01*
X50509422Y-94824677D01*
X50452793Y-95036020D01*
X50452793Y-95036024D01*
X50433723Y-95253997D01*
X50433723Y-95254002D01*
X49876500Y-95254002D01*
X49876500Y-90259059D01*
X49876501Y-90259046D01*
X49876501Y-90090945D01*
X49876501Y-90090943D01*
X49835577Y-89938215D01*
X49785164Y-89850898D01*
X49756520Y-89801284D01*
X49644716Y-89689480D01*
X49644715Y-89689479D01*
X49640385Y-89685149D01*
X49640374Y-89685139D01*
X48499590Y-88544355D01*
X48499588Y-88544352D01*
X48380717Y-88425481D01*
X48380716Y-88425480D01*
X48293904Y-88375360D01*
X48293904Y-88375359D01*
X48293900Y-88375358D01*
X48243785Y-88346423D01*
X48091057Y-88305499D01*
X48091054Y-88305499D01*
X48039653Y-88305499D01*
X47972614Y-88285814D01*
X47938080Y-88252624D01*
X47830598Y-88099123D01*
X47830596Y-88099120D01*
X47709156Y-87977680D01*
X47675671Y-87916357D01*
X47680655Y-87846665D01*
X47709152Y-87802322D01*
X47830598Y-87680877D01*
X47956102Y-87501639D01*
X48048575Y-87303330D01*
X48105207Y-87091977D01*
X48124277Y-86874000D01*
X48123620Y-86866494D01*
X48120569Y-86831618D01*
X48105207Y-86656023D01*
X48059552Y-86485638D01*
X48048577Y-86444677D01*
X48048576Y-86444676D01*
X48048575Y-86444670D01*
X47956102Y-86246362D01*
X47956100Y-86246359D01*
X47956099Y-86246357D01*
X47830597Y-86067121D01*
X47709156Y-85945680D01*
X47675671Y-85884357D01*
X47680655Y-85814665D01*
X47709152Y-85770322D01*
X47830598Y-85648877D01*
X47938081Y-85495374D01*
X47992657Y-85451751D01*
X48039655Y-85442500D01*
X48346903Y-85442500D01*
X48413942Y-85462185D01*
X48434583Y-85478818D01*
X50304284Y-87348520D01*
X50304286Y-87348521D01*
X50304290Y-87348524D01*
X50441209Y-87427573D01*
X50441216Y-87427577D01*
X50593943Y-87468501D01*
X50593945Y-87468501D01*
X50759654Y-87468501D01*
X50759670Y-87468500D01*
X55412331Y-87468500D01*
X55412347Y-87468501D01*
X55419943Y-87468501D01*
X55578054Y-87468501D01*
X55578057Y-87468501D01*
X55730785Y-87427577D01*
X55780904Y-87398639D01*
X55867716Y-87348520D01*
X55979520Y-87236716D01*
X55979520Y-87236714D01*
X55989728Y-87226507D01*
X55989729Y-87226504D01*
X60506520Y-82709716D01*
X60585577Y-82572785D01*
X60626501Y-82420057D01*
X60626501Y-82261942D01*
X60626501Y-82254347D01*
X60626500Y-82254329D01*
X60626500Y-82169000D01*
X71255706Y-82169000D01*
X71274853Y-82412297D01*
X71274853Y-82412300D01*
X71274854Y-82412302D01*
X71331477Y-82648152D01*
X71331830Y-82649619D01*
X71425222Y-82875089D01*
X71552737Y-83083173D01*
X71552738Y-83083176D01*
X71616232Y-83157518D01*
X71711241Y-83268759D01*
X71767032Y-83316409D01*
X71805224Y-83374914D01*
X71810500Y-83410698D01*
X71810500Y-85590955D01*
X71808117Y-85615147D01*
X71770500Y-85804257D01*
X71770500Y-86001344D01*
X71808947Y-86194628D01*
X71808949Y-86194636D01*
X71884367Y-86376710D01*
X71884372Y-86376720D01*
X71993860Y-86540580D01*
X71993863Y-86540584D01*
X76417681Y-90964401D01*
X76451166Y-91025724D01*
X76454000Y-91052082D01*
X76454000Y-107569000D01*
X83185000Y-107569000D01*
X83185000Y-98031082D01*
X83204685Y-97964043D01*
X83257489Y-97918288D01*
X83326647Y-97908344D01*
X83390203Y-97937369D01*
X83396679Y-97943399D01*
X84922460Y-99469181D01*
X84922461Y-99469182D01*
X84993459Y-99540180D01*
X85061819Y-99608540D01*
X85188817Y-99693397D01*
X85225686Y-99718032D01*
X85332345Y-99762211D01*
X85407764Y-99793451D01*
X85601054Y-99831899D01*
X85601057Y-99831900D01*
X85601059Y-99831900D01*
X121301818Y-99831900D01*
X121368857Y-99851585D01*
X121389499Y-99868219D01*
X128513341Y-106992061D01*
X128546826Y-107053384D01*
X128549660Y-107079742D01*
X128549660Y-110133163D01*
X128536144Y-110189459D01*
X128530288Y-110200950D01*
X128476757Y-110365702D01*
X128456861Y-110491324D01*
X128449660Y-110536789D01*
X128449660Y-111510011D01*
X128476758Y-111681101D01*
X128478806Y-111687403D01*
X128529077Y-111842123D01*
X128530287Y-111845845D01*
X128536143Y-111857339D01*
X128549660Y-111913635D01*
X128549660Y-115107081D01*
X128529975Y-115174120D01*
X128513341Y-115194762D01*
X128501505Y-115206597D01*
X128371575Y-115392158D01*
X128316998Y-115435783D01*
X128247500Y-115442977D01*
X128185145Y-115411454D01*
X128168425Y-115392158D01*
X128038494Y-115206597D01*
X127871402Y-115039506D01*
X127871401Y-115039505D01*
X127727864Y-114938999D01*
X127688536Y-114911461D01*
X127644911Y-114856884D01*
X127635660Y-114809886D01*
X127635660Y-112392421D01*
X127655345Y-112325382D01*
X127686776Y-112292102D01*
X127727084Y-112262817D01*
X127727084Y-112262816D01*
X127727088Y-112262814D01*
X127849574Y-112140328D01*
X127951392Y-112000188D01*
X128030033Y-111845845D01*
X128083562Y-111681101D01*
X128110660Y-111510011D01*
X128110660Y-110536789D01*
X128083562Y-110365699D01*
X128030033Y-110200955D01*
X127951392Y-110046612D01*
X127849574Y-109906472D01*
X127727088Y-109783986D01*
X127586948Y-109682168D01*
X127432605Y-109603527D01*
X127267861Y-109549998D01*
X127267859Y-109549997D01*
X127267858Y-109549997D01*
X127136431Y-109529181D01*
X127096771Y-109522900D01*
X126923549Y-109522900D01*
X126883888Y-109529181D01*
X126752462Y-109549997D01*
X126587712Y-109603528D01*
X126433371Y-109682168D01*
X126353416Y-109740259D01*
X126293232Y-109783986D01*
X126293230Y-109783988D01*
X126293229Y-109783988D01*
X126170748Y-109906469D01*
X126170748Y-109906470D01*
X126170746Y-109906472D01*
X126170510Y-109906797D01*
X126068928Y-110046611D01*
X125990288Y-110200952D01*
X125936757Y-110365702D01*
X125916861Y-110491324D01*
X125909660Y-110536789D01*
X125909660Y-111510011D01*
X125936758Y-111681101D01*
X125990287Y-111845845D01*
X126068928Y-112000188D01*
X126170746Y-112140328D01*
X126170748Y-112140330D01*
X126293235Y-112262817D01*
X126333544Y-112292102D01*
X126376210Y-112347431D01*
X126384660Y-112392421D01*
X126384660Y-114796295D01*
X126364975Y-114863334D01*
X126326211Y-114900298D01*
X126326605Y-114900860D01*
X126322906Y-114903449D01*
X126322667Y-114903678D01*
X126322173Y-114903963D01*
X126128597Y-115039505D01*
X125961505Y-115206597D01*
X125831575Y-115392158D01*
X125776998Y-115435783D01*
X125707500Y-115442977D01*
X125645145Y-115411454D01*
X125628425Y-115392158D01*
X125498494Y-115206597D01*
X125331402Y-115039506D01*
X125331401Y-115039505D01*
X125187864Y-114938999D01*
X125148536Y-114911461D01*
X125104911Y-114856884D01*
X125095660Y-114809886D01*
X125095660Y-112392421D01*
X125115345Y-112325382D01*
X125146776Y-112292102D01*
X125187084Y-112262817D01*
X125187084Y-112262816D01*
X125187088Y-112262814D01*
X125309574Y-112140328D01*
X125411392Y-112000188D01*
X125490033Y-111845845D01*
X125543562Y-111681101D01*
X125570660Y-111510011D01*
X125570660Y-110536789D01*
X125543562Y-110365699D01*
X125490033Y-110200955D01*
X125411392Y-110046612D01*
X125309574Y-109906472D01*
X125187088Y-109783986D01*
X125046948Y-109682168D01*
X124892605Y-109603527D01*
X124727861Y-109549998D01*
X124727859Y-109549997D01*
X124727858Y-109549997D01*
X124596431Y-109529181D01*
X124556771Y-109522900D01*
X124383549Y-109522900D01*
X124343888Y-109529181D01*
X124212462Y-109549997D01*
X124047712Y-109603528D01*
X123893371Y-109682168D01*
X123813416Y-109740259D01*
X123753232Y-109783986D01*
X123753230Y-109783988D01*
X123753229Y-109783988D01*
X123630748Y-109906469D01*
X123630748Y-109906470D01*
X123630746Y-109906472D01*
X123630510Y-109906797D01*
X123528928Y-110046611D01*
X123450288Y-110200952D01*
X123396757Y-110365702D01*
X123376861Y-110491324D01*
X123369660Y-110536789D01*
X123369660Y-111510011D01*
X123396758Y-111681101D01*
X123450287Y-111845845D01*
X123528928Y-112000188D01*
X123630746Y-112140328D01*
X123630748Y-112140330D01*
X123753235Y-112262817D01*
X123793544Y-112292102D01*
X123836210Y-112347431D01*
X123844660Y-112392421D01*
X123844660Y-114796295D01*
X123824975Y-114863334D01*
X123786211Y-114900298D01*
X123786605Y-114900860D01*
X123782906Y-114903449D01*
X123782667Y-114903678D01*
X123782173Y-114903963D01*
X123588597Y-115039505D01*
X123421505Y-115206597D01*
X123291575Y-115392158D01*
X123236998Y-115435783D01*
X123167500Y-115442977D01*
X123105145Y-115411454D01*
X123088425Y-115392158D01*
X122958494Y-115206597D01*
X122791402Y-115039506D01*
X122791401Y-115039505D01*
X122647864Y-114938999D01*
X122608536Y-114911461D01*
X122564911Y-114856884D01*
X122555660Y-114809886D01*
X122555660Y-112392421D01*
X122575345Y-112325382D01*
X122606776Y-112292102D01*
X122647084Y-112262817D01*
X122647084Y-112262816D01*
X122647088Y-112262814D01*
X122769574Y-112140328D01*
X122871392Y-112000188D01*
X122950033Y-111845845D01*
X123003562Y-111681101D01*
X123030660Y-111510011D01*
X123030660Y-110536789D01*
X123003562Y-110365699D01*
X122950033Y-110200955D01*
X122871392Y-110046612D01*
X122769574Y-109906472D01*
X122647088Y-109783986D01*
X122506948Y-109682168D01*
X122352605Y-109603527D01*
X122187861Y-109549998D01*
X122187859Y-109549997D01*
X122187858Y-109549997D01*
X122056431Y-109529181D01*
X122016771Y-109522900D01*
X121843549Y-109522900D01*
X121803888Y-109529181D01*
X121672462Y-109549997D01*
X121507712Y-109603528D01*
X121353371Y-109682168D01*
X121273416Y-109740259D01*
X121213232Y-109783986D01*
X121213230Y-109783988D01*
X121213229Y-109783988D01*
X121090748Y-109906469D01*
X121090748Y-109906470D01*
X121090746Y-109906472D01*
X121090510Y-109906797D01*
X120988928Y-110046611D01*
X120910288Y-110200952D01*
X120856757Y-110365702D01*
X120836861Y-110491324D01*
X120829660Y-110536789D01*
X120829660Y-111510011D01*
X120856758Y-111681101D01*
X120910287Y-111845845D01*
X120988928Y-112000188D01*
X121090746Y-112140328D01*
X121090748Y-112140330D01*
X121213235Y-112262817D01*
X121253544Y-112292102D01*
X121296210Y-112347431D01*
X121304660Y-112392421D01*
X121304660Y-114796295D01*
X121284975Y-114863334D01*
X121246211Y-114900298D01*
X121246605Y-114900860D01*
X121242906Y-114903449D01*
X121242667Y-114903678D01*
X121242173Y-114903963D01*
X121048597Y-115039505D01*
X120881505Y-115206597D01*
X120751575Y-115392158D01*
X120696998Y-115435783D01*
X120627500Y-115442977D01*
X120565145Y-115411454D01*
X120548425Y-115392158D01*
X120418494Y-115206597D01*
X120251402Y-115039506D01*
X120251401Y-115039505D01*
X120107864Y-114938999D01*
X120068536Y-114911461D01*
X120024911Y-114856884D01*
X120015660Y-114809886D01*
X120015660Y-112392421D01*
X120035345Y-112325382D01*
X120066776Y-112292102D01*
X120107084Y-112262817D01*
X120107084Y-112262816D01*
X120107088Y-112262814D01*
X120229574Y-112140328D01*
X120331392Y-112000188D01*
X120410033Y-111845845D01*
X120463562Y-111681101D01*
X120490660Y-111510011D01*
X120490660Y-110536789D01*
X120463562Y-110365699D01*
X120410033Y-110200955D01*
X120331392Y-110046612D01*
X120229574Y-109906472D01*
X120107088Y-109783986D01*
X119966948Y-109682168D01*
X119812605Y-109603527D01*
X119647861Y-109549998D01*
X119647859Y-109549997D01*
X119647858Y-109549997D01*
X119516431Y-109529181D01*
X119476771Y-109522900D01*
X119303549Y-109522900D01*
X119263888Y-109529181D01*
X119132462Y-109549997D01*
X118967712Y-109603528D01*
X118813371Y-109682168D01*
X118733416Y-109740259D01*
X118673232Y-109783986D01*
X118673230Y-109783988D01*
X118673229Y-109783988D01*
X118550748Y-109906469D01*
X118550748Y-109906470D01*
X118550746Y-109906472D01*
X118550510Y-109906797D01*
X118448928Y-110046611D01*
X118370288Y-110200952D01*
X118316757Y-110365702D01*
X118296861Y-110491324D01*
X118289660Y-110536789D01*
X118289660Y-111510011D01*
X118316758Y-111681101D01*
X118370287Y-111845845D01*
X118448928Y-112000188D01*
X118550746Y-112140328D01*
X118550748Y-112140330D01*
X118673235Y-112262817D01*
X118713544Y-112292102D01*
X118756210Y-112347431D01*
X118764660Y-112392421D01*
X118764660Y-114796295D01*
X118744975Y-114863334D01*
X118706211Y-114900298D01*
X118706605Y-114900860D01*
X118702906Y-114903449D01*
X118702667Y-114903678D01*
X118702173Y-114903963D01*
X118508597Y-115039505D01*
X118341508Y-115206594D01*
X118211269Y-115392595D01*
X118156692Y-115436219D01*
X118087193Y-115443412D01*
X118024839Y-115411890D01*
X118008119Y-115392594D01*
X117878113Y-115206926D01*
X117878108Y-115206920D01*
X117711082Y-115039894D01*
X117517578Y-114904399D01*
X117303492Y-114804570D01*
X117303486Y-114804567D01*
X117090000Y-114747364D01*
X117090000Y-115644988D01*
X117032993Y-115612075D01*
X116905826Y-115578000D01*
X116774174Y-115578000D01*
X116647007Y-115612075D01*
X116590000Y-115644988D01*
X116590000Y-114747364D01*
X116589999Y-114747364D01*
X116376513Y-114804567D01*
X116376507Y-114804570D01*
X116162422Y-114904399D01*
X116162420Y-114904400D01*
X115968926Y-115039886D01*
X115968920Y-115039891D01*
X115801891Y-115206920D01*
X115801890Y-115206922D01*
X115671880Y-115392595D01*
X115617303Y-115436219D01*
X115547804Y-115443412D01*
X115485450Y-115411890D01*
X115468730Y-115392594D01*
X115338494Y-115206597D01*
X115171402Y-115039506D01*
X115171401Y-115039505D01*
X115027864Y-114938999D01*
X114988536Y-114911461D01*
X114944911Y-114856884D01*
X114935660Y-114809886D01*
X114935660Y-112392421D01*
X114955345Y-112325382D01*
X114986776Y-112292102D01*
X115027084Y-112262817D01*
X115027084Y-112262816D01*
X115027088Y-112262814D01*
X115149574Y-112140328D01*
X115251392Y-112000188D01*
X115330033Y-111845845D01*
X115383562Y-111681101D01*
X115410660Y-111510011D01*
X115410660Y-111509971D01*
X115750160Y-111509971D01*
X115777245Y-111680984D01*
X115830751Y-111845657D01*
X115909355Y-111999924D01*
X116011127Y-112140002D01*
X116133557Y-112262432D01*
X116273635Y-112364204D01*
X116427904Y-112442808D01*
X116592575Y-112496314D01*
X116592574Y-112496314D01*
X116600159Y-112497515D01*
X116600160Y-112497514D01*
X116600160Y-111339086D01*
X116604554Y-111343480D01*
X116695766Y-111396141D01*
X116797499Y-111423400D01*
X116902821Y-111423400D01*
X117004554Y-111396141D01*
X117095766Y-111343480D01*
X117100160Y-111339086D01*
X117100160Y-112497515D01*
X117107744Y-112496314D01*
X117272415Y-112442808D01*
X117426684Y-112364204D01*
X117566762Y-112262432D01*
X117689192Y-112140002D01*
X117790964Y-111999924D01*
X117869568Y-111845657D01*
X117923074Y-111680984D01*
X117950160Y-111509971D01*
X117950160Y-111273400D01*
X117165846Y-111273400D01*
X117170240Y-111269006D01*
X117222901Y-111177794D01*
X117250160Y-111076061D01*
X117250160Y-110970739D01*
X117222901Y-110869006D01*
X117170240Y-110777794D01*
X117165846Y-110773400D01*
X117950160Y-110773400D01*
X117950160Y-110536828D01*
X117923074Y-110365815D01*
X117869568Y-110201142D01*
X117790964Y-110046875D01*
X117689192Y-109906797D01*
X117566762Y-109784367D01*
X117426684Y-109682595D01*
X117272417Y-109603991D01*
X117107749Y-109550487D01*
X117107741Y-109550485D01*
X117100160Y-109549284D01*
X117100160Y-110707714D01*
X117095766Y-110703320D01*
X117004554Y-110650659D01*
X116902821Y-110623400D01*
X116797499Y-110623400D01*
X116695766Y-110650659D01*
X116604554Y-110703320D01*
X116600160Y-110707714D01*
X116600160Y-109549284D01*
X116600159Y-109549284D01*
X116592578Y-109550485D01*
X116592570Y-109550487D01*
X116427902Y-109603991D01*
X116273635Y-109682595D01*
X116133557Y-109784367D01*
X116011127Y-109906797D01*
X115909355Y-110046875D01*
X115830751Y-110201142D01*
X115777245Y-110365815D01*
X115750160Y-110536828D01*
X115750160Y-110773400D01*
X116534474Y-110773400D01*
X116530080Y-110777794D01*
X116477419Y-110869006D01*
X116450160Y-110970739D01*
X116450160Y-111076061D01*
X116477419Y-111177794D01*
X116530080Y-111269006D01*
X116534474Y-111273400D01*
X115750160Y-111273400D01*
X115750160Y-111509971D01*
X115410660Y-111509971D01*
X115410660Y-110536789D01*
X115383562Y-110365699D01*
X115330033Y-110200955D01*
X115251392Y-110046612D01*
X115149574Y-109906472D01*
X115027088Y-109783986D01*
X114886948Y-109682168D01*
X114732605Y-109603527D01*
X114567861Y-109549998D01*
X114567859Y-109549997D01*
X114567858Y-109549997D01*
X114436431Y-109529181D01*
X114396771Y-109522900D01*
X114223549Y-109522900D01*
X114183888Y-109529181D01*
X114052462Y-109549997D01*
X113887712Y-109603528D01*
X113733371Y-109682168D01*
X113653416Y-109740259D01*
X113593232Y-109783986D01*
X113593230Y-109783988D01*
X113593229Y-109783988D01*
X113470748Y-109906469D01*
X113470748Y-109906470D01*
X113470746Y-109906472D01*
X113470510Y-109906797D01*
X113368928Y-110046611D01*
X113290288Y-110200952D01*
X113236757Y-110365702D01*
X113216861Y-110491324D01*
X113209660Y-110536789D01*
X113209660Y-111510011D01*
X113236758Y-111681101D01*
X113290287Y-111845845D01*
X113368928Y-112000188D01*
X113470746Y-112140328D01*
X113470748Y-112140330D01*
X113593235Y-112262817D01*
X113633544Y-112292102D01*
X113676210Y-112347431D01*
X113684660Y-112392421D01*
X113684660Y-114796295D01*
X113664975Y-114863334D01*
X113626211Y-114900298D01*
X113626605Y-114900860D01*
X113622906Y-114903449D01*
X113622667Y-114903678D01*
X113622173Y-114903963D01*
X113428597Y-115039505D01*
X113261505Y-115206597D01*
X113131575Y-115392158D01*
X113076998Y-115435783D01*
X113007500Y-115442977D01*
X112945145Y-115411454D01*
X112928425Y-115392158D01*
X112798494Y-115206597D01*
X112631402Y-115039506D01*
X112631401Y-115039505D01*
X112487864Y-114938999D01*
X112448536Y-114911461D01*
X112404911Y-114856884D01*
X112395660Y-114809886D01*
X112395660Y-112392421D01*
X112415345Y-112325382D01*
X112446776Y-112292102D01*
X112487084Y-112262817D01*
X112487084Y-112262816D01*
X112487088Y-112262814D01*
X112609574Y-112140328D01*
X112711392Y-112000188D01*
X112790033Y-111845845D01*
X112843562Y-111681101D01*
X112870660Y-111510011D01*
X112870660Y-110536789D01*
X112843562Y-110365699D01*
X112790033Y-110200955D01*
X112711392Y-110046612D01*
X112609574Y-109906472D01*
X112487088Y-109783986D01*
X112346948Y-109682168D01*
X112192605Y-109603527D01*
X112027861Y-109549998D01*
X112027859Y-109549997D01*
X112027858Y-109549997D01*
X111896431Y-109529181D01*
X111856771Y-109522900D01*
X111683549Y-109522900D01*
X111643888Y-109529181D01*
X111512462Y-109549997D01*
X111347712Y-109603528D01*
X111193371Y-109682168D01*
X111113416Y-109740259D01*
X111053232Y-109783986D01*
X111053230Y-109783988D01*
X111053229Y-109783988D01*
X110930748Y-109906469D01*
X110930748Y-109906470D01*
X110930746Y-109906472D01*
X110930510Y-109906797D01*
X110828928Y-110046611D01*
X110750288Y-110200952D01*
X110696757Y-110365702D01*
X110676861Y-110491324D01*
X110669660Y-110536789D01*
X110669660Y-111510011D01*
X110696758Y-111681101D01*
X110750287Y-111845845D01*
X110828928Y-112000188D01*
X110930746Y-112140328D01*
X110930748Y-112140330D01*
X111053235Y-112262817D01*
X111093544Y-112292102D01*
X111136210Y-112347431D01*
X111144660Y-112392421D01*
X111144660Y-114796295D01*
X111124975Y-114863334D01*
X111086211Y-114900298D01*
X111086605Y-114900860D01*
X111082906Y-114903449D01*
X111082667Y-114903678D01*
X111082173Y-114903963D01*
X110888597Y-115039505D01*
X110721505Y-115206597D01*
X110591575Y-115392158D01*
X110536998Y-115435783D01*
X110467500Y-115442977D01*
X110405145Y-115411454D01*
X110388425Y-115392158D01*
X110258494Y-115206597D01*
X110091402Y-115039506D01*
X110091401Y-115039505D01*
X109947864Y-114938999D01*
X109908536Y-114911461D01*
X109864911Y-114856884D01*
X109855660Y-114809886D01*
X109855660Y-112392421D01*
X109875345Y-112325382D01*
X109906776Y-112292102D01*
X109947084Y-112262817D01*
X109947084Y-112262816D01*
X109947088Y-112262814D01*
X110069574Y-112140328D01*
X110171392Y-112000188D01*
X110250033Y-111845845D01*
X110303562Y-111681101D01*
X110330660Y-111510011D01*
X110330660Y-110536789D01*
X110303562Y-110365699D01*
X110250033Y-110200955D01*
X110171392Y-110046612D01*
X110069574Y-109906472D01*
X109947088Y-109783986D01*
X109806948Y-109682168D01*
X109652605Y-109603527D01*
X109487861Y-109549998D01*
X109487859Y-109549997D01*
X109487858Y-109549997D01*
X109356431Y-109529181D01*
X109316771Y-109522900D01*
X109143549Y-109522900D01*
X109103888Y-109529181D01*
X108972462Y-109549997D01*
X108807712Y-109603528D01*
X108653371Y-109682168D01*
X108573416Y-109740259D01*
X108513232Y-109783986D01*
X108513230Y-109783988D01*
X108513229Y-109783988D01*
X108390748Y-109906469D01*
X108390748Y-109906470D01*
X108390746Y-109906472D01*
X108390510Y-109906797D01*
X108288928Y-110046611D01*
X108210288Y-110200952D01*
X108156757Y-110365702D01*
X108136861Y-110491324D01*
X108129660Y-110536789D01*
X108129660Y-111510011D01*
X108156758Y-111681101D01*
X108210287Y-111845845D01*
X108288928Y-112000188D01*
X108390746Y-112140328D01*
X108390748Y-112140330D01*
X108513235Y-112262817D01*
X108553544Y-112292102D01*
X108596210Y-112347431D01*
X108604660Y-112392421D01*
X108604660Y-114796295D01*
X108584975Y-114863334D01*
X108546211Y-114900298D01*
X108546605Y-114900860D01*
X108542906Y-114903449D01*
X108542667Y-114903678D01*
X108542173Y-114903963D01*
X108348597Y-115039505D01*
X108181505Y-115206597D01*
X108051575Y-115392158D01*
X107996998Y-115435783D01*
X107927500Y-115442977D01*
X107865145Y-115411454D01*
X107848425Y-115392158D01*
X107718494Y-115206597D01*
X107551402Y-115039506D01*
X107551401Y-115039505D01*
X107407864Y-114938999D01*
X107368536Y-114911461D01*
X107324911Y-114856884D01*
X107315660Y-114809886D01*
X107315660Y-112392421D01*
X107335345Y-112325382D01*
X107366776Y-112292102D01*
X107407084Y-112262817D01*
X107407084Y-112262816D01*
X107407088Y-112262814D01*
X107529574Y-112140328D01*
X107631392Y-112000188D01*
X107710033Y-111845845D01*
X107763562Y-111681101D01*
X107790660Y-111510011D01*
X107790660Y-110536789D01*
X107763562Y-110365699D01*
X107710033Y-110200955D01*
X107631392Y-110046612D01*
X107529574Y-109906472D01*
X107407088Y-109783986D01*
X107266948Y-109682168D01*
X107112605Y-109603527D01*
X106947861Y-109549998D01*
X106947859Y-109549997D01*
X106947858Y-109549997D01*
X106816431Y-109529181D01*
X106776771Y-109522900D01*
X106603549Y-109522900D01*
X106563888Y-109529181D01*
X106432462Y-109549997D01*
X106267712Y-109603528D01*
X106113371Y-109682168D01*
X106033416Y-109740259D01*
X105973232Y-109783986D01*
X105973230Y-109783988D01*
X105973229Y-109783988D01*
X105850748Y-109906469D01*
X105850748Y-109906470D01*
X105850746Y-109906472D01*
X105850510Y-109906797D01*
X105748928Y-110046611D01*
X105670288Y-110200952D01*
X105616757Y-110365702D01*
X105596861Y-110491324D01*
X105589660Y-110536789D01*
X105589660Y-111510011D01*
X105616758Y-111681101D01*
X105670287Y-111845845D01*
X105748928Y-112000188D01*
X105850746Y-112140328D01*
X105850748Y-112140330D01*
X105973235Y-112262817D01*
X106013544Y-112292102D01*
X106056210Y-112347431D01*
X106064660Y-112392421D01*
X106064660Y-114796295D01*
X106044975Y-114863334D01*
X106006211Y-114900298D01*
X106006605Y-114900860D01*
X106002906Y-114903449D01*
X106002667Y-114903678D01*
X106002173Y-114903963D01*
X105808597Y-115039505D01*
X105641505Y-115206597D01*
X105511575Y-115392158D01*
X105456998Y-115435783D01*
X105387500Y-115442977D01*
X105325145Y-115411454D01*
X105308425Y-115392158D01*
X105178494Y-115206597D01*
X105011402Y-115039506D01*
X105011401Y-115039505D01*
X104867864Y-114938999D01*
X104828536Y-114911461D01*
X104784911Y-114856884D01*
X104775660Y-114809886D01*
X104775660Y-112392421D01*
X104795345Y-112325382D01*
X104826776Y-112292102D01*
X104867084Y-112262817D01*
X104867084Y-112262816D01*
X104867088Y-112262814D01*
X104989574Y-112140328D01*
X105091392Y-112000188D01*
X105170033Y-111845845D01*
X105223562Y-111681101D01*
X105250660Y-111510011D01*
X105250660Y-110536789D01*
X105223562Y-110365699D01*
X105170033Y-110200955D01*
X105091392Y-110046612D01*
X104989574Y-109906472D01*
X104867088Y-109783986D01*
X104726948Y-109682168D01*
X104572605Y-109603527D01*
X104407861Y-109549998D01*
X104407859Y-109549997D01*
X104407858Y-109549997D01*
X104276431Y-109529181D01*
X104236771Y-109522900D01*
X104063549Y-109522900D01*
X104023888Y-109529181D01*
X103892462Y-109549997D01*
X103727712Y-109603528D01*
X103573371Y-109682168D01*
X103493416Y-109740259D01*
X103433232Y-109783986D01*
X103433230Y-109783988D01*
X103433229Y-109783988D01*
X103310748Y-109906469D01*
X103310748Y-109906470D01*
X103310746Y-109906472D01*
X103310510Y-109906797D01*
X103208928Y-110046611D01*
X103130288Y-110200952D01*
X103076757Y-110365702D01*
X103056861Y-110491324D01*
X103049660Y-110536789D01*
X103049660Y-111510011D01*
X103076758Y-111681101D01*
X103130287Y-111845845D01*
X103208928Y-112000188D01*
X103310746Y-112140328D01*
X103310748Y-112140330D01*
X103433235Y-112262817D01*
X103473544Y-112292102D01*
X103516210Y-112347431D01*
X103524660Y-112392421D01*
X103524660Y-114796295D01*
X103504975Y-114863334D01*
X103466211Y-114900298D01*
X103466605Y-114900860D01*
X103462906Y-114903449D01*
X103462667Y-114903678D01*
X103462173Y-114903963D01*
X103268597Y-115039505D01*
X103101505Y-115206597D01*
X102971575Y-115392158D01*
X102916998Y-115435783D01*
X102847500Y-115442977D01*
X102785145Y-115411454D01*
X102768425Y-115392158D01*
X102638494Y-115206597D01*
X102471402Y-115039506D01*
X102471401Y-115039505D01*
X102327864Y-114938999D01*
X102288536Y-114911461D01*
X102244911Y-114856884D01*
X102235660Y-114809886D01*
X102235660Y-112392421D01*
X102255345Y-112325382D01*
X102286776Y-112292102D01*
X102327084Y-112262817D01*
X102327084Y-112262816D01*
X102327088Y-112262814D01*
X102449574Y-112140328D01*
X102551392Y-112000188D01*
X102630033Y-111845845D01*
X102683562Y-111681101D01*
X102710660Y-111510011D01*
X102710660Y-110536789D01*
X102683562Y-110365699D01*
X102630033Y-110200955D01*
X102551392Y-110046612D01*
X102449574Y-109906472D01*
X102327088Y-109783986D01*
X102186948Y-109682168D01*
X102032605Y-109603527D01*
X101867861Y-109549998D01*
X101867859Y-109549997D01*
X101867858Y-109549997D01*
X101736431Y-109529181D01*
X101696771Y-109522900D01*
X101523549Y-109522900D01*
X101483888Y-109529181D01*
X101352462Y-109549997D01*
X101187712Y-109603528D01*
X101033371Y-109682168D01*
X100953416Y-109740259D01*
X100893232Y-109783986D01*
X100893230Y-109783988D01*
X100893229Y-109783988D01*
X100770748Y-109906469D01*
X100770748Y-109906470D01*
X100770746Y-109906472D01*
X100770510Y-109906797D01*
X100668928Y-110046611D01*
X100590288Y-110200952D01*
X100536757Y-110365702D01*
X100516861Y-110491324D01*
X100509660Y-110536789D01*
X100509660Y-111510011D01*
X100536758Y-111681101D01*
X100590287Y-111845845D01*
X100668928Y-112000188D01*
X100770746Y-112140328D01*
X100770748Y-112140330D01*
X100893235Y-112262817D01*
X100933544Y-112292102D01*
X100976210Y-112347431D01*
X100984660Y-112392421D01*
X100984660Y-114796295D01*
X100964975Y-114863334D01*
X100926211Y-114900298D01*
X100926605Y-114900860D01*
X100922906Y-114903449D01*
X100922667Y-114903678D01*
X100922173Y-114903963D01*
X100728597Y-115039505D01*
X100561505Y-115206597D01*
X100431575Y-115392158D01*
X100376998Y-115435783D01*
X100307500Y-115442977D01*
X100245145Y-115411454D01*
X100228425Y-115392158D01*
X100098494Y-115206597D01*
X99931402Y-115039506D01*
X99931401Y-115039505D01*
X99787864Y-114938999D01*
X99738376Y-114904347D01*
X99694751Y-114849770D01*
X99685500Y-114802772D01*
X99685500Y-112399802D01*
X99705185Y-112332763D01*
X99736612Y-112299486D01*
X99787088Y-112262814D01*
X99909574Y-112140328D01*
X100011392Y-112000188D01*
X100090033Y-111845845D01*
X100143562Y-111681101D01*
X100170660Y-111510011D01*
X100170660Y-110536789D01*
X100143562Y-110365699D01*
X100090033Y-110200955D01*
X100011392Y-110046612D01*
X99909574Y-109906472D01*
X99787088Y-109783986D01*
X99646948Y-109682168D01*
X99492605Y-109603527D01*
X99327861Y-109549998D01*
X99327859Y-109549997D01*
X99327858Y-109549997D01*
X99196431Y-109529181D01*
X99156771Y-109522900D01*
X98983549Y-109522900D01*
X98943888Y-109529181D01*
X98812462Y-109549997D01*
X98647712Y-109603528D01*
X98493371Y-109682168D01*
X98413416Y-109740259D01*
X98353232Y-109783986D01*
X98353230Y-109783988D01*
X98353229Y-109783988D01*
X98230748Y-109906469D01*
X98230748Y-109906470D01*
X98230746Y-109906472D01*
X98230510Y-109906797D01*
X98128928Y-110046611D01*
X98050288Y-110200952D01*
X97996757Y-110365702D01*
X97976861Y-110491324D01*
X97969660Y-110536789D01*
X97969660Y-111510011D01*
X97996758Y-111681101D01*
X98050287Y-111845845D01*
X98128928Y-112000188D01*
X98230746Y-112140328D01*
X98353232Y-112262814D01*
X98383384Y-112284721D01*
X98426050Y-112340049D01*
X98434500Y-112385039D01*
X98434500Y-114802773D01*
X98414815Y-114869812D01*
X98381623Y-114904348D01*
X98188597Y-115039505D01*
X98021505Y-115206597D01*
X97891575Y-115392158D01*
X97836998Y-115435783D01*
X97767500Y-115442977D01*
X97705145Y-115411454D01*
X97688425Y-115392158D01*
X97558494Y-115206597D01*
X97391402Y-115039506D01*
X97391401Y-115039505D01*
X97247864Y-114938999D01*
X97208536Y-114911461D01*
X97164911Y-114856884D01*
X97155660Y-114809886D01*
X97155660Y-112392421D01*
X97175345Y-112325382D01*
X97206776Y-112292102D01*
X97247084Y-112262817D01*
X97247084Y-112262816D01*
X97247088Y-112262814D01*
X97369574Y-112140328D01*
X97471392Y-112000188D01*
X97550033Y-111845845D01*
X97603562Y-111681101D01*
X97630660Y-111510011D01*
X97630660Y-110536789D01*
X97603562Y-110365699D01*
X97550033Y-110200955D01*
X97471392Y-110046612D01*
X97369574Y-109906472D01*
X97247088Y-109783986D01*
X97106948Y-109682168D01*
X96952605Y-109603527D01*
X96787861Y-109549998D01*
X96787859Y-109549997D01*
X96787858Y-109549997D01*
X96656431Y-109529181D01*
X96616771Y-109522900D01*
X96443549Y-109522900D01*
X96403888Y-109529181D01*
X96272462Y-109549997D01*
X96107712Y-109603528D01*
X95953371Y-109682168D01*
X95873416Y-109740259D01*
X95813232Y-109783986D01*
X95813230Y-109783988D01*
X95813229Y-109783988D01*
X95690748Y-109906469D01*
X95690748Y-109906470D01*
X95690746Y-109906472D01*
X95690510Y-109906797D01*
X95588928Y-110046611D01*
X95510288Y-110200952D01*
X95456757Y-110365702D01*
X95436861Y-110491324D01*
X95429660Y-110536789D01*
X95429660Y-111510011D01*
X95456758Y-111681101D01*
X95510287Y-111845845D01*
X95588928Y-112000188D01*
X95690746Y-112140328D01*
X95690748Y-112140330D01*
X95813235Y-112262817D01*
X95853544Y-112292102D01*
X95896210Y-112347431D01*
X95904660Y-112392421D01*
X95904660Y-114796295D01*
X95884975Y-114863334D01*
X95846211Y-114900298D01*
X95846605Y-114900860D01*
X95842906Y-114903449D01*
X95842667Y-114903678D01*
X95842173Y-114903963D01*
X95648597Y-115039505D01*
X95481505Y-115206597D01*
X95351575Y-115392158D01*
X95296998Y-115435783D01*
X95227500Y-115442977D01*
X95165145Y-115411454D01*
X95148425Y-115392158D01*
X95018494Y-115206597D01*
X94851402Y-115039506D01*
X94851401Y-115039505D01*
X94707864Y-114938999D01*
X94658376Y-114904347D01*
X94614751Y-114849770D01*
X94605500Y-114802772D01*
X94605500Y-112399802D01*
X94625185Y-112332763D01*
X94656612Y-112299486D01*
X94707088Y-112262814D01*
X94829574Y-112140328D01*
X94931392Y-112000188D01*
X95010033Y-111845845D01*
X95063562Y-111681101D01*
X95090660Y-111510011D01*
X95090660Y-110536789D01*
X95063562Y-110365699D01*
X95010033Y-110200955D01*
X94931392Y-110046612D01*
X94829574Y-109906472D01*
X94707088Y-109783986D01*
X94566948Y-109682168D01*
X94412605Y-109603527D01*
X94247861Y-109549998D01*
X94247859Y-109549997D01*
X94247858Y-109549997D01*
X94116431Y-109529181D01*
X94076771Y-109522900D01*
X93903549Y-109522900D01*
X93863888Y-109529181D01*
X93732462Y-109549997D01*
X93567712Y-109603528D01*
X93413371Y-109682168D01*
X93333416Y-109740259D01*
X93273232Y-109783986D01*
X93273230Y-109783988D01*
X93273229Y-109783988D01*
X93150748Y-109906469D01*
X93150748Y-109906470D01*
X93150746Y-109906472D01*
X93150510Y-109906797D01*
X93048928Y-110046611D01*
X92970288Y-110200952D01*
X92916757Y-110365702D01*
X92896861Y-110491324D01*
X92889660Y-110536789D01*
X92889660Y-111510011D01*
X92916758Y-111681101D01*
X92970287Y-111845845D01*
X93048928Y-112000188D01*
X93150746Y-112140328D01*
X93273232Y-112262814D01*
X93303384Y-112284721D01*
X93346050Y-112340049D01*
X93354500Y-112385039D01*
X93354500Y-114802773D01*
X93334815Y-114869812D01*
X93301623Y-114904348D01*
X93108597Y-115039505D01*
X92941505Y-115206597D01*
X92811575Y-115392158D01*
X92756998Y-115435783D01*
X92687500Y-115442977D01*
X92625145Y-115411454D01*
X92608425Y-115392158D01*
X92478494Y-115206597D01*
X92311402Y-115039506D01*
X92311401Y-115039505D01*
X92167864Y-114938999D01*
X92128536Y-114911461D01*
X92084911Y-114856884D01*
X92075660Y-114809886D01*
X92075660Y-112392421D01*
X92095345Y-112325382D01*
X92126776Y-112292102D01*
X92167084Y-112262817D01*
X92167084Y-112262816D01*
X92167088Y-112262814D01*
X92289574Y-112140328D01*
X92391392Y-112000188D01*
X92470033Y-111845845D01*
X92523562Y-111681101D01*
X92550660Y-111510011D01*
X92550660Y-110536789D01*
X92523562Y-110365699D01*
X92470033Y-110200955D01*
X92391392Y-110046612D01*
X92289574Y-109906472D01*
X92167088Y-109783986D01*
X92026948Y-109682168D01*
X91872605Y-109603527D01*
X91707861Y-109549998D01*
X91707859Y-109549997D01*
X91707858Y-109549997D01*
X91576431Y-109529181D01*
X91536771Y-109522900D01*
X91363549Y-109522900D01*
X91323888Y-109529181D01*
X91192462Y-109549997D01*
X91027712Y-109603528D01*
X90873371Y-109682168D01*
X90793416Y-109740259D01*
X90733232Y-109783986D01*
X90733230Y-109783988D01*
X90733229Y-109783988D01*
X90610748Y-109906469D01*
X90610748Y-109906470D01*
X90610746Y-109906472D01*
X90610510Y-109906797D01*
X90508928Y-110046611D01*
X90430288Y-110200952D01*
X90376757Y-110365702D01*
X90356861Y-110491324D01*
X90349660Y-110536789D01*
X90349660Y-111510011D01*
X90376758Y-111681101D01*
X90430287Y-111845845D01*
X90508928Y-112000188D01*
X90610746Y-112140328D01*
X90610748Y-112140330D01*
X90733235Y-112262817D01*
X90773544Y-112292102D01*
X90816210Y-112347431D01*
X90824660Y-112392421D01*
X90824660Y-114796295D01*
X90804975Y-114863334D01*
X90766211Y-114900298D01*
X90766605Y-114900860D01*
X90762906Y-114903449D01*
X90762667Y-114903678D01*
X90762173Y-114903963D01*
X90568597Y-115039505D01*
X90401505Y-115206597D01*
X90271575Y-115392158D01*
X90216998Y-115435783D01*
X90147500Y-115442977D01*
X90085145Y-115411454D01*
X90068425Y-115392158D01*
X89938494Y-115206597D01*
X89771402Y-115039506D01*
X89771401Y-115039505D01*
X89627864Y-114938999D01*
X89578376Y-114904347D01*
X89534751Y-114849770D01*
X89525500Y-114802772D01*
X89525500Y-112399802D01*
X89545185Y-112332763D01*
X89576612Y-112299486D01*
X89627088Y-112262814D01*
X89749574Y-112140328D01*
X89851392Y-112000188D01*
X89930033Y-111845845D01*
X89983562Y-111681101D01*
X90010660Y-111510011D01*
X90010660Y-110536789D01*
X89983562Y-110365699D01*
X89930033Y-110200955D01*
X89851392Y-110046612D01*
X89749574Y-109906472D01*
X89627088Y-109783986D01*
X89486948Y-109682168D01*
X89332605Y-109603527D01*
X89167861Y-109549998D01*
X89167859Y-109549997D01*
X89167858Y-109549997D01*
X89036431Y-109529181D01*
X88996771Y-109522900D01*
X88823549Y-109522900D01*
X88783888Y-109529181D01*
X88652462Y-109549997D01*
X88487712Y-109603528D01*
X88333371Y-109682168D01*
X88253416Y-109740259D01*
X88193232Y-109783986D01*
X88193230Y-109783988D01*
X88193229Y-109783988D01*
X88070748Y-109906469D01*
X88070748Y-109906470D01*
X88070746Y-109906472D01*
X88070510Y-109906797D01*
X87968928Y-110046611D01*
X87890288Y-110200952D01*
X87836757Y-110365702D01*
X87816861Y-110491324D01*
X87809660Y-110536789D01*
X87809660Y-111510011D01*
X87836758Y-111681101D01*
X87890287Y-111845845D01*
X87968928Y-112000188D01*
X88070746Y-112140328D01*
X88193232Y-112262814D01*
X88223384Y-112284721D01*
X88266050Y-112340049D01*
X88274500Y-112385039D01*
X88274500Y-114802773D01*
X88254815Y-114869812D01*
X88221623Y-114904348D01*
X88028597Y-115039505D01*
X87861505Y-115206597D01*
X87731575Y-115392158D01*
X87676998Y-115435783D01*
X87607500Y-115442977D01*
X87545145Y-115411454D01*
X87528425Y-115392158D01*
X87398494Y-115206597D01*
X87231402Y-115039506D01*
X87231401Y-115039505D01*
X87087864Y-114938999D01*
X87048536Y-114911461D01*
X87004911Y-114856884D01*
X86995660Y-114809886D01*
X86995660Y-112392421D01*
X87015345Y-112325382D01*
X87046776Y-112292102D01*
X87087084Y-112262817D01*
X87087084Y-112262816D01*
X87087088Y-112262814D01*
X87209574Y-112140328D01*
X87311392Y-112000188D01*
X87390033Y-111845845D01*
X87443562Y-111681101D01*
X87470660Y-111510011D01*
X87470660Y-110536789D01*
X87443562Y-110365699D01*
X87390033Y-110200955D01*
X87311392Y-110046612D01*
X87209574Y-109906472D01*
X87087088Y-109783986D01*
X86946948Y-109682168D01*
X86792605Y-109603527D01*
X86627861Y-109549998D01*
X86627859Y-109549997D01*
X86627858Y-109549997D01*
X86496431Y-109529181D01*
X86456771Y-109522900D01*
X86283549Y-109522900D01*
X86243888Y-109529181D01*
X86112462Y-109549997D01*
X85947712Y-109603528D01*
X85793371Y-109682168D01*
X85713416Y-109740259D01*
X85653232Y-109783986D01*
X85653230Y-109783988D01*
X85653229Y-109783988D01*
X85530748Y-109906469D01*
X85530748Y-109906470D01*
X85530746Y-109906472D01*
X85530510Y-109906797D01*
X85428928Y-110046611D01*
X85350288Y-110200952D01*
X85296757Y-110365702D01*
X85276861Y-110491324D01*
X85269660Y-110536789D01*
X85269660Y-111510011D01*
X85296758Y-111681101D01*
X85350287Y-111845845D01*
X85428928Y-112000188D01*
X85530746Y-112140328D01*
X85530748Y-112140330D01*
X85653235Y-112262817D01*
X85693544Y-112292102D01*
X85736210Y-112347431D01*
X85744660Y-112392421D01*
X85744660Y-114796295D01*
X85724975Y-114863334D01*
X85686211Y-114900298D01*
X85686605Y-114900860D01*
X85682906Y-114903449D01*
X85682667Y-114903678D01*
X85682173Y-114903963D01*
X85488600Y-115039503D01*
X85366673Y-115161430D01*
X85305350Y-115194914D01*
X85235658Y-115189930D01*
X85179725Y-115148058D01*
X85162810Y-115117081D01*
X85113797Y-114985671D01*
X85113793Y-114985664D01*
X85027547Y-114870455D01*
X85027544Y-114870452D01*
X84912335Y-114784206D01*
X84912332Y-114784205D01*
X84912331Y-114784204D01*
X84901161Y-114780038D01*
X84845231Y-114738166D01*
X84820816Y-114672701D01*
X84820500Y-114663858D01*
X84820500Y-112378410D01*
X84840185Y-112311371D01*
X84845234Y-112304098D01*
X84854214Y-112292102D01*
X84873956Y-112265731D01*
X84875187Y-112262432D01*
X84894334Y-112211093D01*
X84924251Y-112130883D01*
X84930660Y-112071273D01*
X84930659Y-109975528D01*
X84924251Y-109915917D01*
X84920849Y-109906797D01*
X84873957Y-109781071D01*
X84873953Y-109781064D01*
X84787707Y-109665855D01*
X84787704Y-109665852D01*
X84672495Y-109579606D01*
X84672488Y-109579602D01*
X84537642Y-109529308D01*
X84537643Y-109529308D01*
X84478043Y-109522901D01*
X84478041Y-109522900D01*
X84478033Y-109522900D01*
X84478024Y-109522900D01*
X83182289Y-109522900D01*
X83182283Y-109522901D01*
X83122676Y-109529308D01*
X82987831Y-109579602D01*
X82987824Y-109579606D01*
X82872615Y-109665852D01*
X82872612Y-109665855D01*
X82786366Y-109781064D01*
X82786362Y-109781071D01*
X82736068Y-109915917D01*
X82729661Y-109975516D01*
X82729661Y-109975523D01*
X82729660Y-109975535D01*
X82729660Y-110148900D01*
X82709975Y-110215939D01*
X82657171Y-110261694D01*
X82605660Y-110272900D01*
X77095630Y-110272900D01*
X77028591Y-110253215D01*
X77007949Y-110236581D01*
X73430819Y-106659451D01*
X73397334Y-106598128D01*
X73394500Y-106571770D01*
X73394500Y-105201972D01*
X73401458Y-105161017D01*
X73429368Y-105081254D01*
X73429369Y-105081249D01*
X73449565Y-104902003D01*
X73449565Y-104901996D01*
X73429369Y-104722750D01*
X73429368Y-104722745D01*
X73417247Y-104688105D01*
X73369789Y-104552478D01*
X73361688Y-104539586D01*
X73273815Y-104399737D01*
X73146262Y-104272184D01*
X72993523Y-104176211D01*
X72823254Y-104116631D01*
X72823249Y-104116630D01*
X72644004Y-104096435D01*
X72643996Y-104096435D01*
X72464750Y-104116630D01*
X72464745Y-104116631D01*
X72294476Y-104176211D01*
X72141737Y-104272184D01*
X72014184Y-104399737D01*
X71918211Y-104552476D01*
X71858631Y-104722745D01*
X71858630Y-104722750D01*
X71838435Y-104901996D01*
X71838435Y-104902003D01*
X71858630Y-105081249D01*
X71858631Y-105081254D01*
X71886542Y-105161017D01*
X71893500Y-105201972D01*
X71893500Y-107007918D01*
X71893500Y-107007920D01*
X71893499Y-107007920D01*
X71922340Y-107152907D01*
X71922343Y-107152917D01*
X71978914Y-107289492D01*
X71978915Y-107289494D01*
X71978916Y-107289495D01*
X72009067Y-107334620D01*
X72011812Y-107338727D01*
X72011813Y-107338730D01*
X72061046Y-107412414D01*
X72061052Y-107412421D01*
X76254984Y-111606352D01*
X76254986Y-111606354D01*
X76284458Y-111626045D01*
X76328670Y-111655586D01*
X76377905Y-111688484D01*
X76377906Y-111688484D01*
X76377907Y-111688485D01*
X76377909Y-111688486D01*
X76514482Y-111745056D01*
X76514487Y-111745058D01*
X76514491Y-111745058D01*
X76514492Y-111745059D01*
X76659479Y-111773900D01*
X76659482Y-111773900D01*
X76659483Y-111773900D01*
X76807317Y-111773900D01*
X82605661Y-111773900D01*
X82672700Y-111793585D01*
X82718455Y-111846389D01*
X82729661Y-111897900D01*
X82729661Y-112071276D01*
X82736068Y-112130881D01*
X82736069Y-112130883D01*
X82786364Y-112265731D01*
X82786365Y-112265732D01*
X82794766Y-112276954D01*
X82819184Y-112342417D01*
X82819500Y-112351266D01*
X82819500Y-114663858D01*
X82799815Y-114730897D01*
X82747011Y-114776652D01*
X82738847Y-114780034D01*
X82727669Y-114784204D01*
X82727664Y-114784206D01*
X82612455Y-114870452D01*
X82612452Y-114870455D01*
X82526206Y-114985664D01*
X82526202Y-114985671D01*
X82475908Y-115120517D01*
X82469501Y-115180116D01*
X82469500Y-115180135D01*
X82469500Y-116975870D01*
X82469501Y-116975876D01*
X82475908Y-117035483D01*
X82526202Y-117170328D01*
X82526206Y-117170335D01*
X82612452Y-117285544D01*
X82612455Y-117285547D01*
X82727664Y-117371793D01*
X82727671Y-117371797D01*
X82862517Y-117422091D01*
X82862516Y-117422091D01*
X82869444Y-117422835D01*
X82922127Y-117428500D01*
X84717872Y-117428499D01*
X84777483Y-117422091D01*
X84912331Y-117371796D01*
X85027546Y-117285546D01*
X85113796Y-117170331D01*
X85162810Y-117038916D01*
X85204681Y-116982984D01*
X85270145Y-116958566D01*
X85338418Y-116973417D01*
X85366673Y-116994569D01*
X85488599Y-117116495D01*
X85582350Y-117182140D01*
X85682165Y-117252032D01*
X85682167Y-117252033D01*
X85682170Y-117252035D01*
X85896337Y-117351903D01*
X86124592Y-117413063D01*
X86301034Y-117428500D01*
X86359999Y-117433659D01*
X86360000Y-117433659D01*
X86360001Y-117433659D01*
X86418966Y-117428500D01*
X86595408Y-117413063D01*
X86823663Y-117351903D01*
X87037830Y-117252035D01*
X87231401Y-117116495D01*
X87398495Y-116949401D01*
X87528425Y-116763842D01*
X87583002Y-116720217D01*
X87652500Y-116713023D01*
X87714855Y-116744546D01*
X87731575Y-116763842D01*
X87861500Y-116949395D01*
X87861505Y-116949401D01*
X88028599Y-117116495D01*
X88122350Y-117182140D01*
X88222165Y-117252032D01*
X88222167Y-117252033D01*
X88222170Y-117252035D01*
X88436337Y-117351903D01*
X88664592Y-117413063D01*
X88841034Y-117428500D01*
X88899999Y-117433659D01*
X88900000Y-117433659D01*
X88900001Y-117433659D01*
X88958966Y-117428500D01*
X89135408Y-117413063D01*
X89363663Y-117351903D01*
X89577830Y-117252035D01*
X89771401Y-117116495D01*
X89938495Y-116949401D01*
X90068425Y-116763842D01*
X90123002Y-116720217D01*
X90192500Y-116713023D01*
X90254855Y-116744546D01*
X90271575Y-116763842D01*
X90401500Y-116949395D01*
X90401505Y-116949401D01*
X90568599Y-117116495D01*
X90662350Y-117182140D01*
X90762165Y-117252032D01*
X90762167Y-117252033D01*
X90762170Y-117252035D01*
X90976337Y-117351903D01*
X91204592Y-117413063D01*
X91381034Y-117428500D01*
X91439999Y-117433659D01*
X91440000Y-117433659D01*
X91440001Y-117433659D01*
X91498966Y-117428500D01*
X91675408Y-117413063D01*
X91903663Y-117351903D01*
X92117830Y-117252035D01*
X92311401Y-117116495D01*
X92478495Y-116949401D01*
X92608425Y-116763842D01*
X92663002Y-116720217D01*
X92732500Y-116713023D01*
X92794855Y-116744546D01*
X92811575Y-116763842D01*
X92941500Y-116949395D01*
X92941505Y-116949401D01*
X93108599Y-117116495D01*
X93202350Y-117182140D01*
X93302165Y-117252032D01*
X93302167Y-117252033D01*
X93302170Y-117252035D01*
X93516337Y-117351903D01*
X93744592Y-117413063D01*
X93921034Y-117428500D01*
X93979999Y-117433659D01*
X93980000Y-117433659D01*
X93980001Y-117433659D01*
X94038966Y-117428500D01*
X94215408Y-117413063D01*
X94443663Y-117351903D01*
X94657830Y-117252035D01*
X94851401Y-117116495D01*
X95018495Y-116949401D01*
X95148425Y-116763842D01*
X95203002Y-116720217D01*
X95272500Y-116713023D01*
X95334855Y-116744546D01*
X95351575Y-116763842D01*
X95481500Y-116949395D01*
X95481505Y-116949401D01*
X95648599Y-117116495D01*
X95742350Y-117182140D01*
X95842165Y-117252032D01*
X95842167Y-117252033D01*
X95842170Y-117252035D01*
X96056337Y-117351903D01*
X96284592Y-117413063D01*
X96461034Y-117428500D01*
X96519999Y-117433659D01*
X96520000Y-117433659D01*
X96520001Y-117433659D01*
X96578966Y-117428500D01*
X96755408Y-117413063D01*
X96983663Y-117351903D01*
X97197830Y-117252035D01*
X97391401Y-117116495D01*
X97558495Y-116949401D01*
X97688425Y-116763842D01*
X97743002Y-116720217D01*
X97812500Y-116713023D01*
X97874855Y-116744546D01*
X97891575Y-116763842D01*
X98021500Y-116949395D01*
X98021505Y-116949401D01*
X98188599Y-117116495D01*
X98282350Y-117182140D01*
X98382165Y-117252032D01*
X98382167Y-117252033D01*
X98382170Y-117252035D01*
X98596337Y-117351903D01*
X98824592Y-117413063D01*
X99001034Y-117428500D01*
X99059999Y-117433659D01*
X99060000Y-117433659D01*
X99060001Y-117433659D01*
X99118966Y-117428500D01*
X99295408Y-117413063D01*
X99523663Y-117351903D01*
X99737830Y-117252035D01*
X99931401Y-117116495D01*
X100098495Y-116949401D01*
X100228425Y-116763842D01*
X100283002Y-116720217D01*
X100352500Y-116713023D01*
X100414855Y-116744546D01*
X100431575Y-116763842D01*
X100561500Y-116949395D01*
X100561505Y-116949401D01*
X100728599Y-117116495D01*
X100822350Y-117182140D01*
X100922165Y-117252032D01*
X100922167Y-117252033D01*
X100922170Y-117252035D01*
X101136337Y-117351903D01*
X101364592Y-117413063D01*
X101541034Y-117428500D01*
X101599999Y-117433659D01*
X101600000Y-117433659D01*
X101600001Y-117433659D01*
X101658966Y-117428500D01*
X101835408Y-117413063D01*
X102063663Y-117351903D01*
X102277830Y-117252035D01*
X102471401Y-117116495D01*
X102638495Y-116949401D01*
X102768425Y-116763842D01*
X102823002Y-116720217D01*
X102892500Y-116713023D01*
X102954855Y-116744546D01*
X102971575Y-116763842D01*
X103101500Y-116949395D01*
X103101505Y-116949401D01*
X103268599Y-117116495D01*
X103362350Y-117182140D01*
X103462165Y-117252032D01*
X103462167Y-117252033D01*
X103462170Y-117252035D01*
X103676337Y-117351903D01*
X103904592Y-117413063D01*
X104081034Y-117428500D01*
X104139999Y-117433659D01*
X104140000Y-117433659D01*
X104140001Y-117433659D01*
X104198966Y-117428500D01*
X104375408Y-117413063D01*
X104603663Y-117351903D01*
X104817830Y-117252035D01*
X105011401Y-117116495D01*
X105178495Y-116949401D01*
X105308425Y-116763842D01*
X105363002Y-116720217D01*
X105432500Y-116713023D01*
X105494855Y-116744546D01*
X105511575Y-116763842D01*
X105641500Y-116949395D01*
X105641505Y-116949401D01*
X105808599Y-117116495D01*
X105902350Y-117182140D01*
X106002165Y-117252032D01*
X106002167Y-117252033D01*
X106002170Y-117252035D01*
X106216337Y-117351903D01*
X106444592Y-117413063D01*
X106621034Y-117428500D01*
X106679999Y-117433659D01*
X106680000Y-117433659D01*
X106680001Y-117433659D01*
X106738966Y-117428500D01*
X106915408Y-117413063D01*
X107143663Y-117351903D01*
X107357830Y-117252035D01*
X107551401Y-117116495D01*
X107718495Y-116949401D01*
X107848425Y-116763842D01*
X107903002Y-116720217D01*
X107972500Y-116713023D01*
X108034855Y-116744546D01*
X108051575Y-116763842D01*
X108181500Y-116949395D01*
X108181505Y-116949401D01*
X108348599Y-117116495D01*
X108442350Y-117182140D01*
X108542165Y-117252032D01*
X108542167Y-117252033D01*
X108542170Y-117252035D01*
X108756337Y-117351903D01*
X108984592Y-117413063D01*
X109161034Y-117428500D01*
X109219999Y-117433659D01*
X109220000Y-117433659D01*
X109220001Y-117433659D01*
X109278966Y-117428500D01*
X109455408Y-117413063D01*
X109683663Y-117351903D01*
X109897830Y-117252035D01*
X110091401Y-117116495D01*
X110258495Y-116949401D01*
X110388425Y-116763842D01*
X110443002Y-116720217D01*
X110512500Y-116713023D01*
X110574855Y-116744546D01*
X110591575Y-116763842D01*
X110721500Y-116949395D01*
X110721505Y-116949401D01*
X110888599Y-117116495D01*
X110982350Y-117182140D01*
X111082165Y-117252032D01*
X111082167Y-117252033D01*
X111082170Y-117252035D01*
X111296337Y-117351903D01*
X111524592Y-117413063D01*
X111701034Y-117428500D01*
X111759999Y-117433659D01*
X111760000Y-117433659D01*
X111760001Y-117433659D01*
X111818966Y-117428500D01*
X111995408Y-117413063D01*
X112223663Y-117351903D01*
X112437830Y-117252035D01*
X112631401Y-117116495D01*
X112798495Y-116949401D01*
X112928425Y-116763842D01*
X112983002Y-116720217D01*
X113052500Y-116713023D01*
X113114855Y-116744546D01*
X113131575Y-116763842D01*
X113261500Y-116949395D01*
X113261505Y-116949401D01*
X113428599Y-117116495D01*
X113522350Y-117182140D01*
X113622165Y-117252032D01*
X113622167Y-117252033D01*
X113622170Y-117252035D01*
X113836337Y-117351903D01*
X114064592Y-117413063D01*
X114241034Y-117428500D01*
X114299999Y-117433659D01*
X114300000Y-117433659D01*
X114300001Y-117433659D01*
X114358966Y-117428500D01*
X114535408Y-117413063D01*
X114763663Y-117351903D01*
X114977830Y-117252035D01*
X115171401Y-117116495D01*
X115338495Y-116949401D01*
X115468730Y-116763405D01*
X115523307Y-116719781D01*
X115592805Y-116712587D01*
X115655160Y-116744110D01*
X115671879Y-116763405D01*
X115801890Y-116949078D01*
X115968917Y-117116105D01*
X116162421Y-117251600D01*
X116376507Y-117351429D01*
X116376516Y-117351433D01*
X116590000Y-117408634D01*
X116590000Y-116511012D01*
X116647007Y-116543925D01*
X116774174Y-116578000D01*
X116905826Y-116578000D01*
X117032993Y-116543925D01*
X117090000Y-116511012D01*
X117090000Y-117408633D01*
X117303483Y-117351433D01*
X117303492Y-117351429D01*
X117517578Y-117251600D01*
X117711082Y-117116105D01*
X117878105Y-116949082D01*
X118008119Y-116763405D01*
X118062696Y-116719781D01*
X118132195Y-116712588D01*
X118194549Y-116744110D01*
X118211269Y-116763405D01*
X118341505Y-116949401D01*
X118508599Y-117116495D01*
X118602350Y-117182140D01*
X118702165Y-117252032D01*
X118702167Y-117252033D01*
X118702170Y-117252035D01*
X118916337Y-117351903D01*
X119144592Y-117413063D01*
X119321034Y-117428500D01*
X119379999Y-117433659D01*
X119380000Y-117433659D01*
X119380001Y-117433659D01*
X119438966Y-117428500D01*
X119615408Y-117413063D01*
X119843663Y-117351903D01*
X120057830Y-117252035D01*
X120251401Y-117116495D01*
X120418495Y-116949401D01*
X120548425Y-116763842D01*
X120603002Y-116720217D01*
X120672500Y-116713023D01*
X120734855Y-116744546D01*
X120751575Y-116763842D01*
X120881500Y-116949395D01*
X120881505Y-116949401D01*
X121048599Y-117116495D01*
X121142350Y-117182140D01*
X121242165Y-117252032D01*
X121242167Y-117252033D01*
X121242170Y-117252035D01*
X121456337Y-117351903D01*
X121684592Y-117413063D01*
X121861034Y-117428500D01*
X121919999Y-117433659D01*
X121920000Y-117433659D01*
X121920001Y-117433659D01*
X121978966Y-117428500D01*
X122155408Y-117413063D01*
X122383663Y-117351903D01*
X122597830Y-117252035D01*
X122791401Y-117116495D01*
X122958495Y-116949401D01*
X123088425Y-116763842D01*
X123143002Y-116720217D01*
X123212500Y-116713023D01*
X123274855Y-116744546D01*
X123291575Y-116763842D01*
X123421500Y-116949395D01*
X123421505Y-116949401D01*
X123588599Y-117116495D01*
X123682350Y-117182140D01*
X123782165Y-117252032D01*
X123782167Y-117252033D01*
X123782170Y-117252035D01*
X123996337Y-117351903D01*
X124224592Y-117413063D01*
X124401034Y-117428500D01*
X124459999Y-117433659D01*
X124460000Y-117433659D01*
X124460001Y-117433659D01*
X124518966Y-117428500D01*
X124695408Y-117413063D01*
X124923663Y-117351903D01*
X125137830Y-117252035D01*
X125331401Y-117116495D01*
X125498495Y-116949401D01*
X125628425Y-116763842D01*
X125683002Y-116720217D01*
X125752500Y-116713023D01*
X125814855Y-116744546D01*
X125831575Y-116763842D01*
X125961500Y-116949395D01*
X125961505Y-116949401D01*
X126128599Y-117116495D01*
X126222350Y-117182140D01*
X126322165Y-117252032D01*
X126322167Y-117252033D01*
X126322170Y-117252035D01*
X126536337Y-117351903D01*
X126764592Y-117413063D01*
X126941034Y-117428500D01*
X126999999Y-117433659D01*
X127000000Y-117433659D01*
X127000001Y-117433659D01*
X127058966Y-117428500D01*
X127235408Y-117413063D01*
X127463663Y-117351903D01*
X127677830Y-117252035D01*
X127871401Y-117116495D01*
X128038495Y-116949401D01*
X128168425Y-116763842D01*
X128223002Y-116720217D01*
X128292500Y-116713023D01*
X128354855Y-116744546D01*
X128371575Y-116763842D01*
X128501500Y-116949395D01*
X128501505Y-116949401D01*
X128668599Y-117116495D01*
X128762350Y-117182140D01*
X128862165Y-117252032D01*
X128862167Y-117252033D01*
X128862170Y-117252035D01*
X129076337Y-117351903D01*
X129304592Y-117413063D01*
X129481034Y-117428500D01*
X129539999Y-117433659D01*
X129540000Y-117433659D01*
X129540001Y-117433659D01*
X129598966Y-117428500D01*
X129775408Y-117413063D01*
X130003663Y-117351903D01*
X130217830Y-117252035D01*
X130411401Y-117116495D01*
X130578495Y-116949401D01*
X130714035Y-116755830D01*
X130813903Y-116541663D01*
X130875063Y-116313408D01*
X130895659Y-116078000D01*
X130875063Y-115842592D01*
X130813903Y-115614337D01*
X130714035Y-115400171D01*
X130714034Y-115400169D01*
X130575390Y-115202164D01*
X130576707Y-115201241D01*
X130551655Y-115143968D01*
X130550660Y-115128293D01*
X130550660Y-111913635D01*
X130564176Y-111857339D01*
X130570033Y-111845845D01*
X130623562Y-111681101D01*
X130650660Y-111510011D01*
X130650660Y-110536789D01*
X130623562Y-110365699D01*
X130570033Y-110200955D01*
X130570031Y-110200952D01*
X130570031Y-110200950D01*
X130564176Y-110189459D01*
X130550660Y-110133163D01*
X130550660Y-106515416D01*
X130512212Y-106322130D01*
X130512211Y-106322129D01*
X130512211Y-106322125D01*
X130449464Y-106170638D01*
X130436795Y-106140052D01*
X130436788Y-106140039D01*
X130327299Y-105976178D01*
X130327296Y-105976174D01*
X130184846Y-105833724D01*
X130184815Y-105833695D01*
X122549079Y-98197959D01*
X122549059Y-98197937D01*
X122405385Y-98054263D01*
X122405381Y-98054260D01*
X122241520Y-97944771D01*
X122241511Y-97944766D01*
X122153579Y-97908344D01*
X122112765Y-97891438D01*
X122059436Y-97869349D01*
X122059432Y-97869348D01*
X122059428Y-97869346D01*
X121962788Y-97850124D01*
X121866144Y-97830900D01*
X121866141Y-97830900D01*
X86165383Y-97830900D01*
X86098344Y-97811215D01*
X86077702Y-97794581D01*
X83221319Y-94938198D01*
X83187834Y-94876875D01*
X83185000Y-94850517D01*
X83185000Y-88900000D01*
X77234482Y-88900000D01*
X77167443Y-88880315D01*
X77146801Y-88863681D01*
X74393092Y-86109971D01*
X82730160Y-86109971D01*
X82757245Y-86280984D01*
X82810751Y-86445657D01*
X82889355Y-86599924D01*
X82991127Y-86740002D01*
X83113557Y-86862432D01*
X83253635Y-86964204D01*
X83407904Y-87042808D01*
X83572575Y-87096314D01*
X83572574Y-87096314D01*
X83580159Y-87097515D01*
X83580160Y-87097514D01*
X83580160Y-85939086D01*
X83584554Y-85943480D01*
X83675766Y-85996141D01*
X83777499Y-86023400D01*
X83882821Y-86023400D01*
X83984554Y-85996141D01*
X84075766Y-85943480D01*
X84080160Y-85939086D01*
X84080160Y-87097515D01*
X84087744Y-87096314D01*
X84252415Y-87042808D01*
X84406684Y-86964204D01*
X84546762Y-86862432D01*
X84669192Y-86740002D01*
X84770964Y-86599924D01*
X84849568Y-86445657D01*
X84903074Y-86280984D01*
X84930160Y-86109971D01*
X84930160Y-85873400D01*
X84145846Y-85873400D01*
X84150240Y-85869006D01*
X84202901Y-85777794D01*
X84230160Y-85676061D01*
X84230160Y-85570739D01*
X84202901Y-85469006D01*
X84150240Y-85377794D01*
X84145846Y-85373400D01*
X84930160Y-85373400D01*
X84930160Y-85136828D01*
X84903074Y-84965815D01*
X84849568Y-84801142D01*
X84770964Y-84646875D01*
X84669192Y-84506797D01*
X84546762Y-84384367D01*
X84406684Y-84282595D01*
X84252417Y-84203991D01*
X84087749Y-84150487D01*
X84087741Y-84150485D01*
X84080160Y-84149284D01*
X84080160Y-85307714D01*
X84075766Y-85303320D01*
X83984554Y-85250659D01*
X83882821Y-85223400D01*
X83777499Y-85223400D01*
X83675766Y-85250659D01*
X83584554Y-85303320D01*
X83580160Y-85307714D01*
X83580160Y-84149284D01*
X83580159Y-84149284D01*
X83572578Y-84150485D01*
X83572570Y-84150487D01*
X83407902Y-84203991D01*
X83253635Y-84282595D01*
X83113557Y-84384367D01*
X82991127Y-84506797D01*
X82889355Y-84646875D01*
X82810751Y-84801142D01*
X82757245Y-84965815D01*
X82730160Y-85136828D01*
X82730160Y-85373400D01*
X83514474Y-85373400D01*
X83510080Y-85377794D01*
X83457419Y-85469006D01*
X83430160Y-85570739D01*
X83430160Y-85676061D01*
X83457419Y-85777794D01*
X83510080Y-85869006D01*
X83514474Y-85873400D01*
X82730160Y-85873400D01*
X82730160Y-86109971D01*
X74393092Y-86109971D01*
X73847819Y-85564698D01*
X73814334Y-85503375D01*
X73811500Y-85477017D01*
X73811500Y-83410698D01*
X73831185Y-83343659D01*
X73854965Y-83316411D01*
X73910759Y-83268759D01*
X73912395Y-83266844D01*
X76261000Y-83266844D01*
X76267401Y-83326372D01*
X76267403Y-83326379D01*
X76317645Y-83461086D01*
X76317649Y-83461093D01*
X76403809Y-83576187D01*
X76403812Y-83576190D01*
X76518906Y-83662350D01*
X76518913Y-83662354D01*
X76653620Y-83712596D01*
X76653627Y-83712598D01*
X76713155Y-83718999D01*
X76713172Y-83719000D01*
X77561000Y-83719000D01*
X77561000Y-82659747D01*
X77598708Y-82681518D01*
X77738591Y-82719000D01*
X77883409Y-82719000D01*
X78023292Y-82681518D01*
X78061000Y-82659747D01*
X78061000Y-83719000D01*
X78908828Y-83719000D01*
X78908844Y-83718999D01*
X78968372Y-83712598D01*
X78968379Y-83712596D01*
X79103086Y-83662354D01*
X79103093Y-83662350D01*
X79218187Y-83576190D01*
X79218190Y-83576187D01*
X79304350Y-83461093D01*
X79304354Y-83461086D01*
X79354596Y-83326379D01*
X79354598Y-83326372D01*
X79360999Y-83266844D01*
X79361000Y-83266827D01*
X79361000Y-82419000D01*
X78301748Y-82419000D01*
X78323518Y-82381292D01*
X78361000Y-82241409D01*
X78361000Y-82096591D01*
X78323518Y-81956708D01*
X78301748Y-81919000D01*
X79361000Y-81919000D01*
X79361000Y-81071172D01*
X79360999Y-81071155D01*
X79359826Y-81060244D01*
X82444600Y-81060244D01*
X82451001Y-81119772D01*
X82451003Y-81119779D01*
X82501245Y-81254486D01*
X82501249Y-81254493D01*
X82587409Y-81369587D01*
X82587412Y-81369590D01*
X82702506Y-81455750D01*
X82702513Y-81455754D01*
X82837220Y-81505996D01*
X82837227Y-81505998D01*
X82896755Y-81512399D01*
X82896772Y-81512400D01*
X83544600Y-81512400D01*
X83544600Y-80595412D01*
X83601607Y-80628325D01*
X83728774Y-80662400D01*
X83860426Y-80662400D01*
X83987593Y-80628325D01*
X84044600Y-80595412D01*
X84044600Y-81512400D01*
X84692428Y-81512400D01*
X84692444Y-81512399D01*
X84751972Y-81505998D01*
X84751979Y-81505996D01*
X84886686Y-81455754D01*
X84886693Y-81455750D01*
X85001787Y-81369590D01*
X85001790Y-81369587D01*
X85087950Y-81254493D01*
X85087954Y-81254486D01*
X85137022Y-81122929D01*
X85178893Y-81066995D01*
X85244357Y-81042578D01*
X85312630Y-81057430D01*
X85340885Y-81078581D01*
X85463199Y-81200895D01*
X85656770Y-81336435D01*
X85673066Y-81344033D01*
X85725504Y-81390204D01*
X85744660Y-81456415D01*
X85744660Y-84254378D01*
X85724975Y-84321417D01*
X85693547Y-84354695D01*
X85653232Y-84383985D01*
X85530748Y-84506469D01*
X85530748Y-84506470D01*
X85530746Y-84506472D01*
X85487019Y-84566656D01*
X85428928Y-84646611D01*
X85350288Y-84800952D01*
X85296757Y-84965702D01*
X85269660Y-85136789D01*
X85269660Y-86110010D01*
X85294603Y-86267500D01*
X85296758Y-86281101D01*
X85350287Y-86445845D01*
X85428928Y-86600188D01*
X85530746Y-86740328D01*
X85653232Y-86862814D01*
X85793372Y-86964632D01*
X85947715Y-87043273D01*
X86112459Y-87096802D01*
X86283549Y-87123900D01*
X86283550Y-87123900D01*
X86456770Y-87123900D01*
X86456771Y-87123900D01*
X86627861Y-87096802D01*
X86792605Y-87043273D01*
X86946948Y-86964632D01*
X87087088Y-86862814D01*
X87209574Y-86740328D01*
X87311392Y-86600188D01*
X87390033Y-86445845D01*
X87443562Y-86281101D01*
X87470660Y-86110011D01*
X87470660Y-85136789D01*
X87443562Y-84965699D01*
X87390033Y-84800955D01*
X87311392Y-84646612D01*
X87209574Y-84506472D01*
X87087088Y-84383986D01*
X87056111Y-84361480D01*
X87046773Y-84354695D01*
X87004108Y-84299365D01*
X86995660Y-84254378D01*
X86995660Y-81412727D01*
X87015345Y-81345688D01*
X87048535Y-81311153D01*
X87206001Y-81200895D01*
X87373095Y-81033801D01*
X87503025Y-80848242D01*
X87557602Y-80804617D01*
X87627100Y-80797423D01*
X87689455Y-80828946D01*
X87706175Y-80848242D01*
X87836100Y-81033795D01*
X87836105Y-81033801D01*
X88003199Y-81200895D01*
X88196224Y-81336053D01*
X88239848Y-81390628D01*
X88249100Y-81437626D01*
X88249100Y-84280214D01*
X88229415Y-84347253D01*
X88197991Y-84380528D01*
X88193235Y-84383983D01*
X88193229Y-84383988D01*
X88070748Y-84506469D01*
X88070748Y-84506470D01*
X88070746Y-84506472D01*
X88027019Y-84566656D01*
X87968928Y-84646611D01*
X87890288Y-84800952D01*
X87836757Y-84965702D01*
X87809660Y-85136789D01*
X87809660Y-86110010D01*
X87834603Y-86267500D01*
X87836758Y-86281101D01*
X87890287Y-86445845D01*
X87968928Y-86600188D01*
X88070746Y-86740328D01*
X88193232Y-86862814D01*
X88333372Y-86964632D01*
X88487715Y-87043273D01*
X88652459Y-87096802D01*
X88823549Y-87123900D01*
X88823550Y-87123900D01*
X88996770Y-87123900D01*
X88996771Y-87123900D01*
X89167861Y-87096802D01*
X89332605Y-87043273D01*
X89486948Y-86964632D01*
X89627088Y-86862814D01*
X89749574Y-86740328D01*
X89851392Y-86600188D01*
X89930033Y-86445845D01*
X89983562Y-86281101D01*
X90010660Y-86110011D01*
X90010660Y-85136789D01*
X89983562Y-84965699D01*
X89930033Y-84800955D01*
X89851392Y-84646612D01*
X89749574Y-84506472D01*
X89627088Y-84383986D01*
X89551213Y-84328859D01*
X89508548Y-84273529D01*
X89500100Y-84228542D01*
X89500100Y-81437626D01*
X89519785Y-81370587D01*
X89552974Y-81336054D01*
X89746001Y-81200895D01*
X89913095Y-81033801D01*
X90043025Y-80848242D01*
X90097602Y-80804617D01*
X90167100Y-80797423D01*
X90229455Y-80828946D01*
X90246175Y-80848242D01*
X90376100Y-81033795D01*
X90376105Y-81033801D01*
X90543199Y-81200895D01*
X90736770Y-81336435D01*
X90753066Y-81344033D01*
X90805504Y-81390204D01*
X90824660Y-81456415D01*
X90824660Y-84254378D01*
X90804975Y-84321417D01*
X90773547Y-84354695D01*
X90733232Y-84383985D01*
X90610748Y-84506469D01*
X90610748Y-84506470D01*
X90610746Y-84506472D01*
X90567019Y-84566656D01*
X90508928Y-84646611D01*
X90430288Y-84800952D01*
X90376757Y-84965702D01*
X90349660Y-85136789D01*
X90349660Y-86110010D01*
X90374603Y-86267500D01*
X90376758Y-86281101D01*
X90430287Y-86445845D01*
X90508928Y-86600188D01*
X90610746Y-86740328D01*
X90733232Y-86862814D01*
X90873372Y-86964632D01*
X91027715Y-87043273D01*
X91192459Y-87096802D01*
X91363549Y-87123900D01*
X91363550Y-87123900D01*
X91536770Y-87123900D01*
X91536771Y-87123900D01*
X91707861Y-87096802D01*
X91872605Y-87043273D01*
X92026948Y-86964632D01*
X92167088Y-86862814D01*
X92289574Y-86740328D01*
X92391392Y-86600188D01*
X92470033Y-86445845D01*
X92523562Y-86281101D01*
X92550660Y-86110011D01*
X92550660Y-85136789D01*
X92523562Y-84965699D01*
X92470033Y-84800955D01*
X92391392Y-84646612D01*
X92289574Y-84506472D01*
X92167088Y-84383986D01*
X92136111Y-84361480D01*
X92126773Y-84354695D01*
X92084108Y-84299365D01*
X92075660Y-84254378D01*
X92075660Y-81412727D01*
X92095345Y-81345688D01*
X92128535Y-81311153D01*
X92286001Y-81200895D01*
X92453095Y-81033801D01*
X92583025Y-80848242D01*
X92637602Y-80804617D01*
X92707100Y-80797423D01*
X92769455Y-80828946D01*
X92786175Y-80848242D01*
X92916100Y-81033795D01*
X92916105Y-81033801D01*
X93083199Y-81200895D01*
X93276224Y-81336053D01*
X93319848Y-81390628D01*
X93329100Y-81437626D01*
X93329100Y-84280214D01*
X93309415Y-84347253D01*
X93277991Y-84380528D01*
X93273235Y-84383983D01*
X93273229Y-84383988D01*
X93150748Y-84506469D01*
X93150748Y-84506470D01*
X93150746Y-84506472D01*
X93107019Y-84566656D01*
X93048928Y-84646611D01*
X92970288Y-84800952D01*
X92916757Y-84965702D01*
X92889660Y-85136789D01*
X92889660Y-86110010D01*
X92914603Y-86267500D01*
X92916758Y-86281101D01*
X92970287Y-86445845D01*
X93048928Y-86600188D01*
X93150746Y-86740328D01*
X93273232Y-86862814D01*
X93413372Y-86964632D01*
X93567715Y-87043273D01*
X93732459Y-87096802D01*
X93903549Y-87123900D01*
X93903550Y-87123900D01*
X94076770Y-87123900D01*
X94076771Y-87123900D01*
X94247861Y-87096802D01*
X94412605Y-87043273D01*
X94566948Y-86964632D01*
X94707088Y-86862814D01*
X94829574Y-86740328D01*
X94931392Y-86600188D01*
X95010033Y-86445845D01*
X95063562Y-86281101D01*
X95090660Y-86110011D01*
X95090660Y-85136789D01*
X95063562Y-84965699D01*
X95010033Y-84800955D01*
X94931392Y-84646612D01*
X94829574Y-84506472D01*
X94707088Y-84383986D01*
X94631213Y-84328859D01*
X94588548Y-84273529D01*
X94580100Y-84228542D01*
X94580100Y-81437626D01*
X94599785Y-81370587D01*
X94632974Y-81336054D01*
X94826001Y-81200895D01*
X94993095Y-81033801D01*
X95123025Y-80848242D01*
X95177602Y-80804617D01*
X95247100Y-80797423D01*
X95309455Y-80828946D01*
X95326175Y-80848242D01*
X95456100Y-81033795D01*
X95456105Y-81033801D01*
X95623199Y-81200895D01*
X95816770Y-81336435D01*
X95833066Y-81344033D01*
X95885504Y-81390204D01*
X95904660Y-81456415D01*
X95904660Y-84254378D01*
X95884975Y-84321417D01*
X95853547Y-84354695D01*
X95813232Y-84383985D01*
X95690748Y-84506469D01*
X95690748Y-84506470D01*
X95690746Y-84506472D01*
X95647019Y-84566656D01*
X95588928Y-84646611D01*
X95510288Y-84800952D01*
X95456757Y-84965702D01*
X95429660Y-85136789D01*
X95429660Y-86110010D01*
X95454603Y-86267500D01*
X95456758Y-86281101D01*
X95510287Y-86445845D01*
X95588928Y-86600188D01*
X95690746Y-86740328D01*
X95813232Y-86862814D01*
X95953372Y-86964632D01*
X96107715Y-87043273D01*
X96272459Y-87096802D01*
X96443549Y-87123900D01*
X96443550Y-87123900D01*
X96616770Y-87123900D01*
X96616771Y-87123900D01*
X96787861Y-87096802D01*
X96952605Y-87043273D01*
X97106948Y-86964632D01*
X97247088Y-86862814D01*
X97369574Y-86740328D01*
X97471392Y-86600188D01*
X97550033Y-86445845D01*
X97603562Y-86281101D01*
X97630660Y-86110011D01*
X97630660Y-86109971D01*
X97970160Y-86109971D01*
X97997245Y-86280984D01*
X98050751Y-86445657D01*
X98129355Y-86599924D01*
X98231127Y-86740002D01*
X98353557Y-86862432D01*
X98493635Y-86964204D01*
X98647904Y-87042808D01*
X98812575Y-87096314D01*
X98812574Y-87096314D01*
X98820159Y-87097515D01*
X98820160Y-87097514D01*
X98820160Y-85939086D01*
X98824554Y-85943480D01*
X98915766Y-85996141D01*
X99017499Y-86023400D01*
X99122821Y-86023400D01*
X99224554Y-85996141D01*
X99315766Y-85943480D01*
X99320160Y-85939086D01*
X99320160Y-87097515D01*
X99327744Y-87096314D01*
X99492415Y-87042808D01*
X99646684Y-86964204D01*
X99786762Y-86862432D01*
X99909192Y-86740002D01*
X100010964Y-86599924D01*
X100089568Y-86445657D01*
X100143074Y-86280984D01*
X100170160Y-86109971D01*
X100170160Y-85873400D01*
X99385846Y-85873400D01*
X99390240Y-85869006D01*
X99442901Y-85777794D01*
X99470160Y-85676061D01*
X99470160Y-85570739D01*
X99442901Y-85469006D01*
X99390240Y-85377794D01*
X99385846Y-85373400D01*
X100170160Y-85373400D01*
X100170160Y-85136828D01*
X100143074Y-84965815D01*
X100089568Y-84801142D01*
X100010964Y-84646875D01*
X99909192Y-84506797D01*
X99786762Y-84384367D01*
X99646684Y-84282595D01*
X99492417Y-84203991D01*
X99327749Y-84150487D01*
X99327741Y-84150485D01*
X99320160Y-84149284D01*
X99320160Y-85307714D01*
X99315766Y-85303320D01*
X99224554Y-85250659D01*
X99122821Y-85223400D01*
X99017499Y-85223400D01*
X98915766Y-85250659D01*
X98824554Y-85303320D01*
X98820160Y-85307714D01*
X98820160Y-84149284D01*
X98820159Y-84149284D01*
X98812578Y-84150485D01*
X98812570Y-84150487D01*
X98647902Y-84203991D01*
X98493635Y-84282595D01*
X98353557Y-84384367D01*
X98231127Y-84506797D01*
X98129355Y-84646875D01*
X98050751Y-84801142D01*
X97997245Y-84965815D01*
X97970160Y-85136828D01*
X97970160Y-85373400D01*
X98754474Y-85373400D01*
X98750080Y-85377794D01*
X98697419Y-85469006D01*
X98670160Y-85570739D01*
X98670160Y-85676061D01*
X98697419Y-85777794D01*
X98750080Y-85869006D01*
X98754474Y-85873400D01*
X97970160Y-85873400D01*
X97970160Y-86109971D01*
X97630660Y-86109971D01*
X97630660Y-85136789D01*
X97603562Y-84965699D01*
X97550033Y-84800955D01*
X97471392Y-84646612D01*
X97369574Y-84506472D01*
X97247088Y-84383986D01*
X97216111Y-84361480D01*
X97206773Y-84354695D01*
X97164108Y-84299365D01*
X97155660Y-84254378D01*
X97155660Y-81412727D01*
X97175345Y-81345688D01*
X97208535Y-81311153D01*
X97366001Y-81200895D01*
X97533095Y-81033801D01*
X97663330Y-80847805D01*
X97717907Y-80804181D01*
X97787405Y-80796987D01*
X97849760Y-80828510D01*
X97866479Y-80847805D01*
X97996490Y-81033478D01*
X98163517Y-81200505D01*
X98357021Y-81336000D01*
X98571107Y-81435829D01*
X98571116Y-81435833D01*
X98784600Y-81493034D01*
X98784600Y-80595412D01*
X98841607Y-80628325D01*
X98968774Y-80662400D01*
X99100426Y-80662400D01*
X99227593Y-80628325D01*
X99284600Y-80595412D01*
X99284600Y-81493033D01*
X99498083Y-81435833D01*
X99498092Y-81435829D01*
X99712178Y-81336000D01*
X99905682Y-81200505D01*
X100072705Y-81033482D01*
X100202719Y-80847805D01*
X100257296Y-80804181D01*
X100326795Y-80796988D01*
X100389149Y-80828510D01*
X100405869Y-80847805D01*
X100536105Y-81033801D01*
X100703199Y-81200895D01*
X100896224Y-81336053D01*
X100939848Y-81390628D01*
X100949100Y-81437626D01*
X100949100Y-84280214D01*
X100929415Y-84347253D01*
X100897991Y-84380528D01*
X100893235Y-84383983D01*
X100893229Y-84383988D01*
X100770748Y-84506469D01*
X100770748Y-84506470D01*
X100770746Y-84506472D01*
X100727019Y-84566656D01*
X100668928Y-84646611D01*
X100590288Y-84800952D01*
X100536757Y-84965702D01*
X100509660Y-85136789D01*
X100509660Y-86110010D01*
X100534603Y-86267500D01*
X100536758Y-86281101D01*
X100590287Y-86445845D01*
X100668928Y-86600188D01*
X100770746Y-86740328D01*
X100893232Y-86862814D01*
X101033372Y-86964632D01*
X101187715Y-87043273D01*
X101352459Y-87096802D01*
X101523549Y-87123900D01*
X101523550Y-87123900D01*
X101696770Y-87123900D01*
X101696771Y-87123900D01*
X101867861Y-87096802D01*
X102032605Y-87043273D01*
X102186948Y-86964632D01*
X102327088Y-86862814D01*
X102449574Y-86740328D01*
X102551392Y-86600188D01*
X102630033Y-86445845D01*
X102683562Y-86281101D01*
X102710660Y-86110011D01*
X102710660Y-85136789D01*
X102683562Y-84965699D01*
X102630033Y-84800955D01*
X102551392Y-84646612D01*
X102449574Y-84506472D01*
X102327088Y-84383986D01*
X102251213Y-84328859D01*
X102208548Y-84273529D01*
X102200100Y-84228542D01*
X102200100Y-81437626D01*
X102219785Y-81370587D01*
X102252974Y-81336054D01*
X102446001Y-81200895D01*
X102613095Y-81033801D01*
X102743025Y-80848242D01*
X102797602Y-80804617D01*
X102867100Y-80797423D01*
X102929455Y-80828946D01*
X102946175Y-80848242D01*
X103076100Y-81033795D01*
X103076105Y-81033801D01*
X103243199Y-81200895D01*
X103436770Y-81336435D01*
X103453066Y-81344033D01*
X103505504Y-81390204D01*
X103524660Y-81456415D01*
X103524660Y-84254378D01*
X103504975Y-84321417D01*
X103473547Y-84354695D01*
X103433232Y-84383985D01*
X103310748Y-84506469D01*
X103310748Y-84506470D01*
X103310746Y-84506472D01*
X103267019Y-84566656D01*
X103208928Y-84646611D01*
X103130288Y-84800952D01*
X103076757Y-84965702D01*
X103049660Y-85136789D01*
X103049660Y-86110010D01*
X103074603Y-86267500D01*
X103076758Y-86281101D01*
X103130287Y-86445845D01*
X103208928Y-86600188D01*
X103310746Y-86740328D01*
X103433232Y-86862814D01*
X103573372Y-86964632D01*
X103727715Y-87043273D01*
X103892459Y-87096802D01*
X104063549Y-87123900D01*
X104063550Y-87123900D01*
X104236770Y-87123900D01*
X104236771Y-87123900D01*
X104407861Y-87096802D01*
X104572605Y-87043273D01*
X104726948Y-86964632D01*
X104867088Y-86862814D01*
X104989574Y-86740328D01*
X105091392Y-86600188D01*
X105170033Y-86445845D01*
X105223562Y-86281101D01*
X105250660Y-86110011D01*
X105250660Y-85136789D01*
X105223562Y-84965699D01*
X105170033Y-84800955D01*
X105091392Y-84646612D01*
X104989574Y-84506472D01*
X104867088Y-84383986D01*
X104836111Y-84361480D01*
X104826773Y-84354695D01*
X104784108Y-84299365D01*
X104775660Y-84254378D01*
X104775660Y-81412727D01*
X104795345Y-81345688D01*
X104828535Y-81311153D01*
X104986001Y-81200895D01*
X105153095Y-81033801D01*
X105283025Y-80848242D01*
X105337602Y-80804617D01*
X105407100Y-80797423D01*
X105469455Y-80828946D01*
X105486175Y-80848242D01*
X105616100Y-81033795D01*
X105616105Y-81033801D01*
X105783199Y-81200895D01*
X105976224Y-81336053D01*
X106019848Y-81390628D01*
X106029100Y-81437626D01*
X106029100Y-84280214D01*
X106009415Y-84347253D01*
X105977991Y-84380528D01*
X105973235Y-84383983D01*
X105973229Y-84383988D01*
X105850748Y-84506469D01*
X105850748Y-84506470D01*
X105850746Y-84506472D01*
X105807019Y-84566656D01*
X105748928Y-84646611D01*
X105670288Y-84800952D01*
X105616757Y-84965702D01*
X105589660Y-85136789D01*
X105589660Y-86110010D01*
X105614603Y-86267500D01*
X105616758Y-86281101D01*
X105670287Y-86445845D01*
X105748928Y-86600188D01*
X105850746Y-86740328D01*
X105973232Y-86862814D01*
X106113372Y-86964632D01*
X106267715Y-87043273D01*
X106432459Y-87096802D01*
X106603549Y-87123900D01*
X106603550Y-87123900D01*
X106776770Y-87123900D01*
X106776771Y-87123900D01*
X106947861Y-87096802D01*
X107112605Y-87043273D01*
X107266948Y-86964632D01*
X107407088Y-86862814D01*
X107529574Y-86740328D01*
X107631392Y-86600188D01*
X107710033Y-86445845D01*
X107763562Y-86281101D01*
X107790660Y-86110011D01*
X107790660Y-85136789D01*
X107763562Y-84965699D01*
X107710033Y-84800955D01*
X107631392Y-84646612D01*
X107529574Y-84506472D01*
X107407088Y-84383986D01*
X107331213Y-84328859D01*
X107288548Y-84273529D01*
X107280100Y-84228542D01*
X107280100Y-81437626D01*
X107299785Y-81370587D01*
X107332974Y-81336054D01*
X107526001Y-81200895D01*
X107693095Y-81033801D01*
X107823025Y-80848242D01*
X107877602Y-80804617D01*
X107947100Y-80797423D01*
X108009455Y-80828946D01*
X108026175Y-80848242D01*
X108156100Y-81033795D01*
X108156105Y-81033801D01*
X108323199Y-81200895D01*
X108516770Y-81336435D01*
X108533066Y-81344033D01*
X108585504Y-81390204D01*
X108604660Y-81456415D01*
X108604660Y-84254378D01*
X108584975Y-84321417D01*
X108553547Y-84354695D01*
X108513232Y-84383985D01*
X108390748Y-84506469D01*
X108390748Y-84506470D01*
X108390746Y-84506472D01*
X108347019Y-84566656D01*
X108288928Y-84646611D01*
X108210288Y-84800952D01*
X108156757Y-84965702D01*
X108129660Y-85136789D01*
X108129660Y-86110010D01*
X108154603Y-86267500D01*
X108156758Y-86281101D01*
X108210287Y-86445845D01*
X108288928Y-86600188D01*
X108390746Y-86740328D01*
X108513232Y-86862814D01*
X108653372Y-86964632D01*
X108807715Y-87043273D01*
X108972459Y-87096802D01*
X109143549Y-87123900D01*
X109143550Y-87123900D01*
X109316770Y-87123900D01*
X109316771Y-87123900D01*
X109487861Y-87096802D01*
X109652605Y-87043273D01*
X109806948Y-86964632D01*
X109947088Y-86862814D01*
X110069574Y-86740328D01*
X110171392Y-86600188D01*
X110250033Y-86445845D01*
X110303562Y-86281101D01*
X110330660Y-86110011D01*
X110330660Y-85136789D01*
X110303562Y-84965699D01*
X110250033Y-84800955D01*
X110171392Y-84646612D01*
X110069574Y-84506472D01*
X109947088Y-84383986D01*
X109916111Y-84361480D01*
X109906773Y-84354695D01*
X109864108Y-84299365D01*
X109855660Y-84254378D01*
X109855660Y-81412727D01*
X109875345Y-81345688D01*
X109908535Y-81311153D01*
X110066001Y-81200895D01*
X110233095Y-81033801D01*
X110363025Y-80848242D01*
X110417602Y-80804617D01*
X110487100Y-80797423D01*
X110549455Y-80828946D01*
X110566175Y-80848242D01*
X110696100Y-81033795D01*
X110696105Y-81033801D01*
X110863199Y-81200895D01*
X111056224Y-81336053D01*
X111099848Y-81390628D01*
X111109100Y-81437626D01*
X111109100Y-84280214D01*
X111089415Y-84347253D01*
X111057991Y-84380528D01*
X111053235Y-84383983D01*
X111053229Y-84383988D01*
X110930748Y-84506469D01*
X110930748Y-84506470D01*
X110930746Y-84506472D01*
X110887019Y-84566656D01*
X110828928Y-84646611D01*
X110750288Y-84800952D01*
X110696757Y-84965702D01*
X110669660Y-85136789D01*
X110669660Y-86110010D01*
X110694603Y-86267500D01*
X110696758Y-86281101D01*
X110750287Y-86445845D01*
X110828928Y-86600188D01*
X110930746Y-86740328D01*
X111053232Y-86862814D01*
X111193372Y-86964632D01*
X111347715Y-87043273D01*
X111512459Y-87096802D01*
X111683549Y-87123900D01*
X111683550Y-87123900D01*
X111856770Y-87123900D01*
X111856771Y-87123900D01*
X112027861Y-87096802D01*
X112192605Y-87043273D01*
X112346948Y-86964632D01*
X112487088Y-86862814D01*
X112609574Y-86740328D01*
X112711392Y-86600188D01*
X112790033Y-86445845D01*
X112843562Y-86281101D01*
X112870660Y-86110011D01*
X112870660Y-85136789D01*
X112843562Y-84965699D01*
X112790033Y-84800955D01*
X112711392Y-84646612D01*
X112609574Y-84506472D01*
X112487088Y-84383986D01*
X112411213Y-84328859D01*
X112368548Y-84273529D01*
X112360100Y-84228542D01*
X112360100Y-81437626D01*
X112379785Y-81370587D01*
X112412974Y-81336054D01*
X112606001Y-81200895D01*
X112773095Y-81033801D01*
X112903025Y-80848242D01*
X112957602Y-80804617D01*
X113027100Y-80797423D01*
X113089455Y-80828946D01*
X113106175Y-80848242D01*
X113236100Y-81033795D01*
X113236105Y-81033801D01*
X113403199Y-81200895D01*
X113596770Y-81336435D01*
X113613066Y-81344033D01*
X113665504Y-81390204D01*
X113684660Y-81456415D01*
X113684660Y-84254378D01*
X113664975Y-84321417D01*
X113633547Y-84354695D01*
X113593232Y-84383985D01*
X113470748Y-84506469D01*
X113470748Y-84506470D01*
X113470746Y-84506472D01*
X113427019Y-84566656D01*
X113368928Y-84646611D01*
X113290288Y-84800952D01*
X113236757Y-84965702D01*
X113209660Y-85136789D01*
X113209660Y-86110010D01*
X113234603Y-86267500D01*
X113236758Y-86281101D01*
X113290287Y-86445845D01*
X113368928Y-86600188D01*
X113470746Y-86740328D01*
X113593232Y-86862814D01*
X113733372Y-86964632D01*
X113887715Y-87043273D01*
X114052459Y-87096802D01*
X114223549Y-87123900D01*
X114223550Y-87123900D01*
X114396770Y-87123900D01*
X114396771Y-87123900D01*
X114567861Y-87096802D01*
X114732605Y-87043273D01*
X114886948Y-86964632D01*
X115027088Y-86862814D01*
X115149574Y-86740328D01*
X115251392Y-86600188D01*
X115330033Y-86445845D01*
X115383562Y-86281101D01*
X115410660Y-86110011D01*
X115410660Y-85136789D01*
X115383562Y-84965699D01*
X115330033Y-84800955D01*
X115251392Y-84646612D01*
X115149574Y-84506472D01*
X115027088Y-84383986D01*
X114996111Y-84361480D01*
X114986773Y-84354695D01*
X114944108Y-84299365D01*
X114935660Y-84254378D01*
X114935660Y-81412727D01*
X114955345Y-81345688D01*
X114988535Y-81311153D01*
X115146001Y-81200895D01*
X115313095Y-81033801D01*
X115443025Y-80848242D01*
X115497602Y-80804617D01*
X115567100Y-80797423D01*
X115629455Y-80828946D01*
X115646175Y-80848242D01*
X115776100Y-81033795D01*
X115776105Y-81033801D01*
X115943199Y-81200895D01*
X116136224Y-81336053D01*
X116179848Y-81390628D01*
X116189100Y-81437626D01*
X116189100Y-84280214D01*
X116169415Y-84347253D01*
X116137991Y-84380528D01*
X116133235Y-84383983D01*
X116133229Y-84383988D01*
X116010748Y-84506469D01*
X116010748Y-84506470D01*
X116010746Y-84506472D01*
X115967019Y-84566656D01*
X115908928Y-84646611D01*
X115830288Y-84800952D01*
X115776757Y-84965702D01*
X115749660Y-85136789D01*
X115749660Y-86110010D01*
X115774603Y-86267500D01*
X115776758Y-86281101D01*
X115830287Y-86445845D01*
X115908928Y-86600188D01*
X116010746Y-86740328D01*
X116133232Y-86862814D01*
X116273372Y-86964632D01*
X116427715Y-87043273D01*
X116592459Y-87096802D01*
X116763549Y-87123900D01*
X116763550Y-87123900D01*
X116936770Y-87123900D01*
X116936771Y-87123900D01*
X117107861Y-87096802D01*
X117272605Y-87043273D01*
X117426948Y-86964632D01*
X117567088Y-86862814D01*
X117689574Y-86740328D01*
X117791392Y-86600188D01*
X117870033Y-86445845D01*
X117923562Y-86281101D01*
X117950660Y-86110011D01*
X117950660Y-85136789D01*
X117923562Y-84965699D01*
X117870033Y-84800955D01*
X117791392Y-84646612D01*
X117689574Y-84506472D01*
X117567088Y-84383986D01*
X117491213Y-84328859D01*
X117448548Y-84273529D01*
X117440100Y-84228542D01*
X117440100Y-81437626D01*
X117459785Y-81370587D01*
X117492974Y-81336054D01*
X117686001Y-81200895D01*
X117853095Y-81033801D01*
X117983025Y-80848242D01*
X118037602Y-80804617D01*
X118107100Y-80797423D01*
X118169455Y-80828946D01*
X118186175Y-80848242D01*
X118316100Y-81033795D01*
X118316105Y-81033801D01*
X118483199Y-81200895D01*
X118676770Y-81336435D01*
X118693066Y-81344033D01*
X118745504Y-81390204D01*
X118764660Y-81456415D01*
X118764660Y-84254378D01*
X118744975Y-84321417D01*
X118713547Y-84354695D01*
X118673232Y-84383985D01*
X118550748Y-84506469D01*
X118550748Y-84506470D01*
X118550746Y-84506472D01*
X118507019Y-84566656D01*
X118448928Y-84646611D01*
X118370288Y-84800952D01*
X118316757Y-84965702D01*
X118289660Y-85136789D01*
X118289660Y-86110010D01*
X118314603Y-86267500D01*
X118316758Y-86281101D01*
X118370287Y-86445845D01*
X118448928Y-86600188D01*
X118550746Y-86740328D01*
X118673232Y-86862814D01*
X118813372Y-86964632D01*
X118967715Y-87043273D01*
X119132459Y-87096802D01*
X119303549Y-87123900D01*
X119303550Y-87123900D01*
X119476770Y-87123900D01*
X119476771Y-87123900D01*
X119647861Y-87096802D01*
X119812605Y-87043273D01*
X119966948Y-86964632D01*
X120107088Y-86862814D01*
X120229574Y-86740328D01*
X120331392Y-86600188D01*
X120410033Y-86445845D01*
X120463562Y-86281101D01*
X120490660Y-86110011D01*
X120490660Y-85136789D01*
X120463562Y-84965699D01*
X120410033Y-84800955D01*
X120331392Y-84646612D01*
X120229574Y-84506472D01*
X120107088Y-84383986D01*
X120076111Y-84361480D01*
X120066773Y-84354695D01*
X120024108Y-84299365D01*
X120015660Y-84254378D01*
X120015660Y-81412727D01*
X120035345Y-81345688D01*
X120068535Y-81311153D01*
X120226001Y-81200895D01*
X120393095Y-81033801D01*
X120523025Y-80848242D01*
X120577602Y-80804617D01*
X120647100Y-80797423D01*
X120709455Y-80828946D01*
X120726175Y-80848242D01*
X120856100Y-81033795D01*
X120856105Y-81033801D01*
X121023199Y-81200895D01*
X121216224Y-81336053D01*
X121259848Y-81390628D01*
X121269100Y-81437626D01*
X121269100Y-84280214D01*
X121249415Y-84347253D01*
X121217991Y-84380528D01*
X121213235Y-84383983D01*
X121213229Y-84383988D01*
X121090748Y-84506469D01*
X121090748Y-84506470D01*
X121090746Y-84506472D01*
X121047019Y-84566656D01*
X120988928Y-84646611D01*
X120910288Y-84800952D01*
X120856757Y-84965702D01*
X120829660Y-85136789D01*
X120829660Y-86110010D01*
X120854603Y-86267500D01*
X120856758Y-86281101D01*
X120910287Y-86445845D01*
X120988928Y-86600188D01*
X121090746Y-86740328D01*
X121213232Y-86862814D01*
X121353372Y-86964632D01*
X121507715Y-87043273D01*
X121672459Y-87096802D01*
X121843549Y-87123900D01*
X121843550Y-87123900D01*
X122016770Y-87123900D01*
X122016771Y-87123900D01*
X122187861Y-87096802D01*
X122352605Y-87043273D01*
X122506948Y-86964632D01*
X122647088Y-86862814D01*
X122769574Y-86740328D01*
X122871392Y-86600188D01*
X122950033Y-86445845D01*
X123003562Y-86281101D01*
X123030660Y-86110011D01*
X123030660Y-85136789D01*
X123003562Y-84965699D01*
X122950033Y-84800955D01*
X122871392Y-84646612D01*
X122769574Y-84506472D01*
X122647088Y-84383986D01*
X122571213Y-84328859D01*
X122528548Y-84273529D01*
X122520100Y-84228542D01*
X122520100Y-81437626D01*
X122539785Y-81370587D01*
X122572974Y-81336054D01*
X122766001Y-81200895D01*
X122933095Y-81033801D01*
X123063025Y-80848242D01*
X123117602Y-80804617D01*
X123187100Y-80797423D01*
X123249455Y-80828946D01*
X123266175Y-80848242D01*
X123396100Y-81033795D01*
X123396105Y-81033801D01*
X123563199Y-81200895D01*
X123756770Y-81336435D01*
X123773066Y-81344033D01*
X123825504Y-81390204D01*
X123844660Y-81456415D01*
X123844660Y-84254378D01*
X123824975Y-84321417D01*
X123793547Y-84354695D01*
X123753232Y-84383985D01*
X123630748Y-84506469D01*
X123630748Y-84506470D01*
X123630746Y-84506472D01*
X123587019Y-84566656D01*
X123528928Y-84646611D01*
X123450288Y-84800952D01*
X123396757Y-84965702D01*
X123369660Y-85136789D01*
X123369660Y-86110010D01*
X123394603Y-86267500D01*
X123396758Y-86281101D01*
X123450287Y-86445845D01*
X123528928Y-86600188D01*
X123630746Y-86740328D01*
X123753232Y-86862814D01*
X123893372Y-86964632D01*
X124047715Y-87043273D01*
X124212459Y-87096802D01*
X124383549Y-87123900D01*
X124383550Y-87123900D01*
X124556770Y-87123900D01*
X124556771Y-87123900D01*
X124727861Y-87096802D01*
X124892605Y-87043273D01*
X125046948Y-86964632D01*
X125187088Y-86862814D01*
X125309574Y-86740328D01*
X125411392Y-86600188D01*
X125490033Y-86445845D01*
X125543562Y-86281101D01*
X125570660Y-86110011D01*
X125570660Y-85136789D01*
X125543562Y-84965699D01*
X125490033Y-84800955D01*
X125411392Y-84646612D01*
X125309574Y-84506472D01*
X125187088Y-84383986D01*
X125156111Y-84361480D01*
X125146773Y-84354695D01*
X125104108Y-84299365D01*
X125095660Y-84254378D01*
X125095660Y-81412727D01*
X125115345Y-81345688D01*
X125148535Y-81311153D01*
X125306001Y-81200895D01*
X125473095Y-81033801D01*
X125603025Y-80848242D01*
X125657602Y-80804617D01*
X125727100Y-80797423D01*
X125789455Y-80828946D01*
X125806175Y-80848242D01*
X125936100Y-81033795D01*
X125936105Y-81033801D01*
X126103199Y-81200895D01*
X126296224Y-81336053D01*
X126339848Y-81390628D01*
X126349100Y-81437626D01*
X126349100Y-84281918D01*
X126329415Y-84348957D01*
X126297988Y-84382234D01*
X126290515Y-84387663D01*
X126290509Y-84387668D01*
X126168028Y-84510149D01*
X126168028Y-84510150D01*
X126168026Y-84510152D01*
X126150915Y-84533703D01*
X126066208Y-84650291D01*
X125987568Y-84804632D01*
X125934037Y-84969382D01*
X125906940Y-85140469D01*
X125906940Y-86113690D01*
X125933454Y-86281097D01*
X125934038Y-86284781D01*
X125987567Y-86449525D01*
X126066208Y-86603868D01*
X126168026Y-86744008D01*
X126290512Y-86866494D01*
X126430652Y-86968312D01*
X126584995Y-87046953D01*
X126749739Y-87100482D01*
X126920829Y-87127580D01*
X126920830Y-87127580D01*
X127094050Y-87127580D01*
X127094051Y-87127580D01*
X127265141Y-87100482D01*
X127429885Y-87046953D01*
X127584228Y-86968312D01*
X127724368Y-86866494D01*
X127846854Y-86744008D01*
X127948672Y-86603868D01*
X128027313Y-86449525D01*
X128080842Y-86284781D01*
X128107940Y-86113691D01*
X128107940Y-85140469D01*
X128080842Y-84969379D01*
X128027313Y-84804635D01*
X127948672Y-84650292D01*
X127846854Y-84510152D01*
X127724368Y-84387666D01*
X127716892Y-84382234D01*
X127651214Y-84334515D01*
X127608548Y-84279185D01*
X127600100Y-84234198D01*
X127600100Y-81437626D01*
X127619785Y-81370587D01*
X127652974Y-81336054D01*
X127846001Y-81200895D01*
X128013095Y-81033801D01*
X128143025Y-80848242D01*
X128197602Y-80804617D01*
X128267100Y-80797423D01*
X128329455Y-80828946D01*
X128346175Y-80848242D01*
X128476100Y-81033795D01*
X128476105Y-81033801D01*
X128643199Y-81200895D01*
X128836770Y-81336435D01*
X128850343Y-81342764D01*
X128902782Y-81388932D01*
X128921940Y-81455146D01*
X128921940Y-84258058D01*
X128902255Y-84325097D01*
X128870827Y-84358375D01*
X128830512Y-84387665D01*
X128708028Y-84510149D01*
X128708028Y-84510150D01*
X128708026Y-84510152D01*
X128690915Y-84533703D01*
X128606208Y-84650291D01*
X128527568Y-84804632D01*
X128474037Y-84969382D01*
X128446940Y-85140469D01*
X128446940Y-86113690D01*
X128473454Y-86281097D01*
X128474038Y-86284781D01*
X128527567Y-86449525D01*
X128606208Y-86603868D01*
X128708026Y-86744008D01*
X128830512Y-86866494D01*
X128970652Y-86968312D01*
X129124995Y-87046953D01*
X129289739Y-87100482D01*
X129460829Y-87127580D01*
X129460830Y-87127580D01*
X129634050Y-87127580D01*
X129634051Y-87127580D01*
X129805141Y-87100482D01*
X129969885Y-87046953D01*
X130124228Y-86968312D01*
X130264368Y-86866494D01*
X130386854Y-86744008D01*
X130488672Y-86603868D01*
X130567313Y-86449525D01*
X130620842Y-86284781D01*
X130647940Y-86113691D01*
X130647940Y-85140469D01*
X130620842Y-84969379D01*
X130567313Y-84804635D01*
X130488672Y-84650292D01*
X130386854Y-84510152D01*
X130264368Y-84387666D01*
X130259827Y-84384367D01*
X130224053Y-84358375D01*
X130181388Y-84303045D01*
X130172940Y-84258058D01*
X130172940Y-81414631D01*
X130192625Y-81347592D01*
X130225813Y-81313059D01*
X130386001Y-81200895D01*
X130553095Y-81033801D01*
X130688635Y-80840230D01*
X130788503Y-80626063D01*
X130849663Y-80397808D01*
X130870259Y-80162400D01*
X130849663Y-79926992D01*
X130788503Y-79698737D01*
X130688635Y-79484571D01*
X130683331Y-79476995D01*
X130553094Y-79290997D01*
X130386002Y-79123906D01*
X130385995Y-79123901D01*
X130379825Y-79119581D01*
X130309454Y-79070306D01*
X130192434Y-78988367D01*
X130192430Y-78988365D01*
X130121327Y-78955209D01*
X129978263Y-78888497D01*
X129978259Y-78888496D01*
X129978255Y-78888494D01*
X129750013Y-78827338D01*
X129750003Y-78827336D01*
X129514601Y-78806741D01*
X129514599Y-78806741D01*
X129279196Y-78827336D01*
X129279186Y-78827338D01*
X129050944Y-78888494D01*
X129050935Y-78888498D01*
X128836771Y-78988364D01*
X128836769Y-78988365D01*
X128643197Y-79123905D01*
X128476105Y-79290997D01*
X128346175Y-79476558D01*
X128291598Y-79520183D01*
X128222100Y-79527377D01*
X128159745Y-79495854D01*
X128143025Y-79476558D01*
X128013094Y-79290997D01*
X127846002Y-79123906D01*
X127845995Y-79123901D01*
X127839825Y-79119581D01*
X127769454Y-79070306D01*
X127652434Y-78988367D01*
X127652430Y-78988365D01*
X127581327Y-78955209D01*
X127438263Y-78888497D01*
X127438259Y-78888496D01*
X127438255Y-78888494D01*
X127210013Y-78827338D01*
X127210003Y-78827336D01*
X126974601Y-78806741D01*
X126974599Y-78806741D01*
X126739196Y-78827336D01*
X126739186Y-78827338D01*
X126510944Y-78888494D01*
X126510935Y-78888498D01*
X126296771Y-78988364D01*
X126296769Y-78988365D01*
X126103197Y-79123905D01*
X125936105Y-79290997D01*
X125806175Y-79476558D01*
X125751598Y-79520183D01*
X125682100Y-79527377D01*
X125619745Y-79495854D01*
X125603025Y-79476558D01*
X125473094Y-79290997D01*
X125306002Y-79123906D01*
X125305995Y-79123901D01*
X125299825Y-79119581D01*
X125229454Y-79070306D01*
X125112434Y-78988367D01*
X125112430Y-78988365D01*
X125041327Y-78955209D01*
X124898263Y-78888497D01*
X124898259Y-78888496D01*
X124898255Y-78888494D01*
X124670013Y-78827338D01*
X124670003Y-78827336D01*
X124434601Y-78806741D01*
X124434599Y-78806741D01*
X124199196Y-78827336D01*
X124199186Y-78827338D01*
X123970944Y-78888494D01*
X123970935Y-78888498D01*
X123756771Y-78988364D01*
X123756769Y-78988365D01*
X123563197Y-79123905D01*
X123396105Y-79290997D01*
X123266175Y-79476558D01*
X123211598Y-79520183D01*
X123142100Y-79527377D01*
X123079745Y-79495854D01*
X123063025Y-79476558D01*
X122933094Y-79290997D01*
X122766002Y-79123906D01*
X122765995Y-79123901D01*
X122759825Y-79119581D01*
X122689454Y-79070306D01*
X122572434Y-78988367D01*
X122572430Y-78988365D01*
X122501327Y-78955209D01*
X122358263Y-78888497D01*
X122358259Y-78888496D01*
X122358255Y-78888494D01*
X122130013Y-78827338D01*
X122130003Y-78827336D01*
X121894601Y-78806741D01*
X121894599Y-78806741D01*
X121659196Y-78827336D01*
X121659186Y-78827338D01*
X121430944Y-78888494D01*
X121430935Y-78888498D01*
X121216771Y-78988364D01*
X121216769Y-78988365D01*
X121023197Y-79123905D01*
X120856105Y-79290997D01*
X120726175Y-79476558D01*
X120671598Y-79520183D01*
X120602100Y-79527377D01*
X120539745Y-79495854D01*
X120523025Y-79476558D01*
X120393094Y-79290997D01*
X120226002Y-79123906D01*
X120225995Y-79123901D01*
X120219825Y-79119581D01*
X120149454Y-79070306D01*
X120032434Y-78988367D01*
X120032430Y-78988365D01*
X119961327Y-78955209D01*
X119818263Y-78888497D01*
X119818259Y-78888496D01*
X119818255Y-78888494D01*
X119590013Y-78827338D01*
X119590003Y-78827336D01*
X119354601Y-78806741D01*
X119354599Y-78806741D01*
X119119196Y-78827336D01*
X119119186Y-78827338D01*
X118890944Y-78888494D01*
X118890935Y-78888498D01*
X118676771Y-78988364D01*
X118676769Y-78988365D01*
X118483197Y-79123905D01*
X118316105Y-79290997D01*
X118186175Y-79476558D01*
X118131598Y-79520183D01*
X118062100Y-79527377D01*
X117999745Y-79495854D01*
X117983025Y-79476558D01*
X117853094Y-79290997D01*
X117686002Y-79123906D01*
X117685995Y-79123901D01*
X117679825Y-79119581D01*
X117609454Y-79070306D01*
X117492434Y-78988367D01*
X117492430Y-78988365D01*
X117421327Y-78955209D01*
X117278263Y-78888497D01*
X117278259Y-78888496D01*
X117278255Y-78888494D01*
X117050013Y-78827338D01*
X117050003Y-78827336D01*
X116814601Y-78806741D01*
X116814599Y-78806741D01*
X116579196Y-78827336D01*
X116579186Y-78827338D01*
X116350944Y-78888494D01*
X116350935Y-78888498D01*
X116136771Y-78988364D01*
X116136769Y-78988365D01*
X115943197Y-79123905D01*
X115776105Y-79290997D01*
X115646175Y-79476558D01*
X115591598Y-79520183D01*
X115522100Y-79527377D01*
X115459745Y-79495854D01*
X115443025Y-79476558D01*
X115313094Y-79290997D01*
X115146002Y-79123906D01*
X115145995Y-79123901D01*
X115139825Y-79119581D01*
X115069454Y-79070306D01*
X114952434Y-78988367D01*
X114952430Y-78988365D01*
X114881327Y-78955209D01*
X114738263Y-78888497D01*
X114738259Y-78888496D01*
X114738255Y-78888494D01*
X114510013Y-78827338D01*
X114510003Y-78827336D01*
X114274601Y-78806741D01*
X114274599Y-78806741D01*
X114039196Y-78827336D01*
X114039186Y-78827338D01*
X113810944Y-78888494D01*
X113810935Y-78888498D01*
X113596771Y-78988364D01*
X113596769Y-78988365D01*
X113403197Y-79123905D01*
X113236105Y-79290997D01*
X113106175Y-79476558D01*
X113051598Y-79520183D01*
X112982100Y-79527377D01*
X112919745Y-79495854D01*
X112903025Y-79476558D01*
X112773094Y-79290997D01*
X112606002Y-79123906D01*
X112605995Y-79123901D01*
X112599825Y-79119581D01*
X112529454Y-79070306D01*
X112412434Y-78988367D01*
X112412430Y-78988365D01*
X112341327Y-78955209D01*
X112198263Y-78888497D01*
X112198259Y-78888496D01*
X112198255Y-78888494D01*
X111970013Y-78827338D01*
X111970003Y-78827336D01*
X111734601Y-78806741D01*
X111734599Y-78806741D01*
X111499196Y-78827336D01*
X111499186Y-78827338D01*
X111270944Y-78888494D01*
X111270935Y-78888498D01*
X111056771Y-78988364D01*
X111056769Y-78988365D01*
X110863197Y-79123905D01*
X110696105Y-79290997D01*
X110566175Y-79476558D01*
X110511598Y-79520183D01*
X110442100Y-79527377D01*
X110379745Y-79495854D01*
X110363025Y-79476558D01*
X110233094Y-79290997D01*
X110066002Y-79123906D01*
X110065995Y-79123901D01*
X110059825Y-79119581D01*
X109989454Y-79070306D01*
X109872434Y-78988367D01*
X109872430Y-78988365D01*
X109801327Y-78955209D01*
X109658263Y-78888497D01*
X109658259Y-78888496D01*
X109658255Y-78888494D01*
X109430013Y-78827338D01*
X109430003Y-78827336D01*
X109194601Y-78806741D01*
X109194599Y-78806741D01*
X108959196Y-78827336D01*
X108959186Y-78827338D01*
X108730944Y-78888494D01*
X108730935Y-78888498D01*
X108516771Y-78988364D01*
X108516769Y-78988365D01*
X108323197Y-79123905D01*
X108156105Y-79290997D01*
X108026175Y-79476558D01*
X107971598Y-79520183D01*
X107902100Y-79527377D01*
X107839745Y-79495854D01*
X107823025Y-79476558D01*
X107693094Y-79290997D01*
X107526002Y-79123906D01*
X107525995Y-79123901D01*
X107519825Y-79119581D01*
X107449454Y-79070306D01*
X107332434Y-78988367D01*
X107332430Y-78988365D01*
X107261327Y-78955209D01*
X107118263Y-78888497D01*
X107118259Y-78888496D01*
X107118255Y-78888494D01*
X106890013Y-78827338D01*
X106890003Y-78827336D01*
X106654601Y-78806741D01*
X106654599Y-78806741D01*
X106419196Y-78827336D01*
X106419186Y-78827338D01*
X106190944Y-78888494D01*
X106190935Y-78888498D01*
X105976771Y-78988364D01*
X105976769Y-78988365D01*
X105783197Y-79123905D01*
X105616105Y-79290997D01*
X105486175Y-79476558D01*
X105431598Y-79520183D01*
X105362100Y-79527377D01*
X105299745Y-79495854D01*
X105283025Y-79476558D01*
X105153094Y-79290997D01*
X104986002Y-79123906D01*
X104985995Y-79123901D01*
X104979825Y-79119581D01*
X104909454Y-79070306D01*
X104792434Y-78988367D01*
X104792430Y-78988365D01*
X104721327Y-78955209D01*
X104578263Y-78888497D01*
X104578259Y-78888496D01*
X104578255Y-78888494D01*
X104350013Y-78827338D01*
X104350003Y-78827336D01*
X104114601Y-78806741D01*
X104114599Y-78806741D01*
X103879196Y-78827336D01*
X103879186Y-78827338D01*
X103650944Y-78888494D01*
X103650935Y-78888498D01*
X103436771Y-78988364D01*
X103436769Y-78988365D01*
X103243197Y-79123905D01*
X103076105Y-79290997D01*
X102946175Y-79476558D01*
X102891598Y-79520183D01*
X102822100Y-79527377D01*
X102759745Y-79495854D01*
X102743025Y-79476558D01*
X102613094Y-79290997D01*
X102446002Y-79123906D01*
X102445995Y-79123901D01*
X102439825Y-79119581D01*
X102369454Y-79070306D01*
X102252434Y-78988367D01*
X102252430Y-78988365D01*
X102181327Y-78955209D01*
X102038263Y-78888497D01*
X102038259Y-78888496D01*
X102038255Y-78888494D01*
X101810013Y-78827338D01*
X101810003Y-78827336D01*
X101574601Y-78806741D01*
X101574599Y-78806741D01*
X101339196Y-78827336D01*
X101339186Y-78827338D01*
X101110944Y-78888494D01*
X101110935Y-78888498D01*
X100896771Y-78988364D01*
X100896769Y-78988365D01*
X100703197Y-79123905D01*
X100536108Y-79290994D01*
X100405869Y-79476995D01*
X100351292Y-79520619D01*
X100281793Y-79527812D01*
X100219439Y-79496290D01*
X100202719Y-79476994D01*
X100072713Y-79291326D01*
X100072708Y-79291320D01*
X99905682Y-79124294D01*
X99712178Y-78988799D01*
X99498092Y-78888970D01*
X99498086Y-78888967D01*
X99284600Y-78831764D01*
X99284600Y-79729388D01*
X99227593Y-79696475D01*
X99100426Y-79662400D01*
X98968774Y-79662400D01*
X98841607Y-79696475D01*
X98784600Y-79729388D01*
X98784600Y-78831764D01*
X98784599Y-78831764D01*
X98571113Y-78888967D01*
X98571107Y-78888970D01*
X98357022Y-78988799D01*
X98357020Y-78988800D01*
X98163526Y-79124286D01*
X98163520Y-79124291D01*
X97996491Y-79291320D01*
X97996490Y-79291322D01*
X97866480Y-79476995D01*
X97811903Y-79520619D01*
X97742404Y-79527812D01*
X97680050Y-79496290D01*
X97663330Y-79476994D01*
X97533094Y-79290997D01*
X97366002Y-79123906D01*
X97365995Y-79123901D01*
X97359825Y-79119581D01*
X97289454Y-79070306D01*
X97172434Y-78988367D01*
X97172430Y-78988365D01*
X97101327Y-78955209D01*
X96958263Y-78888497D01*
X96958259Y-78888496D01*
X96958255Y-78888494D01*
X96730013Y-78827338D01*
X96730003Y-78827336D01*
X96494601Y-78806741D01*
X96494599Y-78806741D01*
X96259196Y-78827336D01*
X96259186Y-78827338D01*
X96030944Y-78888494D01*
X96030935Y-78888498D01*
X95816771Y-78988364D01*
X95816769Y-78988365D01*
X95623197Y-79123905D01*
X95456105Y-79290997D01*
X95326175Y-79476558D01*
X95271598Y-79520183D01*
X95202100Y-79527377D01*
X95139745Y-79495854D01*
X95123025Y-79476558D01*
X94993094Y-79290997D01*
X94826002Y-79123906D01*
X94825995Y-79123901D01*
X94819825Y-79119581D01*
X94749454Y-79070306D01*
X94632434Y-78988367D01*
X94632430Y-78988365D01*
X94561327Y-78955209D01*
X94418263Y-78888497D01*
X94418259Y-78888496D01*
X94418255Y-78888494D01*
X94190013Y-78827338D01*
X94190003Y-78827336D01*
X93954601Y-78806741D01*
X93954599Y-78806741D01*
X93719196Y-78827336D01*
X93719186Y-78827338D01*
X93490944Y-78888494D01*
X93490935Y-78888498D01*
X93276771Y-78988364D01*
X93276769Y-78988365D01*
X93083197Y-79123905D01*
X92916105Y-79290997D01*
X92786175Y-79476558D01*
X92731598Y-79520183D01*
X92662100Y-79527377D01*
X92599745Y-79495854D01*
X92583025Y-79476558D01*
X92453094Y-79290997D01*
X92286002Y-79123906D01*
X92285995Y-79123901D01*
X92279825Y-79119581D01*
X92209454Y-79070306D01*
X92092434Y-78988367D01*
X92092430Y-78988365D01*
X92021327Y-78955209D01*
X91878263Y-78888497D01*
X91878259Y-78888496D01*
X91878255Y-78888494D01*
X91650013Y-78827338D01*
X91650003Y-78827336D01*
X91414601Y-78806741D01*
X91414599Y-78806741D01*
X91179196Y-78827336D01*
X91179186Y-78827338D01*
X90950944Y-78888494D01*
X90950935Y-78888498D01*
X90736771Y-78988364D01*
X90736769Y-78988365D01*
X90543197Y-79123905D01*
X90376105Y-79290997D01*
X90246175Y-79476558D01*
X90191598Y-79520183D01*
X90122100Y-79527377D01*
X90059745Y-79495854D01*
X90043025Y-79476558D01*
X89913094Y-79290997D01*
X89746002Y-79123906D01*
X89745995Y-79123901D01*
X89739825Y-79119581D01*
X89669454Y-79070306D01*
X89552434Y-78988367D01*
X89552430Y-78988365D01*
X89481327Y-78955209D01*
X89338263Y-78888497D01*
X89338259Y-78888496D01*
X89338255Y-78888494D01*
X89110013Y-78827338D01*
X89110003Y-78827336D01*
X88874601Y-78806741D01*
X88874599Y-78806741D01*
X88639196Y-78827336D01*
X88639186Y-78827338D01*
X88410944Y-78888494D01*
X88410935Y-78888498D01*
X88196771Y-78988364D01*
X88196769Y-78988365D01*
X88003197Y-79123905D01*
X87836105Y-79290997D01*
X87706175Y-79476558D01*
X87651598Y-79520183D01*
X87582100Y-79527377D01*
X87519745Y-79495854D01*
X87503025Y-79476558D01*
X87373094Y-79290997D01*
X87206002Y-79123906D01*
X87205995Y-79123901D01*
X87199825Y-79119581D01*
X87129454Y-79070306D01*
X87012434Y-78988367D01*
X87012430Y-78988365D01*
X86941327Y-78955209D01*
X86798263Y-78888497D01*
X86798259Y-78888496D01*
X86798255Y-78888494D01*
X86570013Y-78827338D01*
X86570003Y-78827336D01*
X86334601Y-78806741D01*
X86334599Y-78806741D01*
X86099196Y-78827336D01*
X86099186Y-78827338D01*
X85870944Y-78888494D01*
X85870935Y-78888498D01*
X85656771Y-78988364D01*
X85656769Y-78988365D01*
X85463200Y-79123903D01*
X85340884Y-79246219D01*
X85279561Y-79279703D01*
X85209869Y-79274719D01*
X85153936Y-79232847D01*
X85137021Y-79201870D01*
X85087954Y-79070313D01*
X85087950Y-79070306D01*
X85001790Y-78955212D01*
X85001787Y-78955209D01*
X84886693Y-78869049D01*
X84886686Y-78869045D01*
X84751979Y-78818803D01*
X84751972Y-78818801D01*
X84692444Y-78812400D01*
X84044600Y-78812400D01*
X84044600Y-79729388D01*
X83987593Y-79696475D01*
X83860426Y-79662400D01*
X83728774Y-79662400D01*
X83601607Y-79696475D01*
X83544600Y-79729388D01*
X83544600Y-78812400D01*
X82896755Y-78812400D01*
X82837227Y-78818801D01*
X82837220Y-78818803D01*
X82702513Y-78869045D01*
X82702506Y-78869049D01*
X82587412Y-78955209D01*
X82587409Y-78955212D01*
X82501249Y-79070306D01*
X82501245Y-79070313D01*
X82451003Y-79205020D01*
X82451001Y-79205027D01*
X82444600Y-79264555D01*
X82444600Y-79912400D01*
X83361588Y-79912400D01*
X83328675Y-79969407D01*
X83294600Y-80096574D01*
X83294600Y-80228226D01*
X83328675Y-80355393D01*
X83361588Y-80412400D01*
X82444600Y-80412400D01*
X82444600Y-81060244D01*
X79359826Y-81060244D01*
X79354598Y-81011627D01*
X79354596Y-81011620D01*
X79304354Y-80876913D01*
X79304350Y-80876906D01*
X79218190Y-80761812D01*
X79218187Y-80761809D01*
X79103093Y-80675649D01*
X79103086Y-80675645D01*
X78968379Y-80625403D01*
X78968372Y-80625401D01*
X78908844Y-80619000D01*
X78061000Y-80619000D01*
X78061000Y-81678252D01*
X78023292Y-81656482D01*
X77883409Y-81619000D01*
X77738591Y-81619000D01*
X77598708Y-81656482D01*
X77561000Y-81678252D01*
X77561000Y-80619000D01*
X76713155Y-80619000D01*
X76653627Y-80625401D01*
X76653620Y-80625403D01*
X76518913Y-80675645D01*
X76518906Y-80675649D01*
X76403812Y-80761809D01*
X76403809Y-80761812D01*
X76317649Y-80876906D01*
X76317645Y-80876913D01*
X76267403Y-81011620D01*
X76267401Y-81011627D01*
X76261000Y-81071155D01*
X76261000Y-81919000D01*
X77320252Y-81919000D01*
X77298482Y-81956708D01*
X77261000Y-82096591D01*
X77261000Y-82241409D01*
X77298482Y-82381292D01*
X77320252Y-82419000D01*
X76261000Y-82419000D01*
X76261000Y-83266844D01*
X73912395Y-83266844D01*
X74069259Y-83083179D01*
X74196777Y-82875089D01*
X74290172Y-82649612D01*
X74347146Y-82412302D01*
X74366294Y-82169000D01*
X74347146Y-81925698D01*
X74290172Y-81688388D01*
X74285588Y-81677320D01*
X74196777Y-81462910D01*
X74069262Y-81254826D01*
X74069261Y-81254823D01*
X74022869Y-81200505D01*
X73910759Y-81069241D01*
X73765220Y-80944939D01*
X73725176Y-80910738D01*
X73725173Y-80910737D01*
X73517089Y-80783222D01*
X73291618Y-80689830D01*
X73291621Y-80689830D01*
X73165968Y-80659663D01*
X73054302Y-80632854D01*
X73054300Y-80632853D01*
X73054297Y-80632853D01*
X72811000Y-80613706D01*
X72567702Y-80632853D01*
X72330380Y-80689830D01*
X72104910Y-80783222D01*
X71896826Y-80910737D01*
X71896823Y-80910738D01*
X71711241Y-81069241D01*
X71552738Y-81254823D01*
X71552737Y-81254826D01*
X71425222Y-81462910D01*
X71331830Y-81688380D01*
X71331828Y-81688387D01*
X71331828Y-81688388D01*
X71316562Y-81751975D01*
X71274853Y-81925702D01*
X71255706Y-82169000D01*
X60626500Y-82169000D01*
X60626500Y-81489499D01*
X60646185Y-81422460D01*
X60698989Y-81376705D01*
X60750500Y-81365499D01*
X60923871Y-81365499D01*
X60923872Y-81365499D01*
X60983483Y-81359091D01*
X61118331Y-81308796D01*
X61233546Y-81222546D01*
X61319796Y-81107331D01*
X61370091Y-80972483D01*
X61376500Y-80912873D01*
X61376499Y-79117128D01*
X61370091Y-79057517D01*
X61368810Y-79054083D01*
X61319797Y-78922671D01*
X61319793Y-78922664D01*
X61233547Y-78807455D01*
X61233544Y-78807452D01*
X61118335Y-78721206D01*
X61118326Y-78721201D01*
X61111571Y-78718682D01*
X61055637Y-78676812D01*
X61031219Y-78611347D01*
X61046070Y-78543074D01*
X61095475Y-78493668D01*
X61154903Y-78478500D01*
X131265000Y-78478500D01*
X131332039Y-78498185D01*
X131377794Y-78550989D01*
X131389000Y-78602500D01*
X131389000Y-117866500D01*
X131369315Y-117933539D01*
X131316511Y-117979294D01*
X131265000Y-117990500D01*
X46614434Y-117990500D01*
X46547395Y-117970815D01*
X46501640Y-117918011D01*
X46491696Y-117848853D01*
X46520721Y-117785297D01*
X46566981Y-117751939D01*
X46730623Y-117684156D01*
X46730622Y-117684156D01*
X46730628Y-117684154D01*
X46952140Y-117548412D01*
X47149689Y-117379689D01*
X47318412Y-117182140D01*
X47454154Y-116960628D01*
X47553573Y-116720610D01*
X47614221Y-116467994D01*
X47634604Y-116209000D01*
X47614221Y-115950006D01*
X47553573Y-115697390D01*
X47454154Y-115457372D01*
X47318412Y-115235860D01*
X47149689Y-115038311D01*
X46952140Y-114869588D01*
X46730628Y-114733846D01*
X46730627Y-114733845D01*
X46730623Y-114733843D01*
X46564627Y-114665086D01*
X46490610Y-114634427D01*
X46490611Y-114634427D01*
X46276031Y-114582911D01*
X46237994Y-114573779D01*
X46237992Y-114573778D01*
X46237991Y-114573778D01*
X45979000Y-114553396D01*
X45720009Y-114573778D01*
X45467389Y-114634427D01*
X45227376Y-114733843D01*
X45005859Y-114869588D01*
X44808311Y-115038311D01*
X44639588Y-115235859D01*
X44503843Y-115457376D01*
X44404427Y-115697389D01*
X44343778Y-115950009D01*
X44323396Y-116209000D01*
X44343778Y-116467990D01*
X44404427Y-116720610D01*
X44503843Y-116960623D01*
X44503845Y-116960627D01*
X44503846Y-116960628D01*
X44639588Y-117182140D01*
X44808311Y-117379689D01*
X45005860Y-117548412D01*
X45227372Y-117684154D01*
X45227374Y-117684154D01*
X45227376Y-117684156D01*
X45391019Y-117751939D01*
X45445422Y-117795780D01*
X45467487Y-117862074D01*
X45450208Y-117929773D01*
X45399071Y-117977384D01*
X45343566Y-117990500D01*
X37518000Y-117990500D01*
X37450961Y-117970815D01*
X37405206Y-117918011D01*
X37394000Y-117866500D01*
X37394000Y-114551934D01*
X40673500Y-114551934D01*
X40697062Y-114730897D01*
X40705591Y-114795677D01*
X40759692Y-114997585D01*
X40769222Y-115033152D01*
X40769225Y-115033162D01*
X40853186Y-115235860D01*
X40863306Y-115260292D01*
X40986233Y-115473208D01*
X40986235Y-115473211D01*
X40986236Y-115473212D01*
X41135897Y-115668254D01*
X41135903Y-115668261D01*
X41309738Y-115842096D01*
X41309744Y-115842101D01*
X41504792Y-115991767D01*
X41717708Y-116114694D01*
X41893384Y-116187461D01*
X41908626Y-116193775D01*
X41944847Y-116208778D01*
X42182323Y-116272409D01*
X42426073Y-116304500D01*
X42426080Y-116304500D01*
X42671920Y-116304500D01*
X42671927Y-116304500D01*
X42915677Y-116272409D01*
X43153153Y-116208778D01*
X43380292Y-116114694D01*
X43593208Y-115991767D01*
X43788256Y-115842101D01*
X43962101Y-115668256D01*
X44111767Y-115473208D01*
X44234694Y-115260292D01*
X44328778Y-115033153D01*
X44392409Y-114795677D01*
X44424500Y-114551927D01*
X44424500Y-114306073D01*
X44392409Y-114062323D01*
X44328778Y-113824847D01*
X44325446Y-113816804D01*
X44292019Y-113736102D01*
X44234694Y-113597708D01*
X44111767Y-113384792D01*
X43962101Y-113189744D01*
X43962096Y-113189738D01*
X43788261Y-113015903D01*
X43788254Y-113015897D01*
X43593212Y-112866236D01*
X43593211Y-112866235D01*
X43593208Y-112866233D01*
X43385904Y-112746546D01*
X43380294Y-112743307D01*
X43380285Y-112743303D01*
X43153162Y-112649225D01*
X43153155Y-112649223D01*
X43153153Y-112649222D01*
X42915677Y-112585591D01*
X42874939Y-112580227D01*
X42671934Y-112553500D01*
X42671927Y-112553500D01*
X42426073Y-112553500D01*
X42426065Y-112553500D01*
X42194059Y-112584045D01*
X42182323Y-112585591D01*
X42011629Y-112631328D01*
X41944847Y-112649222D01*
X41944837Y-112649225D01*
X41717714Y-112743303D01*
X41717705Y-112743307D01*
X41504787Y-112866236D01*
X41309745Y-113015897D01*
X41309738Y-113015903D01*
X41135903Y-113189738D01*
X41135897Y-113189745D01*
X40986236Y-113384787D01*
X40863307Y-113597705D01*
X40863303Y-113597714D01*
X40769225Y-113824837D01*
X40769222Y-113824847D01*
X40705592Y-114062320D01*
X40705590Y-114062331D01*
X40673500Y-114306065D01*
X40673500Y-114551934D01*
X37394000Y-114551934D01*
X37394000Y-101851934D01*
X40673500Y-101851934D01*
X40696401Y-102025877D01*
X40705591Y-102095677D01*
X40754832Y-102279449D01*
X40769222Y-102333152D01*
X40769225Y-102333162D01*
X40827677Y-102474277D01*
X40863306Y-102560292D01*
X40986233Y-102773208D01*
X40986235Y-102773211D01*
X40986236Y-102773212D01*
X41135897Y-102968254D01*
X41135903Y-102968261D01*
X41309738Y-103142096D01*
X41309744Y-103142101D01*
X41504792Y-103291767D01*
X41717708Y-103414694D01*
X41944847Y-103508778D01*
X42182323Y-103572409D01*
X42426073Y-103604500D01*
X42426080Y-103604500D01*
X42671920Y-103604500D01*
X42671927Y-103604500D01*
X42915677Y-103572409D01*
X43153153Y-103508778D01*
X43380292Y-103414694D01*
X43593208Y-103291767D01*
X43788256Y-103142101D01*
X43962101Y-102968256D01*
X44111767Y-102773208D01*
X44234694Y-102560292D01*
X44328778Y-102333153D01*
X44392409Y-102095677D01*
X44424500Y-101851927D01*
X44424500Y-101606073D01*
X44424306Y-101604603D01*
X44413638Y-101523572D01*
X44392409Y-101362323D01*
X44328778Y-101124847D01*
X44326641Y-101119689D01*
X44258227Y-100954522D01*
X44234694Y-100897708D01*
X44111767Y-100684792D01*
X43977590Y-100509930D01*
X43962102Y-100489745D01*
X43962096Y-100489738D01*
X43788261Y-100315903D01*
X43788254Y-100315897D01*
X43593212Y-100166236D01*
X43593211Y-100166235D01*
X43593208Y-100166233D01*
X43380292Y-100043306D01*
X43370925Y-100039426D01*
X43153162Y-99949225D01*
X43153155Y-99949223D01*
X43153153Y-99949222D01*
X42915677Y-99885591D01*
X42874939Y-99880227D01*
X42671934Y-99853500D01*
X42671927Y-99853500D01*
X42426073Y-99853500D01*
X42426065Y-99853500D01*
X42194059Y-99884045D01*
X42182323Y-99885591D01*
X41963395Y-99944252D01*
X41944847Y-99949222D01*
X41944837Y-99949225D01*
X41717714Y-100043303D01*
X41717705Y-100043307D01*
X41533313Y-100149766D01*
X41517026Y-100159170D01*
X41504787Y-100166236D01*
X41309745Y-100315897D01*
X41309738Y-100315903D01*
X41135903Y-100489738D01*
X41135897Y-100489745D01*
X40986236Y-100684787D01*
X40863307Y-100897705D01*
X40863303Y-100897714D01*
X40769225Y-101124837D01*
X40769222Y-101124847D01*
X40743994Y-101219002D01*
X40705592Y-101362320D01*
X40705590Y-101362331D01*
X40673500Y-101606065D01*
X40673500Y-101851934D01*
X37394000Y-101851934D01*
X37394000Y-94866934D01*
X40673500Y-94866934D01*
X40697450Y-95048843D01*
X40705591Y-95110677D01*
X40743994Y-95254000D01*
X40769222Y-95348152D01*
X40769225Y-95348162D01*
X40853186Y-95550860D01*
X40863306Y-95575292D01*
X40986233Y-95788208D01*
X40986235Y-95788211D01*
X40986236Y-95788212D01*
X41135897Y-95983254D01*
X41135903Y-95983261D01*
X41309738Y-96157096D01*
X41309745Y-96157102D01*
X41424335Y-96245030D01*
X41504792Y-96306767D01*
X41717708Y-96429694D01*
X41944847Y-96523778D01*
X42182323Y-96587409D01*
X42426073Y-96619500D01*
X42426080Y-96619500D01*
X42671920Y-96619500D01*
X42671927Y-96619500D01*
X42915677Y-96587409D01*
X43153153Y-96523778D01*
X43380292Y-96429694D01*
X43593208Y-96306767D01*
X43788256Y-96157101D01*
X43962101Y-95983256D01*
X44111767Y-95788208D01*
X44234694Y-95575292D01*
X44328778Y-95348153D01*
X44392409Y-95110677D01*
X44424500Y-94866927D01*
X44424500Y-94621073D01*
X44392409Y-94377323D01*
X44328778Y-94139847D01*
X44234694Y-93912708D01*
X44111767Y-93699792D01*
X43962101Y-93504744D01*
X43962096Y-93504738D01*
X43788261Y-93330903D01*
X43788254Y-93330897D01*
X43593212Y-93181236D01*
X43593211Y-93181235D01*
X43593208Y-93181233D01*
X43385904Y-93061546D01*
X43380294Y-93058307D01*
X43380285Y-93058303D01*
X43153162Y-92964225D01*
X43153155Y-92964223D01*
X43153153Y-92964222D01*
X42915677Y-92900591D01*
X42874939Y-92895227D01*
X42671934Y-92868500D01*
X42671927Y-92868500D01*
X42426073Y-92868500D01*
X42426065Y-92868500D01*
X42194059Y-92899045D01*
X42182323Y-92900591D01*
X42011629Y-92946328D01*
X41944847Y-92964222D01*
X41944837Y-92964225D01*
X41717714Y-93058303D01*
X41717705Y-93058307D01*
X41504787Y-93181236D01*
X41309745Y-93330897D01*
X41309738Y-93330903D01*
X41135903Y-93504738D01*
X41135897Y-93504745D01*
X40986236Y-93699787D01*
X40863307Y-93912705D01*
X40863303Y-93912714D01*
X40769225Y-94139837D01*
X40769222Y-94139847D01*
X40705592Y-94377320D01*
X40705590Y-94377331D01*
X40673500Y-94621065D01*
X40673500Y-94866934D01*
X37394000Y-94866934D01*
X37394000Y-78602500D01*
X37413685Y-78535461D01*
X37466489Y-78489706D01*
X37518000Y-78478500D01*
X45353223Y-78478500D01*
X45420262Y-78498185D01*
G37*
%TD.AperFunction*%
%TA.AperFunction,Conductor*%
G36*
X56080299Y-79995185D02*
G01*
X56126054Y-80047989D01*
X56136788Y-80088692D01*
X56150936Y-80250403D01*
X56150938Y-80250413D01*
X56212094Y-80478655D01*
X56212096Y-80478659D01*
X56212097Y-80478663D01*
X56303953Y-80675649D01*
X56311965Y-80692830D01*
X56311967Y-80692834D01*
X56415176Y-80840230D01*
X56447505Y-80886401D01*
X56614599Y-81053495D01*
X56709252Y-81119772D01*
X56808165Y-81189032D01*
X56808167Y-81189033D01*
X56808170Y-81189035D01*
X57022337Y-81288903D01*
X57250592Y-81350063D01*
X57427034Y-81365500D01*
X57485999Y-81370659D01*
X57486000Y-81370659D01*
X57486001Y-81370659D01*
X57544966Y-81365500D01*
X57721408Y-81350063D01*
X57949663Y-81288903D01*
X58163830Y-81189035D01*
X58357401Y-81053495D01*
X58479329Y-80931566D01*
X58540648Y-80898084D01*
X58610340Y-80903068D01*
X58666274Y-80944939D01*
X58683189Y-80975917D01*
X58732202Y-81107328D01*
X58732206Y-81107335D01*
X58818452Y-81222544D01*
X58818455Y-81222547D01*
X58933664Y-81308793D01*
X58933671Y-81308797D01*
X58953048Y-81316024D01*
X59068517Y-81359091D01*
X59128127Y-81365500D01*
X59301500Y-81365499D01*
X59368539Y-81385183D01*
X59414294Y-81437987D01*
X59425500Y-81489499D01*
X59425500Y-82040902D01*
X59405815Y-82107941D01*
X59389181Y-82128583D01*
X55286584Y-86231181D01*
X55225261Y-86264666D01*
X55198903Y-86267500D01*
X50973098Y-86267500D01*
X50906059Y-86247815D01*
X50885417Y-86231181D01*
X49134590Y-84480355D01*
X49134588Y-84480352D01*
X49015717Y-84361481D01*
X49015716Y-84361480D01*
X48928904Y-84311360D01*
X48928904Y-84311359D01*
X48928900Y-84311358D01*
X48878785Y-84282423D01*
X48726057Y-84241499D01*
X48567943Y-84241499D01*
X48560347Y-84241499D01*
X48560331Y-84241500D01*
X48039655Y-84241500D01*
X47972616Y-84221815D01*
X47938080Y-84188623D01*
X47830599Y-84035124D01*
X47830596Y-84035121D01*
X47675877Y-83880402D01*
X47595330Y-83824002D01*
X50433723Y-83824002D01*
X50438657Y-83880402D01*
X50452193Y-84035124D01*
X50452793Y-84041975D01*
X50452793Y-84041979D01*
X50509422Y-84253322D01*
X50509424Y-84253326D01*
X50509425Y-84253330D01*
X50544645Y-84328860D01*
X50601897Y-84451638D01*
X50601898Y-84451639D01*
X50727402Y-84630877D01*
X50882123Y-84785598D01*
X51061361Y-84911102D01*
X51259670Y-85003575D01*
X51471023Y-85060207D01*
X51653926Y-85076208D01*
X51688998Y-85079277D01*
X51689000Y-85079277D01*
X51689002Y-85079277D01*
X51717254Y-85076805D01*
X51906977Y-85060207D01*
X52118330Y-85003575D01*
X52316639Y-84911102D01*
X52495877Y-84785598D01*
X52650598Y-84630877D01*
X52776102Y-84451639D01*
X52868575Y-84253330D01*
X52925207Y-84041977D01*
X52941805Y-83852254D01*
X52944277Y-83824002D01*
X52944277Y-83823997D01*
X52938232Y-83754900D01*
X52925207Y-83606023D01*
X52868575Y-83394670D01*
X52776102Y-83196362D01*
X52776100Y-83196359D01*
X52776099Y-83196357D01*
X52650599Y-83017124D01*
X52585123Y-82951648D01*
X52495877Y-82862402D01*
X52379013Y-82780573D01*
X52335390Y-82725998D01*
X52328198Y-82656499D01*
X52359720Y-82594145D01*
X52379010Y-82577429D01*
X52495877Y-82495598D01*
X52650598Y-82340877D01*
X52776102Y-82161639D01*
X52868575Y-81963330D01*
X52925207Y-81751977D01*
X52944277Y-81534000D01*
X52925207Y-81316023D01*
X52890548Y-81186675D01*
X52868577Y-81104677D01*
X52868576Y-81104676D01*
X52868575Y-81104670D01*
X52776102Y-80906362D01*
X52776100Y-80906359D01*
X52776099Y-80906357D01*
X52650599Y-80727124D01*
X52583138Y-80659663D01*
X52495877Y-80572402D01*
X52316639Y-80446898D01*
X52316640Y-80446898D01*
X52316638Y-80446897D01*
X52211354Y-80397803D01*
X52118330Y-80354425D01*
X52118326Y-80354424D01*
X52118322Y-80354422D01*
X51906977Y-80297793D01*
X51689002Y-80278723D01*
X51688998Y-80278723D01*
X51543682Y-80291436D01*
X51471023Y-80297793D01*
X51471020Y-80297793D01*
X51259677Y-80354422D01*
X51259668Y-80354426D01*
X51061361Y-80446898D01*
X51061357Y-80446900D01*
X50882121Y-80572402D01*
X50727402Y-80727121D01*
X50601900Y-80906357D01*
X50601898Y-80906361D01*
X50509426Y-81104668D01*
X50509422Y-81104677D01*
X50452793Y-81316020D01*
X50452793Y-81316023D01*
X50451007Y-81336433D01*
X50433723Y-81533997D01*
X50433723Y-81534002D01*
X50439796Y-81603412D01*
X50446262Y-81677331D01*
X50452793Y-81751975D01*
X50452793Y-81751979D01*
X50509422Y-81963322D01*
X50509424Y-81963326D01*
X50509425Y-81963330D01*
X50553018Y-82056815D01*
X50601897Y-82161638D01*
X50607052Y-82169000D01*
X50727402Y-82340877D01*
X50727406Y-82340881D01*
X50882122Y-82495597D01*
X50998984Y-82577426D01*
X51042609Y-82632003D01*
X51049801Y-82701501D01*
X51018278Y-82763856D01*
X50998984Y-82780575D01*
X50882118Y-82862405D01*
X50727402Y-83017121D01*
X50601900Y-83196357D01*
X50601898Y-83196361D01*
X50509426Y-83394668D01*
X50509422Y-83394677D01*
X50452793Y-83606020D01*
X50452793Y-83606024D01*
X50433723Y-83823997D01*
X50433723Y-83824002D01*
X47595330Y-83824002D01*
X47496639Y-83754898D01*
X47496640Y-83754898D01*
X47496638Y-83754897D01*
X47397484Y-83708661D01*
X47298330Y-83662425D01*
X47298326Y-83662424D01*
X47298322Y-83662422D01*
X47086977Y-83605793D01*
X46869002Y-83586723D01*
X46868998Y-83586723D01*
X46723682Y-83599436D01*
X46651023Y-83605793D01*
X46651020Y-83605793D01*
X46439677Y-83662422D01*
X46439668Y-83662426D01*
X46241361Y-83754898D01*
X46241357Y-83754900D01*
X46062121Y-83880402D01*
X45907402Y-84035121D01*
X45781900Y-84214357D01*
X45781898Y-84214361D01*
X45689426Y-84412668D01*
X45689423Y-84412675D01*
X45643618Y-84583621D01*
X45607253Y-84643281D01*
X45544405Y-84673810D01*
X45491750Y-84671302D01*
X45306977Y-84621793D01*
X45089002Y-84602723D01*
X45088998Y-84602723D01*
X44943682Y-84615436D01*
X44871023Y-84621793D01*
X44871021Y-84621793D01*
X44871017Y-84621794D01*
X44807705Y-84638758D01*
X44737855Y-84637095D01*
X44679993Y-84597931D01*
X44652490Y-84533703D01*
X44664077Y-84464801D01*
X44687929Y-84431305D01*
X45805416Y-83313819D01*
X45866739Y-83280334D01*
X45893097Y-83277500D01*
X47284331Y-83277500D01*
X47284347Y-83277501D01*
X47291943Y-83277501D01*
X47450054Y-83277501D01*
X47450057Y-83277501D01*
X47602785Y-83236577D01*
X47672439Y-83196362D01*
X47739716Y-83157520D01*
X47851520Y-83045716D01*
X47851520Y-83045714D01*
X47861724Y-83035511D01*
X47861727Y-83035506D01*
X50885416Y-80011819D01*
X50946739Y-79978334D01*
X50973097Y-79975500D01*
X56013260Y-79975500D01*
X56080299Y-79995185D01*
G37*
%TD.AperFunction*%
%TD*%
M02*
