%TF.GenerationSoftware,KiCad,Pcbnew,8.0.0*%
%TF.CreationDate,2024-03-13T03:04:33+09:00*%
%TF.ProjectId,esp32tester,65737033-3274-4657-9374-65722e6b6963,rev?*%
%TF.SameCoordinates,Original*%
%TF.FileFunction,Legend,Bot*%
%TF.FilePolarity,Positive*%
%FSLAX46Y46*%
G04 Gerber Fmt 4.6, Leading zero omitted, Abs format (unit mm)*
G04 Created by KiCad (PCBNEW 8.0.0) date 2024-03-13 03:04:33*
%MOMM*%
%LPD*%
G01*
G04 APERTURE LIST*
%ADD10C,0.100000*%
%ADD11C,0.150000*%
G04 APERTURE END LIST*
D10*
X42812687Y-107981180D02*
X42860306Y-108028800D01*
X42860306Y-108028800D02*
X43003163Y-108076419D01*
X43003163Y-108076419D02*
X43098401Y-108076419D01*
X43098401Y-108076419D02*
X43241258Y-108028800D01*
X43241258Y-108028800D02*
X43336496Y-107933561D01*
X43336496Y-107933561D02*
X43384115Y-107838323D01*
X43384115Y-107838323D02*
X43431734Y-107647847D01*
X43431734Y-107647847D02*
X43431734Y-107504990D01*
X43431734Y-107504990D02*
X43384115Y-107314514D01*
X43384115Y-107314514D02*
X43336496Y-107219276D01*
X43336496Y-107219276D02*
X43241258Y-107124038D01*
X43241258Y-107124038D02*
X43098401Y-107076419D01*
X43098401Y-107076419D02*
X43003163Y-107076419D01*
X43003163Y-107076419D02*
X42860306Y-107124038D01*
X42860306Y-107124038D02*
X42812687Y-107171657D01*
X42431734Y-107790704D02*
X41955544Y-107790704D01*
X42526972Y-108076419D02*
X42193639Y-107076419D01*
X42193639Y-107076419D02*
X41860306Y-108076419D01*
X41526972Y-108076419D02*
X41526972Y-107076419D01*
X41526972Y-107076419D02*
X40955544Y-108076419D01*
X40955544Y-108076419D02*
X40955544Y-107076419D01*
X39241258Y-108076419D02*
X39717448Y-108076419D01*
X39717448Y-108076419D02*
X39717448Y-107076419D01*
X51956687Y-108997180D02*
X52004306Y-109044800D01*
X52004306Y-109044800D02*
X52147163Y-109092419D01*
X52147163Y-109092419D02*
X52242401Y-109092419D01*
X52242401Y-109092419D02*
X52385258Y-109044800D01*
X52385258Y-109044800D02*
X52480496Y-108949561D01*
X52480496Y-108949561D02*
X52528115Y-108854323D01*
X52528115Y-108854323D02*
X52575734Y-108663847D01*
X52575734Y-108663847D02*
X52575734Y-108520990D01*
X52575734Y-108520990D02*
X52528115Y-108330514D01*
X52528115Y-108330514D02*
X52480496Y-108235276D01*
X52480496Y-108235276D02*
X52385258Y-108140038D01*
X52385258Y-108140038D02*
X52242401Y-108092419D01*
X52242401Y-108092419D02*
X52147163Y-108092419D01*
X52147163Y-108092419D02*
X52004306Y-108140038D01*
X52004306Y-108140038D02*
X51956687Y-108187657D01*
X51575734Y-108806704D02*
X51099544Y-108806704D01*
X51670972Y-109092419D02*
X51337639Y-108092419D01*
X51337639Y-108092419D02*
X51004306Y-109092419D01*
X50670972Y-109092419D02*
X50670972Y-108092419D01*
X50670972Y-108092419D02*
X50099544Y-109092419D01*
X50099544Y-109092419D02*
X50099544Y-108092419D01*
X48861448Y-109092419D02*
X48861448Y-108092419D01*
X48861448Y-108568609D02*
X48290020Y-108568609D01*
X48290020Y-109092419D02*
X48290020Y-108092419D01*
X43193687Y-88296180D02*
X43241306Y-88343800D01*
X43241306Y-88343800D02*
X43384163Y-88391419D01*
X43384163Y-88391419D02*
X43479401Y-88391419D01*
X43479401Y-88391419D02*
X43622258Y-88343800D01*
X43622258Y-88343800D02*
X43717496Y-88248561D01*
X43717496Y-88248561D02*
X43765115Y-88153323D01*
X43765115Y-88153323D02*
X43812734Y-87962847D01*
X43812734Y-87962847D02*
X43812734Y-87819990D01*
X43812734Y-87819990D02*
X43765115Y-87629514D01*
X43765115Y-87629514D02*
X43717496Y-87534276D01*
X43717496Y-87534276D02*
X43622258Y-87439038D01*
X43622258Y-87439038D02*
X43479401Y-87391419D01*
X43479401Y-87391419D02*
X43384163Y-87391419D01*
X43384163Y-87391419D02*
X43241306Y-87439038D01*
X43241306Y-87439038D02*
X43193687Y-87486657D01*
X42812734Y-88105704D02*
X42336544Y-88105704D01*
X42907972Y-88391419D02*
X42574639Y-87391419D01*
X42574639Y-87391419D02*
X42241306Y-88391419D01*
X41907972Y-88391419D02*
X41907972Y-87391419D01*
X41907972Y-87391419D02*
X41336544Y-88391419D01*
X41336544Y-88391419D02*
X41336544Y-87391419D01*
X39622258Y-88391419D02*
X40098448Y-88391419D01*
X40098448Y-88391419D02*
X40098448Y-87391419D01*
X51702687Y-88169180D02*
X51750306Y-88216800D01*
X51750306Y-88216800D02*
X51893163Y-88264419D01*
X51893163Y-88264419D02*
X51988401Y-88264419D01*
X51988401Y-88264419D02*
X52131258Y-88216800D01*
X52131258Y-88216800D02*
X52226496Y-88121561D01*
X52226496Y-88121561D02*
X52274115Y-88026323D01*
X52274115Y-88026323D02*
X52321734Y-87835847D01*
X52321734Y-87835847D02*
X52321734Y-87692990D01*
X52321734Y-87692990D02*
X52274115Y-87502514D01*
X52274115Y-87502514D02*
X52226496Y-87407276D01*
X52226496Y-87407276D02*
X52131258Y-87312038D01*
X52131258Y-87312038D02*
X51988401Y-87264419D01*
X51988401Y-87264419D02*
X51893163Y-87264419D01*
X51893163Y-87264419D02*
X51750306Y-87312038D01*
X51750306Y-87312038D02*
X51702687Y-87359657D01*
X51321734Y-87978704D02*
X50845544Y-87978704D01*
X51416972Y-88264419D02*
X51083639Y-87264419D01*
X51083639Y-87264419D02*
X50750306Y-88264419D01*
X50416972Y-88264419D02*
X50416972Y-87264419D01*
X50416972Y-87264419D02*
X49845544Y-88264419D01*
X49845544Y-88264419D02*
X49845544Y-87264419D01*
X48607448Y-88264419D02*
X48607448Y-87264419D01*
X48607448Y-87740609D02*
X48036020Y-87740609D01*
X48036020Y-88264419D02*
X48036020Y-87264419D01*
X79801401Y-79390419D02*
X79801401Y-80104704D01*
X79801401Y-80104704D02*
X79849020Y-80247561D01*
X79849020Y-80247561D02*
X79944258Y-80342800D01*
X79944258Y-80342800D02*
X80087115Y-80390419D01*
X80087115Y-80390419D02*
X80182353Y-80390419D01*
X78849020Y-79390419D02*
X79325210Y-79390419D01*
X79325210Y-79390419D02*
X79372829Y-79866609D01*
X79372829Y-79866609D02*
X79325210Y-79818990D01*
X79325210Y-79818990D02*
X79229972Y-79771371D01*
X79229972Y-79771371D02*
X78991877Y-79771371D01*
X78991877Y-79771371D02*
X78896639Y-79818990D01*
X78896639Y-79818990D02*
X78849020Y-79866609D01*
X78849020Y-79866609D02*
X78801401Y-79961847D01*
X78801401Y-79961847D02*
X78801401Y-80199942D01*
X78801401Y-80199942D02*
X78849020Y-80295180D01*
X78849020Y-80295180D02*
X78896639Y-80342800D01*
X78896639Y-80342800D02*
X78991877Y-80390419D01*
X78991877Y-80390419D02*
X79229972Y-80390419D01*
X79229972Y-80390419D02*
X79325210Y-80342800D01*
X79325210Y-80342800D02*
X79372829Y-80295180D01*
X37480419Y-108031598D02*
X38194704Y-108031598D01*
X38194704Y-108031598D02*
X38337561Y-107983979D01*
X38337561Y-107983979D02*
X38432800Y-107888741D01*
X38432800Y-107888741D02*
X38480419Y-107745884D01*
X38480419Y-107745884D02*
X38480419Y-107650646D01*
X37575657Y-108460170D02*
X37528038Y-108507789D01*
X37528038Y-108507789D02*
X37480419Y-108603027D01*
X37480419Y-108603027D02*
X37480419Y-108841122D01*
X37480419Y-108841122D02*
X37528038Y-108936360D01*
X37528038Y-108936360D02*
X37575657Y-108983979D01*
X37575657Y-108983979D02*
X37670895Y-109031598D01*
X37670895Y-109031598D02*
X37766133Y-109031598D01*
X37766133Y-109031598D02*
X37908990Y-108983979D01*
X37908990Y-108983979D02*
X38480419Y-108412551D01*
X38480419Y-108412551D02*
X38480419Y-109031598D01*
X37607419Y-88346598D02*
X38321704Y-88346598D01*
X38321704Y-88346598D02*
X38464561Y-88298979D01*
X38464561Y-88298979D02*
X38559800Y-88203741D01*
X38559800Y-88203741D02*
X38607419Y-88060884D01*
X38607419Y-88060884D02*
X38607419Y-87965646D01*
X38607419Y-89346598D02*
X38607419Y-88775170D01*
X38607419Y-89060884D02*
X37607419Y-89060884D01*
X37607419Y-89060884D02*
X37750276Y-88965646D01*
X37750276Y-88965646D02*
X37845514Y-88870408D01*
X37845514Y-88870408D02*
X37893133Y-88775170D01*
D11*
X91183033Y-103670350D02*
X91883033Y-103903684D01*
X91883033Y-103903684D02*
X91183033Y-104137017D01*
X91883033Y-104370350D02*
X91183033Y-104370350D01*
X91183033Y-104370350D02*
X91883033Y-104770350D01*
X91883033Y-104770350D02*
X91183033Y-104770350D01*
X91149700Y-105603683D02*
X92049700Y-105003683D01*
X91216366Y-106203683D02*
X91183033Y-106137016D01*
X91183033Y-106137016D02*
X91183033Y-106037016D01*
X91183033Y-106037016D02*
X91216366Y-105937016D01*
X91216366Y-105937016D02*
X91283033Y-105870350D01*
X91283033Y-105870350D02*
X91349700Y-105837016D01*
X91349700Y-105837016D02*
X91483033Y-105803683D01*
X91483033Y-105803683D02*
X91583033Y-105803683D01*
X91583033Y-105803683D02*
X91716366Y-105837016D01*
X91716366Y-105837016D02*
X91783033Y-105870350D01*
X91783033Y-105870350D02*
X91849700Y-105937016D01*
X91849700Y-105937016D02*
X91883033Y-106037016D01*
X91883033Y-106037016D02*
X91883033Y-106103683D01*
X91883033Y-106103683D02*
X91849700Y-106203683D01*
X91849700Y-106203683D02*
X91816366Y-106237016D01*
X91816366Y-106237016D02*
X91583033Y-106237016D01*
X91583033Y-106237016D02*
X91583033Y-106103683D01*
X91883033Y-106537016D02*
X91183033Y-106537016D01*
X91183033Y-106537016D02*
X91183033Y-106803683D01*
X91183033Y-106803683D02*
X91216366Y-106870350D01*
X91216366Y-106870350D02*
X91249700Y-106903683D01*
X91249700Y-106903683D02*
X91316366Y-106937016D01*
X91316366Y-106937016D02*
X91416366Y-106937016D01*
X91416366Y-106937016D02*
X91483033Y-106903683D01*
X91483033Y-106903683D02*
X91516366Y-106870350D01*
X91516366Y-106870350D02*
X91549700Y-106803683D01*
X91549700Y-106803683D02*
X91549700Y-106537016D01*
X91883033Y-107237016D02*
X91183033Y-107237016D01*
X91183033Y-107703683D02*
X91183033Y-107837016D01*
X91183033Y-107837016D02*
X91216366Y-107903683D01*
X91216366Y-107903683D02*
X91283033Y-107970349D01*
X91283033Y-107970349D02*
X91416366Y-108003683D01*
X91416366Y-108003683D02*
X91649700Y-108003683D01*
X91649700Y-108003683D02*
X91783033Y-107970349D01*
X91783033Y-107970349D02*
X91849700Y-107903683D01*
X91849700Y-107903683D02*
X91883033Y-107837016D01*
X91883033Y-107837016D02*
X91883033Y-107703683D01*
X91883033Y-107703683D02*
X91849700Y-107637016D01*
X91849700Y-107637016D02*
X91783033Y-107570349D01*
X91783033Y-107570349D02*
X91649700Y-107537016D01*
X91649700Y-107537016D02*
X91416366Y-107537016D01*
X91416366Y-107537016D02*
X91283033Y-107570349D01*
X91283033Y-107570349D02*
X91216366Y-107637016D01*
X91216366Y-107637016D02*
X91183033Y-107703683D01*
X91183033Y-108237016D02*
X91183033Y-108670349D01*
X91183033Y-108670349D02*
X91449700Y-108437016D01*
X91449700Y-108437016D02*
X91449700Y-108537016D01*
X91449700Y-108537016D02*
X91483033Y-108603682D01*
X91483033Y-108603682D02*
X91516366Y-108637016D01*
X91516366Y-108637016D02*
X91583033Y-108670349D01*
X91583033Y-108670349D02*
X91749700Y-108670349D01*
X91749700Y-108670349D02*
X91816366Y-108637016D01*
X91816366Y-108637016D02*
X91849700Y-108603682D01*
X91849700Y-108603682D02*
X91883033Y-108537016D01*
X91883033Y-108537016D02*
X91883033Y-108337016D01*
X91883033Y-108337016D02*
X91849700Y-108270349D01*
X91849700Y-108270349D02*
X91816366Y-108237016D01*
X91883033Y-109003683D02*
X91883033Y-109137016D01*
X91883033Y-109137016D02*
X91849700Y-109203683D01*
X91849700Y-109203683D02*
X91816366Y-109237016D01*
X91816366Y-109237016D02*
X91716366Y-109303683D01*
X91716366Y-109303683D02*
X91583033Y-109337016D01*
X91583033Y-109337016D02*
X91316366Y-109337016D01*
X91316366Y-109337016D02*
X91249700Y-109303683D01*
X91249700Y-109303683D02*
X91216366Y-109270349D01*
X91216366Y-109270349D02*
X91183033Y-109203683D01*
X91183033Y-109203683D02*
X91183033Y-109070349D01*
X91183033Y-109070349D02*
X91216366Y-109003683D01*
X91216366Y-109003683D02*
X91249700Y-108970349D01*
X91249700Y-108970349D02*
X91316366Y-108937016D01*
X91316366Y-108937016D02*
X91483033Y-108937016D01*
X91483033Y-108937016D02*
X91549700Y-108970349D01*
X91549700Y-108970349D02*
X91583033Y-109003683D01*
X91583033Y-109003683D02*
X91616366Y-109070349D01*
X91616366Y-109070349D02*
X91616366Y-109203683D01*
X91616366Y-109203683D02*
X91583033Y-109270349D01*
X91583033Y-109270349D02*
X91549700Y-109303683D01*
X91549700Y-109303683D02*
X91483033Y-109337016D01*
X129121819Y-108508969D02*
X129121819Y-108032779D01*
X129121819Y-108032779D02*
X129598009Y-107985160D01*
X129598009Y-107985160D02*
X129550390Y-108032779D01*
X129550390Y-108032779D02*
X129502771Y-108128017D01*
X129502771Y-108128017D02*
X129502771Y-108366112D01*
X129502771Y-108366112D02*
X129550390Y-108461350D01*
X129550390Y-108461350D02*
X129598009Y-108508969D01*
X129598009Y-108508969D02*
X129693247Y-108556588D01*
X129693247Y-108556588D02*
X129931342Y-108556588D01*
X129931342Y-108556588D02*
X130026580Y-108508969D01*
X130026580Y-108508969D02*
X130074200Y-108461350D01*
X130074200Y-108461350D02*
X130121819Y-108366112D01*
X130121819Y-108366112D02*
X130121819Y-108128017D01*
X130121819Y-108128017D02*
X130074200Y-108032779D01*
X130074200Y-108032779D02*
X130026580Y-107985160D01*
X129121819Y-108842303D02*
X130121819Y-109175636D01*
X130121819Y-109175636D02*
X129121819Y-109508969D01*
X98719526Y-106296017D02*
X98686193Y-106229350D01*
X98686193Y-106229350D02*
X98686193Y-106129350D01*
X98686193Y-106129350D02*
X98719526Y-106029350D01*
X98719526Y-106029350D02*
X98786193Y-105962684D01*
X98786193Y-105962684D02*
X98852860Y-105929350D01*
X98852860Y-105929350D02*
X98986193Y-105896017D01*
X98986193Y-105896017D02*
X99086193Y-105896017D01*
X99086193Y-105896017D02*
X99219526Y-105929350D01*
X99219526Y-105929350D02*
X99286193Y-105962684D01*
X99286193Y-105962684D02*
X99352860Y-106029350D01*
X99352860Y-106029350D02*
X99386193Y-106129350D01*
X99386193Y-106129350D02*
X99386193Y-106196017D01*
X99386193Y-106196017D02*
X99352860Y-106296017D01*
X99352860Y-106296017D02*
X99319526Y-106329350D01*
X99319526Y-106329350D02*
X99086193Y-106329350D01*
X99086193Y-106329350D02*
X99086193Y-106196017D01*
X99386193Y-106629350D02*
X98686193Y-106629350D01*
X98686193Y-106629350D02*
X98686193Y-106896017D01*
X98686193Y-106896017D02*
X98719526Y-106962684D01*
X98719526Y-106962684D02*
X98752860Y-106996017D01*
X98752860Y-106996017D02*
X98819526Y-107029350D01*
X98819526Y-107029350D02*
X98919526Y-107029350D01*
X98919526Y-107029350D02*
X98986193Y-106996017D01*
X98986193Y-106996017D02*
X99019526Y-106962684D01*
X99019526Y-106962684D02*
X99052860Y-106896017D01*
X99052860Y-106896017D02*
X99052860Y-106629350D01*
X99386193Y-107329350D02*
X98686193Y-107329350D01*
X98686193Y-107796017D02*
X98686193Y-107929350D01*
X98686193Y-107929350D02*
X98719526Y-107996017D01*
X98719526Y-107996017D02*
X98786193Y-108062683D01*
X98786193Y-108062683D02*
X98919526Y-108096017D01*
X98919526Y-108096017D02*
X99152860Y-108096017D01*
X99152860Y-108096017D02*
X99286193Y-108062683D01*
X99286193Y-108062683D02*
X99352860Y-107996017D01*
X99352860Y-107996017D02*
X99386193Y-107929350D01*
X99386193Y-107929350D02*
X99386193Y-107796017D01*
X99386193Y-107796017D02*
X99352860Y-107729350D01*
X99352860Y-107729350D02*
X99286193Y-107662683D01*
X99286193Y-107662683D02*
X99152860Y-107629350D01*
X99152860Y-107629350D02*
X98919526Y-107629350D01*
X98919526Y-107629350D02*
X98786193Y-107662683D01*
X98786193Y-107662683D02*
X98719526Y-107729350D01*
X98719526Y-107729350D02*
X98686193Y-107796017D01*
X98686193Y-108329350D02*
X98686193Y-108762683D01*
X98686193Y-108762683D02*
X98952860Y-108529350D01*
X98952860Y-108529350D02*
X98952860Y-108629350D01*
X98952860Y-108629350D02*
X98986193Y-108696016D01*
X98986193Y-108696016D02*
X99019526Y-108729350D01*
X99019526Y-108729350D02*
X99086193Y-108762683D01*
X99086193Y-108762683D02*
X99252860Y-108762683D01*
X99252860Y-108762683D02*
X99319526Y-108729350D01*
X99319526Y-108729350D02*
X99352860Y-108696016D01*
X99352860Y-108696016D02*
X99386193Y-108629350D01*
X99386193Y-108629350D02*
X99386193Y-108429350D01*
X99386193Y-108429350D02*
X99352860Y-108362683D01*
X99352860Y-108362683D02*
X99319526Y-108329350D01*
X98752860Y-109029350D02*
X98719526Y-109062683D01*
X98719526Y-109062683D02*
X98686193Y-109129350D01*
X98686193Y-109129350D02*
X98686193Y-109296017D01*
X98686193Y-109296017D02*
X98719526Y-109362683D01*
X98719526Y-109362683D02*
X98752860Y-109396017D01*
X98752860Y-109396017D02*
X98819526Y-109429350D01*
X98819526Y-109429350D02*
X98886193Y-109429350D01*
X98886193Y-109429350D02*
X98986193Y-109396017D01*
X98986193Y-109396017D02*
X99386193Y-108996017D01*
X99386193Y-108996017D02*
X99386193Y-109429350D01*
X111409366Y-102740017D02*
X111376033Y-102673350D01*
X111376033Y-102673350D02*
X111376033Y-102573350D01*
X111376033Y-102573350D02*
X111409366Y-102473350D01*
X111409366Y-102473350D02*
X111476033Y-102406684D01*
X111476033Y-102406684D02*
X111542700Y-102373350D01*
X111542700Y-102373350D02*
X111676033Y-102340017D01*
X111676033Y-102340017D02*
X111776033Y-102340017D01*
X111776033Y-102340017D02*
X111909366Y-102373350D01*
X111909366Y-102373350D02*
X111976033Y-102406684D01*
X111976033Y-102406684D02*
X112042700Y-102473350D01*
X112042700Y-102473350D02*
X112076033Y-102573350D01*
X112076033Y-102573350D02*
X112076033Y-102640017D01*
X112076033Y-102640017D02*
X112042700Y-102740017D01*
X112042700Y-102740017D02*
X112009366Y-102773350D01*
X112009366Y-102773350D02*
X111776033Y-102773350D01*
X111776033Y-102773350D02*
X111776033Y-102640017D01*
X112076033Y-103073350D02*
X111376033Y-103073350D01*
X111376033Y-103073350D02*
X111376033Y-103340017D01*
X111376033Y-103340017D02*
X111409366Y-103406684D01*
X111409366Y-103406684D02*
X111442700Y-103440017D01*
X111442700Y-103440017D02*
X111509366Y-103473350D01*
X111509366Y-103473350D02*
X111609366Y-103473350D01*
X111609366Y-103473350D02*
X111676033Y-103440017D01*
X111676033Y-103440017D02*
X111709366Y-103406684D01*
X111709366Y-103406684D02*
X111742700Y-103340017D01*
X111742700Y-103340017D02*
X111742700Y-103073350D01*
X112076033Y-103773350D02*
X111376033Y-103773350D01*
X111376033Y-104240017D02*
X111376033Y-104373350D01*
X111376033Y-104373350D02*
X111409366Y-104440017D01*
X111409366Y-104440017D02*
X111476033Y-104506683D01*
X111476033Y-104506683D02*
X111609366Y-104540017D01*
X111609366Y-104540017D02*
X111842700Y-104540017D01*
X111842700Y-104540017D02*
X111976033Y-104506683D01*
X111976033Y-104506683D02*
X112042700Y-104440017D01*
X112042700Y-104440017D02*
X112076033Y-104373350D01*
X112076033Y-104373350D02*
X112076033Y-104240017D01*
X112076033Y-104240017D02*
X112042700Y-104173350D01*
X112042700Y-104173350D02*
X111976033Y-104106683D01*
X111976033Y-104106683D02*
X111842700Y-104073350D01*
X111842700Y-104073350D02*
X111609366Y-104073350D01*
X111609366Y-104073350D02*
X111476033Y-104106683D01*
X111476033Y-104106683D02*
X111409366Y-104173350D01*
X111409366Y-104173350D02*
X111376033Y-104240017D01*
X112076033Y-105206683D02*
X112076033Y-104806683D01*
X112076033Y-105006683D02*
X111376033Y-105006683D01*
X111376033Y-105006683D02*
X111476033Y-104940016D01*
X111476033Y-104940016D02*
X111542700Y-104873350D01*
X111542700Y-104873350D02*
X111576033Y-104806683D01*
X111609366Y-105806683D02*
X112076033Y-105806683D01*
X111342700Y-105640017D02*
X111842700Y-105473350D01*
X111842700Y-105473350D02*
X111842700Y-105906683D01*
X111342700Y-106673350D02*
X112242700Y-106073350D01*
X112076033Y-106906683D02*
X111376033Y-106906683D01*
X111376033Y-106906683D02*
X111876033Y-107140017D01*
X111876033Y-107140017D02*
X111376033Y-107373350D01*
X111376033Y-107373350D02*
X112076033Y-107373350D01*
X111376033Y-107606683D02*
X111376033Y-108006683D01*
X112076033Y-107806683D02*
X111376033Y-107806683D01*
X112076033Y-108240016D02*
X111376033Y-108240016D01*
X111376033Y-108240016D02*
X111876033Y-108473350D01*
X111876033Y-108473350D02*
X111376033Y-108706683D01*
X111376033Y-108706683D02*
X112076033Y-108706683D01*
X112042700Y-109006683D02*
X112076033Y-109106683D01*
X112076033Y-109106683D02*
X112076033Y-109273350D01*
X112076033Y-109273350D02*
X112042700Y-109340016D01*
X112042700Y-109340016D02*
X112009366Y-109373350D01*
X112009366Y-109373350D02*
X111942700Y-109406683D01*
X111942700Y-109406683D02*
X111876033Y-109406683D01*
X111876033Y-109406683D02*
X111809366Y-109373350D01*
X111809366Y-109373350D02*
X111776033Y-109340016D01*
X111776033Y-109340016D02*
X111742700Y-109273350D01*
X111742700Y-109273350D02*
X111709366Y-109140016D01*
X111709366Y-109140016D02*
X111676033Y-109073350D01*
X111676033Y-109073350D02*
X111642700Y-109040016D01*
X111642700Y-109040016D02*
X111576033Y-109006683D01*
X111576033Y-109006683D02*
X111509366Y-109006683D01*
X111509366Y-109006683D02*
X111442700Y-109040016D01*
X111442700Y-109040016D02*
X111409366Y-109073350D01*
X111409366Y-109073350D02*
X111376033Y-109140016D01*
X111376033Y-109140016D02*
X111376033Y-109306683D01*
X111376033Y-109306683D02*
X111409366Y-109406683D01*
X96169366Y-87693649D02*
X96136033Y-87626982D01*
X96136033Y-87626982D02*
X96136033Y-87526982D01*
X96136033Y-87526982D02*
X96169366Y-87426982D01*
X96169366Y-87426982D02*
X96236033Y-87360316D01*
X96236033Y-87360316D02*
X96302700Y-87326982D01*
X96302700Y-87326982D02*
X96436033Y-87293649D01*
X96436033Y-87293649D02*
X96536033Y-87293649D01*
X96536033Y-87293649D02*
X96669366Y-87326982D01*
X96669366Y-87326982D02*
X96736033Y-87360316D01*
X96736033Y-87360316D02*
X96802700Y-87426982D01*
X96802700Y-87426982D02*
X96836033Y-87526982D01*
X96836033Y-87526982D02*
X96836033Y-87593649D01*
X96836033Y-87593649D02*
X96802700Y-87693649D01*
X96802700Y-87693649D02*
X96769366Y-87726982D01*
X96769366Y-87726982D02*
X96536033Y-87726982D01*
X96536033Y-87726982D02*
X96536033Y-87593649D01*
X96836033Y-88026982D02*
X96136033Y-88026982D01*
X96136033Y-88026982D02*
X96136033Y-88293649D01*
X96136033Y-88293649D02*
X96169366Y-88360316D01*
X96169366Y-88360316D02*
X96202700Y-88393649D01*
X96202700Y-88393649D02*
X96269366Y-88426982D01*
X96269366Y-88426982D02*
X96369366Y-88426982D01*
X96369366Y-88426982D02*
X96436033Y-88393649D01*
X96436033Y-88393649D02*
X96469366Y-88360316D01*
X96469366Y-88360316D02*
X96502700Y-88293649D01*
X96502700Y-88293649D02*
X96502700Y-88026982D01*
X96836033Y-88726982D02*
X96136033Y-88726982D01*
X96136033Y-89193649D02*
X96136033Y-89326982D01*
X96136033Y-89326982D02*
X96169366Y-89393649D01*
X96169366Y-89393649D02*
X96236033Y-89460315D01*
X96236033Y-89460315D02*
X96369366Y-89493649D01*
X96369366Y-89493649D02*
X96602700Y-89493649D01*
X96602700Y-89493649D02*
X96736033Y-89460315D01*
X96736033Y-89460315D02*
X96802700Y-89393649D01*
X96802700Y-89393649D02*
X96836033Y-89326982D01*
X96836033Y-89326982D02*
X96836033Y-89193649D01*
X96836033Y-89193649D02*
X96802700Y-89126982D01*
X96802700Y-89126982D02*
X96736033Y-89060315D01*
X96736033Y-89060315D02*
X96602700Y-89026982D01*
X96602700Y-89026982D02*
X96369366Y-89026982D01*
X96369366Y-89026982D02*
X96236033Y-89060315D01*
X96236033Y-89060315D02*
X96169366Y-89126982D01*
X96169366Y-89126982D02*
X96136033Y-89193649D01*
X96202700Y-89760315D02*
X96169366Y-89793648D01*
X96169366Y-89793648D02*
X96136033Y-89860315D01*
X96136033Y-89860315D02*
X96136033Y-90026982D01*
X96136033Y-90026982D02*
X96169366Y-90093648D01*
X96169366Y-90093648D02*
X96202700Y-90126982D01*
X96202700Y-90126982D02*
X96269366Y-90160315D01*
X96269366Y-90160315D02*
X96336033Y-90160315D01*
X96336033Y-90160315D02*
X96436033Y-90126982D01*
X96436033Y-90126982D02*
X96836033Y-89726982D01*
X96836033Y-89726982D02*
X96836033Y-90160315D01*
X96836033Y-90826982D02*
X96836033Y-90426982D01*
X96836033Y-90626982D02*
X96136033Y-90626982D01*
X96136033Y-90626982D02*
X96236033Y-90560315D01*
X96236033Y-90560315D02*
X96302700Y-90493649D01*
X96302700Y-90493649D02*
X96336033Y-90426982D01*
X96179526Y-106296017D02*
X96146193Y-106229350D01*
X96146193Y-106229350D02*
X96146193Y-106129350D01*
X96146193Y-106129350D02*
X96179526Y-106029350D01*
X96179526Y-106029350D02*
X96246193Y-105962684D01*
X96246193Y-105962684D02*
X96312860Y-105929350D01*
X96312860Y-105929350D02*
X96446193Y-105896017D01*
X96446193Y-105896017D02*
X96546193Y-105896017D01*
X96546193Y-105896017D02*
X96679526Y-105929350D01*
X96679526Y-105929350D02*
X96746193Y-105962684D01*
X96746193Y-105962684D02*
X96812860Y-106029350D01*
X96812860Y-106029350D02*
X96846193Y-106129350D01*
X96846193Y-106129350D02*
X96846193Y-106196017D01*
X96846193Y-106196017D02*
X96812860Y-106296017D01*
X96812860Y-106296017D02*
X96779526Y-106329350D01*
X96779526Y-106329350D02*
X96546193Y-106329350D01*
X96546193Y-106329350D02*
X96546193Y-106196017D01*
X96846193Y-106629350D02*
X96146193Y-106629350D01*
X96146193Y-106629350D02*
X96146193Y-106896017D01*
X96146193Y-106896017D02*
X96179526Y-106962684D01*
X96179526Y-106962684D02*
X96212860Y-106996017D01*
X96212860Y-106996017D02*
X96279526Y-107029350D01*
X96279526Y-107029350D02*
X96379526Y-107029350D01*
X96379526Y-107029350D02*
X96446193Y-106996017D01*
X96446193Y-106996017D02*
X96479526Y-106962684D01*
X96479526Y-106962684D02*
X96512860Y-106896017D01*
X96512860Y-106896017D02*
X96512860Y-106629350D01*
X96846193Y-107329350D02*
X96146193Y-107329350D01*
X96146193Y-107796017D02*
X96146193Y-107929350D01*
X96146193Y-107929350D02*
X96179526Y-107996017D01*
X96179526Y-107996017D02*
X96246193Y-108062683D01*
X96246193Y-108062683D02*
X96379526Y-108096017D01*
X96379526Y-108096017D02*
X96612860Y-108096017D01*
X96612860Y-108096017D02*
X96746193Y-108062683D01*
X96746193Y-108062683D02*
X96812860Y-107996017D01*
X96812860Y-107996017D02*
X96846193Y-107929350D01*
X96846193Y-107929350D02*
X96846193Y-107796017D01*
X96846193Y-107796017D02*
X96812860Y-107729350D01*
X96812860Y-107729350D02*
X96746193Y-107662683D01*
X96746193Y-107662683D02*
X96612860Y-107629350D01*
X96612860Y-107629350D02*
X96379526Y-107629350D01*
X96379526Y-107629350D02*
X96246193Y-107662683D01*
X96246193Y-107662683D02*
X96179526Y-107729350D01*
X96179526Y-107729350D02*
X96146193Y-107796017D01*
X96146193Y-108329350D02*
X96146193Y-108762683D01*
X96146193Y-108762683D02*
X96412860Y-108529350D01*
X96412860Y-108529350D02*
X96412860Y-108629350D01*
X96412860Y-108629350D02*
X96446193Y-108696016D01*
X96446193Y-108696016D02*
X96479526Y-108729350D01*
X96479526Y-108729350D02*
X96546193Y-108762683D01*
X96546193Y-108762683D02*
X96712860Y-108762683D01*
X96712860Y-108762683D02*
X96779526Y-108729350D01*
X96779526Y-108729350D02*
X96812860Y-108696016D01*
X96812860Y-108696016D02*
X96846193Y-108629350D01*
X96846193Y-108629350D02*
X96846193Y-108429350D01*
X96846193Y-108429350D02*
X96812860Y-108362683D01*
X96812860Y-108362683D02*
X96779526Y-108329350D01*
X96146193Y-109396017D02*
X96146193Y-109062683D01*
X96146193Y-109062683D02*
X96479526Y-109029350D01*
X96479526Y-109029350D02*
X96446193Y-109062683D01*
X96446193Y-109062683D02*
X96412860Y-109129350D01*
X96412860Y-109129350D02*
X96412860Y-109296017D01*
X96412860Y-109296017D02*
X96446193Y-109362683D01*
X96446193Y-109362683D02*
X96479526Y-109396017D01*
X96479526Y-109396017D02*
X96546193Y-109429350D01*
X96546193Y-109429350D02*
X96712860Y-109429350D01*
X96712860Y-109429350D02*
X96779526Y-109396017D01*
X96779526Y-109396017D02*
X96812860Y-109362683D01*
X96812860Y-109362683D02*
X96846193Y-109296017D01*
X96846193Y-109296017D02*
X96846193Y-109129350D01*
X96846193Y-109129350D02*
X96812860Y-109062683D01*
X96812860Y-109062683D02*
X96779526Y-109029350D01*
X106339526Y-106423017D02*
X106306193Y-106356350D01*
X106306193Y-106356350D02*
X106306193Y-106256350D01*
X106306193Y-106256350D02*
X106339526Y-106156350D01*
X106339526Y-106156350D02*
X106406193Y-106089684D01*
X106406193Y-106089684D02*
X106472860Y-106056350D01*
X106472860Y-106056350D02*
X106606193Y-106023017D01*
X106606193Y-106023017D02*
X106706193Y-106023017D01*
X106706193Y-106023017D02*
X106839526Y-106056350D01*
X106839526Y-106056350D02*
X106906193Y-106089684D01*
X106906193Y-106089684D02*
X106972860Y-106156350D01*
X106972860Y-106156350D02*
X107006193Y-106256350D01*
X107006193Y-106256350D02*
X107006193Y-106323017D01*
X107006193Y-106323017D02*
X106972860Y-106423017D01*
X106972860Y-106423017D02*
X106939526Y-106456350D01*
X106939526Y-106456350D02*
X106706193Y-106456350D01*
X106706193Y-106456350D02*
X106706193Y-106323017D01*
X107006193Y-106756350D02*
X106306193Y-106756350D01*
X106306193Y-106756350D02*
X106306193Y-107023017D01*
X106306193Y-107023017D02*
X106339526Y-107089684D01*
X106339526Y-107089684D02*
X106372860Y-107123017D01*
X106372860Y-107123017D02*
X106439526Y-107156350D01*
X106439526Y-107156350D02*
X106539526Y-107156350D01*
X106539526Y-107156350D02*
X106606193Y-107123017D01*
X106606193Y-107123017D02*
X106639526Y-107089684D01*
X106639526Y-107089684D02*
X106672860Y-107023017D01*
X106672860Y-107023017D02*
X106672860Y-106756350D01*
X107006193Y-107456350D02*
X106306193Y-107456350D01*
X106306193Y-107923017D02*
X106306193Y-108056350D01*
X106306193Y-108056350D02*
X106339526Y-108123017D01*
X106339526Y-108123017D02*
X106406193Y-108189683D01*
X106406193Y-108189683D02*
X106539526Y-108223017D01*
X106539526Y-108223017D02*
X106772860Y-108223017D01*
X106772860Y-108223017D02*
X106906193Y-108189683D01*
X106906193Y-108189683D02*
X106972860Y-108123017D01*
X106972860Y-108123017D02*
X107006193Y-108056350D01*
X107006193Y-108056350D02*
X107006193Y-107923017D01*
X107006193Y-107923017D02*
X106972860Y-107856350D01*
X106972860Y-107856350D02*
X106906193Y-107789683D01*
X106906193Y-107789683D02*
X106772860Y-107756350D01*
X106772860Y-107756350D02*
X106539526Y-107756350D01*
X106539526Y-107756350D02*
X106406193Y-107789683D01*
X106406193Y-107789683D02*
X106339526Y-107856350D01*
X106339526Y-107856350D02*
X106306193Y-107923017D01*
X106372860Y-108489683D02*
X106339526Y-108523016D01*
X106339526Y-108523016D02*
X106306193Y-108589683D01*
X106306193Y-108589683D02*
X106306193Y-108756350D01*
X106306193Y-108756350D02*
X106339526Y-108823016D01*
X106339526Y-108823016D02*
X106372860Y-108856350D01*
X106372860Y-108856350D02*
X106439526Y-108889683D01*
X106439526Y-108889683D02*
X106506193Y-108889683D01*
X106506193Y-108889683D02*
X106606193Y-108856350D01*
X106606193Y-108856350D02*
X107006193Y-108456350D01*
X107006193Y-108456350D02*
X107006193Y-108889683D01*
X106306193Y-109489683D02*
X106306193Y-109356350D01*
X106306193Y-109356350D02*
X106339526Y-109289683D01*
X106339526Y-109289683D02*
X106372860Y-109256350D01*
X106372860Y-109256350D02*
X106472860Y-109189683D01*
X106472860Y-109189683D02*
X106606193Y-109156350D01*
X106606193Y-109156350D02*
X106872860Y-109156350D01*
X106872860Y-109156350D02*
X106939526Y-109189683D01*
X106939526Y-109189683D02*
X106972860Y-109223017D01*
X106972860Y-109223017D02*
X107006193Y-109289683D01*
X107006193Y-109289683D02*
X107006193Y-109423017D01*
X107006193Y-109423017D02*
X106972860Y-109489683D01*
X106972860Y-109489683D02*
X106939526Y-109523017D01*
X106939526Y-109523017D02*
X106872860Y-109556350D01*
X106872860Y-109556350D02*
X106706193Y-109556350D01*
X106706193Y-109556350D02*
X106639526Y-109523017D01*
X106639526Y-109523017D02*
X106606193Y-109489683D01*
X106606193Y-109489683D02*
X106572860Y-109423017D01*
X106572860Y-109423017D02*
X106572860Y-109289683D01*
X106572860Y-109289683D02*
X106606193Y-109223017D01*
X106606193Y-109223017D02*
X106639526Y-109189683D01*
X106639526Y-109189683D02*
X106706193Y-109156350D01*
X93756366Y-106296017D02*
X93723033Y-106229350D01*
X93723033Y-106229350D02*
X93723033Y-106129350D01*
X93723033Y-106129350D02*
X93756366Y-106029350D01*
X93756366Y-106029350D02*
X93823033Y-105962684D01*
X93823033Y-105962684D02*
X93889700Y-105929350D01*
X93889700Y-105929350D02*
X94023033Y-105896017D01*
X94023033Y-105896017D02*
X94123033Y-105896017D01*
X94123033Y-105896017D02*
X94256366Y-105929350D01*
X94256366Y-105929350D02*
X94323033Y-105962684D01*
X94323033Y-105962684D02*
X94389700Y-106029350D01*
X94389700Y-106029350D02*
X94423033Y-106129350D01*
X94423033Y-106129350D02*
X94423033Y-106196017D01*
X94423033Y-106196017D02*
X94389700Y-106296017D01*
X94389700Y-106296017D02*
X94356366Y-106329350D01*
X94356366Y-106329350D02*
X94123033Y-106329350D01*
X94123033Y-106329350D02*
X94123033Y-106196017D01*
X94423033Y-106629350D02*
X93723033Y-106629350D01*
X93723033Y-106629350D02*
X93723033Y-106896017D01*
X93723033Y-106896017D02*
X93756366Y-106962684D01*
X93756366Y-106962684D02*
X93789700Y-106996017D01*
X93789700Y-106996017D02*
X93856366Y-107029350D01*
X93856366Y-107029350D02*
X93956366Y-107029350D01*
X93956366Y-107029350D02*
X94023033Y-106996017D01*
X94023033Y-106996017D02*
X94056366Y-106962684D01*
X94056366Y-106962684D02*
X94089700Y-106896017D01*
X94089700Y-106896017D02*
X94089700Y-106629350D01*
X94423033Y-107329350D02*
X93723033Y-107329350D01*
X93723033Y-107796017D02*
X93723033Y-107929350D01*
X93723033Y-107929350D02*
X93756366Y-107996017D01*
X93756366Y-107996017D02*
X93823033Y-108062683D01*
X93823033Y-108062683D02*
X93956366Y-108096017D01*
X93956366Y-108096017D02*
X94189700Y-108096017D01*
X94189700Y-108096017D02*
X94323033Y-108062683D01*
X94323033Y-108062683D02*
X94389700Y-107996017D01*
X94389700Y-107996017D02*
X94423033Y-107929350D01*
X94423033Y-107929350D02*
X94423033Y-107796017D01*
X94423033Y-107796017D02*
X94389700Y-107729350D01*
X94389700Y-107729350D02*
X94323033Y-107662683D01*
X94323033Y-107662683D02*
X94189700Y-107629350D01*
X94189700Y-107629350D02*
X93956366Y-107629350D01*
X93956366Y-107629350D02*
X93823033Y-107662683D01*
X93823033Y-107662683D02*
X93756366Y-107729350D01*
X93756366Y-107729350D02*
X93723033Y-107796017D01*
X93723033Y-108329350D02*
X93723033Y-108762683D01*
X93723033Y-108762683D02*
X93989700Y-108529350D01*
X93989700Y-108529350D02*
X93989700Y-108629350D01*
X93989700Y-108629350D02*
X94023033Y-108696016D01*
X94023033Y-108696016D02*
X94056366Y-108729350D01*
X94056366Y-108729350D02*
X94123033Y-108762683D01*
X94123033Y-108762683D02*
X94289700Y-108762683D01*
X94289700Y-108762683D02*
X94356366Y-108729350D01*
X94356366Y-108729350D02*
X94389700Y-108696016D01*
X94389700Y-108696016D02*
X94423033Y-108629350D01*
X94423033Y-108629350D02*
X94423033Y-108429350D01*
X94423033Y-108429350D02*
X94389700Y-108362683D01*
X94389700Y-108362683D02*
X94356366Y-108329350D01*
X93956366Y-109362683D02*
X94423033Y-109362683D01*
X93689700Y-109196017D02*
X94189700Y-109029350D01*
X94189700Y-109029350D02*
X94189700Y-109462683D01*
X93629366Y-87716316D02*
X93596033Y-87649649D01*
X93596033Y-87649649D02*
X93596033Y-87549649D01*
X93596033Y-87549649D02*
X93629366Y-87449649D01*
X93629366Y-87449649D02*
X93696033Y-87382983D01*
X93696033Y-87382983D02*
X93762700Y-87349649D01*
X93762700Y-87349649D02*
X93896033Y-87316316D01*
X93896033Y-87316316D02*
X93996033Y-87316316D01*
X93996033Y-87316316D02*
X94129366Y-87349649D01*
X94129366Y-87349649D02*
X94196033Y-87382983D01*
X94196033Y-87382983D02*
X94262700Y-87449649D01*
X94262700Y-87449649D02*
X94296033Y-87549649D01*
X94296033Y-87549649D02*
X94296033Y-87616316D01*
X94296033Y-87616316D02*
X94262700Y-87716316D01*
X94262700Y-87716316D02*
X94229366Y-87749649D01*
X94229366Y-87749649D02*
X93996033Y-87749649D01*
X93996033Y-87749649D02*
X93996033Y-87616316D01*
X94296033Y-88049649D02*
X93596033Y-88049649D01*
X93596033Y-88049649D02*
X93596033Y-88316316D01*
X93596033Y-88316316D02*
X93629366Y-88382983D01*
X93629366Y-88382983D02*
X93662700Y-88416316D01*
X93662700Y-88416316D02*
X93729366Y-88449649D01*
X93729366Y-88449649D02*
X93829366Y-88449649D01*
X93829366Y-88449649D02*
X93896033Y-88416316D01*
X93896033Y-88416316D02*
X93929366Y-88382983D01*
X93929366Y-88382983D02*
X93962700Y-88316316D01*
X93962700Y-88316316D02*
X93962700Y-88049649D01*
X94296033Y-88749649D02*
X93596033Y-88749649D01*
X93596033Y-89216316D02*
X93596033Y-89349649D01*
X93596033Y-89349649D02*
X93629366Y-89416316D01*
X93629366Y-89416316D02*
X93696033Y-89482982D01*
X93696033Y-89482982D02*
X93829366Y-89516316D01*
X93829366Y-89516316D02*
X94062700Y-89516316D01*
X94062700Y-89516316D02*
X94196033Y-89482982D01*
X94196033Y-89482982D02*
X94262700Y-89416316D01*
X94262700Y-89416316D02*
X94296033Y-89349649D01*
X94296033Y-89349649D02*
X94296033Y-89216316D01*
X94296033Y-89216316D02*
X94262700Y-89149649D01*
X94262700Y-89149649D02*
X94196033Y-89082982D01*
X94196033Y-89082982D02*
X94062700Y-89049649D01*
X94062700Y-89049649D02*
X93829366Y-89049649D01*
X93829366Y-89049649D02*
X93696033Y-89082982D01*
X93696033Y-89082982D02*
X93629366Y-89149649D01*
X93629366Y-89149649D02*
X93596033Y-89216316D01*
X93596033Y-89749649D02*
X93596033Y-90182982D01*
X93596033Y-90182982D02*
X93862700Y-89949649D01*
X93862700Y-89949649D02*
X93862700Y-90049649D01*
X93862700Y-90049649D02*
X93896033Y-90116315D01*
X93896033Y-90116315D02*
X93929366Y-90149649D01*
X93929366Y-90149649D02*
X93996033Y-90182982D01*
X93996033Y-90182982D02*
X94162700Y-90182982D01*
X94162700Y-90182982D02*
X94229366Y-90149649D01*
X94229366Y-90149649D02*
X94262700Y-90116315D01*
X94262700Y-90116315D02*
X94296033Y-90049649D01*
X94296033Y-90049649D02*
X94296033Y-89849649D01*
X94296033Y-89849649D02*
X94262700Y-89782982D01*
X94262700Y-89782982D02*
X94229366Y-89749649D01*
X93562700Y-90982982D02*
X94462700Y-90382982D01*
X93596033Y-91216315D02*
X94162700Y-91216315D01*
X94162700Y-91216315D02*
X94229366Y-91249649D01*
X94229366Y-91249649D02*
X94262700Y-91282982D01*
X94262700Y-91282982D02*
X94296033Y-91349649D01*
X94296033Y-91349649D02*
X94296033Y-91482982D01*
X94296033Y-91482982D02*
X94262700Y-91549649D01*
X94262700Y-91549649D02*
X94229366Y-91582982D01*
X94229366Y-91582982D02*
X94162700Y-91616315D01*
X94162700Y-91616315D02*
X93596033Y-91616315D01*
X93596033Y-92082982D02*
X93596033Y-92149648D01*
X93596033Y-92149648D02*
X93629366Y-92216315D01*
X93629366Y-92216315D02*
X93662700Y-92249648D01*
X93662700Y-92249648D02*
X93729366Y-92282982D01*
X93729366Y-92282982D02*
X93862700Y-92316315D01*
X93862700Y-92316315D02*
X94029366Y-92316315D01*
X94029366Y-92316315D02*
X94162700Y-92282982D01*
X94162700Y-92282982D02*
X94229366Y-92249648D01*
X94229366Y-92249648D02*
X94262700Y-92216315D01*
X94262700Y-92216315D02*
X94296033Y-92149648D01*
X94296033Y-92149648D02*
X94296033Y-92082982D01*
X94296033Y-92082982D02*
X94262700Y-92016315D01*
X94262700Y-92016315D02*
X94229366Y-91982982D01*
X94229366Y-91982982D02*
X94162700Y-91949648D01*
X94162700Y-91949648D02*
X94029366Y-91916315D01*
X94029366Y-91916315D02*
X93862700Y-91916315D01*
X93862700Y-91916315D02*
X93729366Y-91949648D01*
X93729366Y-91949648D02*
X93662700Y-91982982D01*
X93662700Y-91982982D02*
X93629366Y-92016315D01*
X93629366Y-92016315D02*
X93596033Y-92082982D01*
X94296033Y-93016315D02*
X93962700Y-92782982D01*
X94296033Y-92616315D02*
X93596033Y-92616315D01*
X93596033Y-92616315D02*
X93596033Y-92882982D01*
X93596033Y-92882982D02*
X93629366Y-92949649D01*
X93629366Y-92949649D02*
X93662700Y-92982982D01*
X93662700Y-92982982D02*
X93729366Y-93016315D01*
X93729366Y-93016315D02*
X93829366Y-93016315D01*
X93829366Y-93016315D02*
X93896033Y-92982982D01*
X93896033Y-92982982D02*
X93929366Y-92949649D01*
X93929366Y-92949649D02*
X93962700Y-92882982D01*
X93962700Y-92882982D02*
X93962700Y-92616315D01*
X93596033Y-93249649D02*
X94296033Y-93716315D01*
X93596033Y-93716315D02*
X94296033Y-93249649D01*
X94296033Y-93982982D02*
X93596033Y-93982982D01*
X93596033Y-93982982D02*
X93596033Y-94149649D01*
X93596033Y-94149649D02*
X93629366Y-94249649D01*
X93629366Y-94249649D02*
X93696033Y-94316316D01*
X93696033Y-94316316D02*
X93762700Y-94349649D01*
X93762700Y-94349649D02*
X93896033Y-94382982D01*
X93896033Y-94382982D02*
X93996033Y-94382982D01*
X93996033Y-94382982D02*
X94129366Y-94349649D01*
X94129366Y-94349649D02*
X94196033Y-94316316D01*
X94196033Y-94316316D02*
X94262700Y-94249649D01*
X94262700Y-94249649D02*
X94296033Y-94149649D01*
X94296033Y-94149649D02*
X94296033Y-93982982D01*
X113959526Y-87725316D02*
X113926193Y-87658649D01*
X113926193Y-87658649D02*
X113926193Y-87558649D01*
X113926193Y-87558649D02*
X113959526Y-87458649D01*
X113959526Y-87458649D02*
X114026193Y-87391983D01*
X114026193Y-87391983D02*
X114092860Y-87358649D01*
X114092860Y-87358649D02*
X114226193Y-87325316D01*
X114226193Y-87325316D02*
X114326193Y-87325316D01*
X114326193Y-87325316D02*
X114459526Y-87358649D01*
X114459526Y-87358649D02*
X114526193Y-87391983D01*
X114526193Y-87391983D02*
X114592860Y-87458649D01*
X114592860Y-87458649D02*
X114626193Y-87558649D01*
X114626193Y-87558649D02*
X114626193Y-87625316D01*
X114626193Y-87625316D02*
X114592860Y-87725316D01*
X114592860Y-87725316D02*
X114559526Y-87758649D01*
X114559526Y-87758649D02*
X114326193Y-87758649D01*
X114326193Y-87758649D02*
X114326193Y-87625316D01*
X114626193Y-88058649D02*
X113926193Y-88058649D01*
X113926193Y-88058649D02*
X113926193Y-88325316D01*
X113926193Y-88325316D02*
X113959526Y-88391983D01*
X113959526Y-88391983D02*
X113992860Y-88425316D01*
X113992860Y-88425316D02*
X114059526Y-88458649D01*
X114059526Y-88458649D02*
X114159526Y-88458649D01*
X114159526Y-88458649D02*
X114226193Y-88425316D01*
X114226193Y-88425316D02*
X114259526Y-88391983D01*
X114259526Y-88391983D02*
X114292860Y-88325316D01*
X114292860Y-88325316D02*
X114292860Y-88058649D01*
X114626193Y-88758649D02*
X113926193Y-88758649D01*
X113926193Y-89225316D02*
X113926193Y-89358649D01*
X113926193Y-89358649D02*
X113959526Y-89425316D01*
X113959526Y-89425316D02*
X114026193Y-89491982D01*
X114026193Y-89491982D02*
X114159526Y-89525316D01*
X114159526Y-89525316D02*
X114392860Y-89525316D01*
X114392860Y-89525316D02*
X114526193Y-89491982D01*
X114526193Y-89491982D02*
X114592860Y-89425316D01*
X114592860Y-89425316D02*
X114626193Y-89358649D01*
X114626193Y-89358649D02*
X114626193Y-89225316D01*
X114626193Y-89225316D02*
X114592860Y-89158649D01*
X114592860Y-89158649D02*
X114526193Y-89091982D01*
X114526193Y-89091982D02*
X114392860Y-89058649D01*
X114392860Y-89058649D02*
X114159526Y-89058649D01*
X114159526Y-89058649D02*
X114026193Y-89091982D01*
X114026193Y-89091982D02*
X113959526Y-89158649D01*
X113959526Y-89158649D02*
X113926193Y-89225316D01*
X114159526Y-90125315D02*
X114626193Y-90125315D01*
X113892860Y-89958649D02*
X114392860Y-89791982D01*
X114392860Y-89791982D02*
X114392860Y-90225315D01*
X121579526Y-87622650D02*
X121546193Y-87555983D01*
X121546193Y-87555983D02*
X121546193Y-87455983D01*
X121546193Y-87455983D02*
X121579526Y-87355983D01*
X121579526Y-87355983D02*
X121646193Y-87289317D01*
X121646193Y-87289317D02*
X121712860Y-87255983D01*
X121712860Y-87255983D02*
X121846193Y-87222650D01*
X121846193Y-87222650D02*
X121946193Y-87222650D01*
X121946193Y-87222650D02*
X122079526Y-87255983D01*
X122079526Y-87255983D02*
X122146193Y-87289317D01*
X122146193Y-87289317D02*
X122212860Y-87355983D01*
X122212860Y-87355983D02*
X122246193Y-87455983D01*
X122246193Y-87455983D02*
X122246193Y-87522650D01*
X122246193Y-87522650D02*
X122212860Y-87622650D01*
X122212860Y-87622650D02*
X122179526Y-87655983D01*
X122179526Y-87655983D02*
X121946193Y-87655983D01*
X121946193Y-87655983D02*
X121946193Y-87522650D01*
X122246193Y-87955983D02*
X121546193Y-87955983D01*
X121546193Y-87955983D02*
X121546193Y-88222650D01*
X121546193Y-88222650D02*
X121579526Y-88289317D01*
X121579526Y-88289317D02*
X121612860Y-88322650D01*
X121612860Y-88322650D02*
X121679526Y-88355983D01*
X121679526Y-88355983D02*
X121779526Y-88355983D01*
X121779526Y-88355983D02*
X121846193Y-88322650D01*
X121846193Y-88322650D02*
X121879526Y-88289317D01*
X121879526Y-88289317D02*
X121912860Y-88222650D01*
X121912860Y-88222650D02*
X121912860Y-87955983D01*
X122246193Y-88655983D02*
X121546193Y-88655983D01*
X121546193Y-89122650D02*
X121546193Y-89255983D01*
X121546193Y-89255983D02*
X121579526Y-89322650D01*
X121579526Y-89322650D02*
X121646193Y-89389316D01*
X121646193Y-89389316D02*
X121779526Y-89422650D01*
X121779526Y-89422650D02*
X122012860Y-89422650D01*
X122012860Y-89422650D02*
X122146193Y-89389316D01*
X122146193Y-89389316D02*
X122212860Y-89322650D01*
X122212860Y-89322650D02*
X122246193Y-89255983D01*
X122246193Y-89255983D02*
X122246193Y-89122650D01*
X122246193Y-89122650D02*
X122212860Y-89055983D01*
X122212860Y-89055983D02*
X122146193Y-88989316D01*
X122146193Y-88989316D02*
X122012860Y-88955983D01*
X122012860Y-88955983D02*
X121779526Y-88955983D01*
X121779526Y-88955983D02*
X121646193Y-88989316D01*
X121646193Y-88989316D02*
X121579526Y-89055983D01*
X121579526Y-89055983D02*
X121546193Y-89122650D01*
X122246193Y-90089316D02*
X122246193Y-89689316D01*
X122246193Y-89889316D02*
X121546193Y-89889316D01*
X121546193Y-89889316D02*
X121646193Y-89822649D01*
X121646193Y-89822649D02*
X121712860Y-89755983D01*
X121712860Y-89755983D02*
X121746193Y-89689316D01*
X121546193Y-90722650D02*
X121546193Y-90389316D01*
X121546193Y-90389316D02*
X121879526Y-90355983D01*
X121879526Y-90355983D02*
X121846193Y-90389316D01*
X121846193Y-90389316D02*
X121812860Y-90455983D01*
X121812860Y-90455983D02*
X121812860Y-90622650D01*
X121812860Y-90622650D02*
X121846193Y-90689316D01*
X121846193Y-90689316D02*
X121879526Y-90722650D01*
X121879526Y-90722650D02*
X121946193Y-90755983D01*
X121946193Y-90755983D02*
X122112860Y-90755983D01*
X122112860Y-90755983D02*
X122179526Y-90722650D01*
X122179526Y-90722650D02*
X122212860Y-90689316D01*
X122212860Y-90689316D02*
X122246193Y-90622650D01*
X122246193Y-90622650D02*
X122246193Y-90455983D01*
X122246193Y-90455983D02*
X122212860Y-90389316D01*
X122212860Y-90389316D02*
X122179526Y-90355983D01*
X121512860Y-91555983D02*
X122412860Y-90955983D01*
X122246193Y-91789316D02*
X121546193Y-91789316D01*
X121546193Y-91789316D02*
X122046193Y-92022650D01*
X122046193Y-92022650D02*
X121546193Y-92255983D01*
X121546193Y-92255983D02*
X122246193Y-92255983D01*
X121546193Y-92489316D02*
X121546193Y-92889316D01*
X122246193Y-92689316D02*
X121546193Y-92689316D01*
X122246193Y-93122649D02*
X121546193Y-93122649D01*
X121546193Y-93122649D02*
X121546193Y-93289316D01*
X121546193Y-93289316D02*
X121579526Y-93389316D01*
X121579526Y-93389316D02*
X121646193Y-93455983D01*
X121646193Y-93455983D02*
X121712860Y-93489316D01*
X121712860Y-93489316D02*
X121846193Y-93522649D01*
X121846193Y-93522649D02*
X121946193Y-93522649D01*
X121946193Y-93522649D02*
X122079526Y-93489316D01*
X122079526Y-93489316D02*
X122146193Y-93455983D01*
X122146193Y-93455983D02*
X122212860Y-93389316D01*
X122212860Y-93389316D02*
X122246193Y-93289316D01*
X122246193Y-93289316D02*
X122246193Y-93122649D01*
X121546193Y-93955983D02*
X121546193Y-94089316D01*
X121546193Y-94089316D02*
X121579526Y-94155983D01*
X121579526Y-94155983D02*
X121646193Y-94222649D01*
X121646193Y-94222649D02*
X121779526Y-94255983D01*
X121779526Y-94255983D02*
X122012860Y-94255983D01*
X122012860Y-94255983D02*
X122146193Y-94222649D01*
X122146193Y-94222649D02*
X122212860Y-94155983D01*
X122212860Y-94155983D02*
X122246193Y-94089316D01*
X122246193Y-94089316D02*
X122246193Y-93955983D01*
X122246193Y-93955983D02*
X122212860Y-93889316D01*
X122212860Y-93889316D02*
X122146193Y-93822649D01*
X122146193Y-93822649D02*
X122012860Y-93789316D01*
X122012860Y-93789316D02*
X121779526Y-93789316D01*
X121779526Y-93789316D02*
X121646193Y-93822649D01*
X121646193Y-93822649D02*
X121579526Y-93889316D01*
X121579526Y-93889316D02*
X121546193Y-93955983D01*
X103799526Y-106296017D02*
X103766193Y-106229350D01*
X103766193Y-106229350D02*
X103766193Y-106129350D01*
X103766193Y-106129350D02*
X103799526Y-106029350D01*
X103799526Y-106029350D02*
X103866193Y-105962684D01*
X103866193Y-105962684D02*
X103932860Y-105929350D01*
X103932860Y-105929350D02*
X104066193Y-105896017D01*
X104066193Y-105896017D02*
X104166193Y-105896017D01*
X104166193Y-105896017D02*
X104299526Y-105929350D01*
X104299526Y-105929350D02*
X104366193Y-105962684D01*
X104366193Y-105962684D02*
X104432860Y-106029350D01*
X104432860Y-106029350D02*
X104466193Y-106129350D01*
X104466193Y-106129350D02*
X104466193Y-106196017D01*
X104466193Y-106196017D02*
X104432860Y-106296017D01*
X104432860Y-106296017D02*
X104399526Y-106329350D01*
X104399526Y-106329350D02*
X104166193Y-106329350D01*
X104166193Y-106329350D02*
X104166193Y-106196017D01*
X104466193Y-106629350D02*
X103766193Y-106629350D01*
X103766193Y-106629350D02*
X103766193Y-106896017D01*
X103766193Y-106896017D02*
X103799526Y-106962684D01*
X103799526Y-106962684D02*
X103832860Y-106996017D01*
X103832860Y-106996017D02*
X103899526Y-107029350D01*
X103899526Y-107029350D02*
X103999526Y-107029350D01*
X103999526Y-107029350D02*
X104066193Y-106996017D01*
X104066193Y-106996017D02*
X104099526Y-106962684D01*
X104099526Y-106962684D02*
X104132860Y-106896017D01*
X104132860Y-106896017D02*
X104132860Y-106629350D01*
X104466193Y-107329350D02*
X103766193Y-107329350D01*
X103766193Y-107796017D02*
X103766193Y-107929350D01*
X103766193Y-107929350D02*
X103799526Y-107996017D01*
X103799526Y-107996017D02*
X103866193Y-108062683D01*
X103866193Y-108062683D02*
X103999526Y-108096017D01*
X103999526Y-108096017D02*
X104232860Y-108096017D01*
X104232860Y-108096017D02*
X104366193Y-108062683D01*
X104366193Y-108062683D02*
X104432860Y-107996017D01*
X104432860Y-107996017D02*
X104466193Y-107929350D01*
X104466193Y-107929350D02*
X104466193Y-107796017D01*
X104466193Y-107796017D02*
X104432860Y-107729350D01*
X104432860Y-107729350D02*
X104366193Y-107662683D01*
X104366193Y-107662683D02*
X104232860Y-107629350D01*
X104232860Y-107629350D02*
X103999526Y-107629350D01*
X103999526Y-107629350D02*
X103866193Y-107662683D01*
X103866193Y-107662683D02*
X103799526Y-107729350D01*
X103799526Y-107729350D02*
X103766193Y-107796017D01*
X103832860Y-108362683D02*
X103799526Y-108396016D01*
X103799526Y-108396016D02*
X103766193Y-108462683D01*
X103766193Y-108462683D02*
X103766193Y-108629350D01*
X103766193Y-108629350D02*
X103799526Y-108696016D01*
X103799526Y-108696016D02*
X103832860Y-108729350D01*
X103832860Y-108729350D02*
X103899526Y-108762683D01*
X103899526Y-108762683D02*
X103966193Y-108762683D01*
X103966193Y-108762683D02*
X104066193Y-108729350D01*
X104066193Y-108729350D02*
X104466193Y-108329350D01*
X104466193Y-108329350D02*
X104466193Y-108762683D01*
X103766193Y-109396017D02*
X103766193Y-109062683D01*
X103766193Y-109062683D02*
X104099526Y-109029350D01*
X104099526Y-109029350D02*
X104066193Y-109062683D01*
X104066193Y-109062683D02*
X104032860Y-109129350D01*
X104032860Y-109129350D02*
X104032860Y-109296017D01*
X104032860Y-109296017D02*
X104066193Y-109362683D01*
X104066193Y-109362683D02*
X104099526Y-109396017D01*
X104099526Y-109396017D02*
X104166193Y-109429350D01*
X104166193Y-109429350D02*
X104332860Y-109429350D01*
X104332860Y-109429350D02*
X104399526Y-109396017D01*
X104399526Y-109396017D02*
X104432860Y-109362683D01*
X104432860Y-109362683D02*
X104466193Y-109296017D01*
X104466193Y-109296017D02*
X104466193Y-109129350D01*
X104466193Y-109129350D02*
X104432860Y-109062683D01*
X104432860Y-109062683D02*
X104399526Y-109029350D01*
X83401819Y-107048541D02*
X83401819Y-107667588D01*
X83401819Y-107667588D02*
X83782771Y-107334255D01*
X83782771Y-107334255D02*
X83782771Y-107477112D01*
X83782771Y-107477112D02*
X83830390Y-107572350D01*
X83830390Y-107572350D02*
X83878009Y-107619969D01*
X83878009Y-107619969D02*
X83973247Y-107667588D01*
X83973247Y-107667588D02*
X84211342Y-107667588D01*
X84211342Y-107667588D02*
X84306580Y-107619969D01*
X84306580Y-107619969D02*
X84354200Y-107572350D01*
X84354200Y-107572350D02*
X84401819Y-107477112D01*
X84401819Y-107477112D02*
X84401819Y-107191398D01*
X84401819Y-107191398D02*
X84354200Y-107096160D01*
X84354200Y-107096160D02*
X84306580Y-107048541D01*
X83401819Y-107953303D02*
X84401819Y-108286636D01*
X84401819Y-108286636D02*
X83401819Y-108619969D01*
X83401819Y-108858065D02*
X83401819Y-109477112D01*
X83401819Y-109477112D02*
X83782771Y-109143779D01*
X83782771Y-109143779D02*
X83782771Y-109286636D01*
X83782771Y-109286636D02*
X83830390Y-109381874D01*
X83830390Y-109381874D02*
X83878009Y-109429493D01*
X83878009Y-109429493D02*
X83973247Y-109477112D01*
X83973247Y-109477112D02*
X84211342Y-109477112D01*
X84211342Y-109477112D02*
X84306580Y-109429493D01*
X84306580Y-109429493D02*
X84354200Y-109381874D01*
X84354200Y-109381874D02*
X84401819Y-109286636D01*
X84401819Y-109286636D02*
X84401819Y-109000922D01*
X84401819Y-109000922D02*
X84354200Y-108905684D01*
X84354200Y-108905684D02*
X84306580Y-108858065D01*
X116342438Y-107286588D02*
X116294819Y-107191350D01*
X116294819Y-107191350D02*
X116294819Y-107048493D01*
X116294819Y-107048493D02*
X116342438Y-106905636D01*
X116342438Y-106905636D02*
X116437676Y-106810398D01*
X116437676Y-106810398D02*
X116532914Y-106762779D01*
X116532914Y-106762779D02*
X116723390Y-106715160D01*
X116723390Y-106715160D02*
X116866247Y-106715160D01*
X116866247Y-106715160D02*
X117056723Y-106762779D01*
X117056723Y-106762779D02*
X117151961Y-106810398D01*
X117151961Y-106810398D02*
X117247200Y-106905636D01*
X117247200Y-106905636D02*
X117294819Y-107048493D01*
X117294819Y-107048493D02*
X117294819Y-107143731D01*
X117294819Y-107143731D02*
X117247200Y-107286588D01*
X117247200Y-107286588D02*
X117199580Y-107334207D01*
X117199580Y-107334207D02*
X116866247Y-107334207D01*
X116866247Y-107334207D02*
X116866247Y-107143731D01*
X117294819Y-107762779D02*
X116294819Y-107762779D01*
X116294819Y-107762779D02*
X117294819Y-108334207D01*
X117294819Y-108334207D02*
X116294819Y-108334207D01*
X117294819Y-108810398D02*
X116294819Y-108810398D01*
X116294819Y-108810398D02*
X116294819Y-109048493D01*
X116294819Y-109048493D02*
X116342438Y-109191350D01*
X116342438Y-109191350D02*
X116437676Y-109286588D01*
X116437676Y-109286588D02*
X116532914Y-109334207D01*
X116532914Y-109334207D02*
X116723390Y-109381826D01*
X116723390Y-109381826D02*
X116866247Y-109381826D01*
X116866247Y-109381826D02*
X117056723Y-109334207D01*
X117056723Y-109334207D02*
X117151961Y-109286588D01*
X117151961Y-109286588D02*
X117247200Y-109191350D01*
X117247200Y-109191350D02*
X117294819Y-109048493D01*
X117294819Y-109048493D02*
X117294819Y-108810398D01*
X119039526Y-102867017D02*
X119006193Y-102800350D01*
X119006193Y-102800350D02*
X119006193Y-102700350D01*
X119006193Y-102700350D02*
X119039526Y-102600350D01*
X119039526Y-102600350D02*
X119106193Y-102533684D01*
X119106193Y-102533684D02*
X119172860Y-102500350D01*
X119172860Y-102500350D02*
X119306193Y-102467017D01*
X119306193Y-102467017D02*
X119406193Y-102467017D01*
X119406193Y-102467017D02*
X119539526Y-102500350D01*
X119539526Y-102500350D02*
X119606193Y-102533684D01*
X119606193Y-102533684D02*
X119672860Y-102600350D01*
X119672860Y-102600350D02*
X119706193Y-102700350D01*
X119706193Y-102700350D02*
X119706193Y-102767017D01*
X119706193Y-102767017D02*
X119672860Y-102867017D01*
X119672860Y-102867017D02*
X119639526Y-102900350D01*
X119639526Y-102900350D02*
X119406193Y-102900350D01*
X119406193Y-102900350D02*
X119406193Y-102767017D01*
X119706193Y-103200350D02*
X119006193Y-103200350D01*
X119006193Y-103200350D02*
X119006193Y-103467017D01*
X119006193Y-103467017D02*
X119039526Y-103533684D01*
X119039526Y-103533684D02*
X119072860Y-103567017D01*
X119072860Y-103567017D02*
X119139526Y-103600350D01*
X119139526Y-103600350D02*
X119239526Y-103600350D01*
X119239526Y-103600350D02*
X119306193Y-103567017D01*
X119306193Y-103567017D02*
X119339526Y-103533684D01*
X119339526Y-103533684D02*
X119372860Y-103467017D01*
X119372860Y-103467017D02*
X119372860Y-103200350D01*
X119706193Y-103900350D02*
X119006193Y-103900350D01*
X119006193Y-104367017D02*
X119006193Y-104500350D01*
X119006193Y-104500350D02*
X119039526Y-104567017D01*
X119039526Y-104567017D02*
X119106193Y-104633683D01*
X119106193Y-104633683D02*
X119239526Y-104667017D01*
X119239526Y-104667017D02*
X119472860Y-104667017D01*
X119472860Y-104667017D02*
X119606193Y-104633683D01*
X119606193Y-104633683D02*
X119672860Y-104567017D01*
X119672860Y-104567017D02*
X119706193Y-104500350D01*
X119706193Y-104500350D02*
X119706193Y-104367017D01*
X119706193Y-104367017D02*
X119672860Y-104300350D01*
X119672860Y-104300350D02*
X119606193Y-104233683D01*
X119606193Y-104233683D02*
X119472860Y-104200350D01*
X119472860Y-104200350D02*
X119239526Y-104200350D01*
X119239526Y-104200350D02*
X119106193Y-104233683D01*
X119106193Y-104233683D02*
X119039526Y-104300350D01*
X119039526Y-104300350D02*
X119006193Y-104367017D01*
X119706193Y-105333683D02*
X119706193Y-104933683D01*
X119706193Y-105133683D02*
X119006193Y-105133683D01*
X119006193Y-105133683D02*
X119106193Y-105067016D01*
X119106193Y-105067016D02*
X119172860Y-105000350D01*
X119172860Y-105000350D02*
X119206193Y-104933683D01*
X119006193Y-105567017D02*
X119006193Y-106000350D01*
X119006193Y-106000350D02*
X119272860Y-105767017D01*
X119272860Y-105767017D02*
X119272860Y-105867017D01*
X119272860Y-105867017D02*
X119306193Y-105933683D01*
X119306193Y-105933683D02*
X119339526Y-105967017D01*
X119339526Y-105967017D02*
X119406193Y-106000350D01*
X119406193Y-106000350D02*
X119572860Y-106000350D01*
X119572860Y-106000350D02*
X119639526Y-105967017D01*
X119639526Y-105967017D02*
X119672860Y-105933683D01*
X119672860Y-105933683D02*
X119706193Y-105867017D01*
X119706193Y-105867017D02*
X119706193Y-105667017D01*
X119706193Y-105667017D02*
X119672860Y-105600350D01*
X119672860Y-105600350D02*
X119639526Y-105567017D01*
X118972860Y-106800350D02*
X119872860Y-106200350D01*
X119706193Y-107033683D02*
X119006193Y-107033683D01*
X119006193Y-107033683D02*
X119506193Y-107267017D01*
X119506193Y-107267017D02*
X119006193Y-107500350D01*
X119006193Y-107500350D02*
X119706193Y-107500350D01*
X119006193Y-107733683D02*
X119006193Y-108133683D01*
X119706193Y-107933683D02*
X119006193Y-107933683D01*
X119639526Y-108767016D02*
X119672860Y-108733683D01*
X119672860Y-108733683D02*
X119706193Y-108633683D01*
X119706193Y-108633683D02*
X119706193Y-108567016D01*
X119706193Y-108567016D02*
X119672860Y-108467016D01*
X119672860Y-108467016D02*
X119606193Y-108400350D01*
X119606193Y-108400350D02*
X119539526Y-108367016D01*
X119539526Y-108367016D02*
X119406193Y-108333683D01*
X119406193Y-108333683D02*
X119306193Y-108333683D01*
X119306193Y-108333683D02*
X119172860Y-108367016D01*
X119172860Y-108367016D02*
X119106193Y-108400350D01*
X119106193Y-108400350D02*
X119039526Y-108467016D01*
X119039526Y-108467016D02*
X119006193Y-108567016D01*
X119006193Y-108567016D02*
X119006193Y-108633683D01*
X119006193Y-108633683D02*
X119039526Y-108733683D01*
X119039526Y-108733683D02*
X119072860Y-108767016D01*
X119706193Y-109067016D02*
X119006193Y-109067016D01*
X119706193Y-109467016D02*
X119306193Y-109167016D01*
X119006193Y-109467016D02*
X119406193Y-109067016D01*
X111419526Y-87439649D02*
X111386193Y-87372982D01*
X111386193Y-87372982D02*
X111386193Y-87272982D01*
X111386193Y-87272982D02*
X111419526Y-87172982D01*
X111419526Y-87172982D02*
X111486193Y-87106316D01*
X111486193Y-87106316D02*
X111552860Y-87072982D01*
X111552860Y-87072982D02*
X111686193Y-87039649D01*
X111686193Y-87039649D02*
X111786193Y-87039649D01*
X111786193Y-87039649D02*
X111919526Y-87072982D01*
X111919526Y-87072982D02*
X111986193Y-87106316D01*
X111986193Y-87106316D02*
X112052860Y-87172982D01*
X112052860Y-87172982D02*
X112086193Y-87272982D01*
X112086193Y-87272982D02*
X112086193Y-87339649D01*
X112086193Y-87339649D02*
X112052860Y-87439649D01*
X112052860Y-87439649D02*
X112019526Y-87472982D01*
X112019526Y-87472982D02*
X111786193Y-87472982D01*
X111786193Y-87472982D02*
X111786193Y-87339649D01*
X112086193Y-87772982D02*
X111386193Y-87772982D01*
X111386193Y-87772982D02*
X111386193Y-88039649D01*
X111386193Y-88039649D02*
X111419526Y-88106316D01*
X111419526Y-88106316D02*
X111452860Y-88139649D01*
X111452860Y-88139649D02*
X111519526Y-88172982D01*
X111519526Y-88172982D02*
X111619526Y-88172982D01*
X111619526Y-88172982D02*
X111686193Y-88139649D01*
X111686193Y-88139649D02*
X111719526Y-88106316D01*
X111719526Y-88106316D02*
X111752860Y-88039649D01*
X111752860Y-88039649D02*
X111752860Y-87772982D01*
X112086193Y-88472982D02*
X111386193Y-88472982D01*
X111386193Y-88939649D02*
X111386193Y-89072982D01*
X111386193Y-89072982D02*
X111419526Y-89139649D01*
X111419526Y-89139649D02*
X111486193Y-89206315D01*
X111486193Y-89206315D02*
X111619526Y-89239649D01*
X111619526Y-89239649D02*
X111852860Y-89239649D01*
X111852860Y-89239649D02*
X111986193Y-89206315D01*
X111986193Y-89206315D02*
X112052860Y-89139649D01*
X112052860Y-89139649D02*
X112086193Y-89072982D01*
X112086193Y-89072982D02*
X112086193Y-88939649D01*
X112086193Y-88939649D02*
X112052860Y-88872982D01*
X112052860Y-88872982D02*
X111986193Y-88806315D01*
X111986193Y-88806315D02*
X111852860Y-88772982D01*
X111852860Y-88772982D02*
X111619526Y-88772982D01*
X111619526Y-88772982D02*
X111486193Y-88806315D01*
X111486193Y-88806315D02*
X111419526Y-88872982D01*
X111419526Y-88872982D02*
X111386193Y-88939649D01*
X112086193Y-89906315D02*
X112086193Y-89506315D01*
X112086193Y-89706315D02*
X111386193Y-89706315D01*
X111386193Y-89706315D02*
X111486193Y-89639648D01*
X111486193Y-89639648D02*
X111552860Y-89572982D01*
X111552860Y-89572982D02*
X111586193Y-89506315D01*
X111386193Y-90506315D02*
X111386193Y-90372982D01*
X111386193Y-90372982D02*
X111419526Y-90306315D01*
X111419526Y-90306315D02*
X111452860Y-90272982D01*
X111452860Y-90272982D02*
X111552860Y-90206315D01*
X111552860Y-90206315D02*
X111686193Y-90172982D01*
X111686193Y-90172982D02*
X111952860Y-90172982D01*
X111952860Y-90172982D02*
X112019526Y-90206315D01*
X112019526Y-90206315D02*
X112052860Y-90239649D01*
X112052860Y-90239649D02*
X112086193Y-90306315D01*
X112086193Y-90306315D02*
X112086193Y-90439649D01*
X112086193Y-90439649D02*
X112052860Y-90506315D01*
X112052860Y-90506315D02*
X112019526Y-90539649D01*
X112019526Y-90539649D02*
X111952860Y-90572982D01*
X111952860Y-90572982D02*
X111786193Y-90572982D01*
X111786193Y-90572982D02*
X111719526Y-90539649D01*
X111719526Y-90539649D02*
X111686193Y-90506315D01*
X111686193Y-90506315D02*
X111652860Y-90439649D01*
X111652860Y-90439649D02*
X111652860Y-90306315D01*
X111652860Y-90306315D02*
X111686193Y-90239649D01*
X111686193Y-90239649D02*
X111719526Y-90206315D01*
X111719526Y-90206315D02*
X111786193Y-90172982D01*
X88549366Y-87693649D02*
X88516033Y-87626982D01*
X88516033Y-87626982D02*
X88516033Y-87526982D01*
X88516033Y-87526982D02*
X88549366Y-87426982D01*
X88549366Y-87426982D02*
X88616033Y-87360316D01*
X88616033Y-87360316D02*
X88682700Y-87326982D01*
X88682700Y-87326982D02*
X88816033Y-87293649D01*
X88816033Y-87293649D02*
X88916033Y-87293649D01*
X88916033Y-87293649D02*
X89049366Y-87326982D01*
X89049366Y-87326982D02*
X89116033Y-87360316D01*
X89116033Y-87360316D02*
X89182700Y-87426982D01*
X89182700Y-87426982D02*
X89216033Y-87526982D01*
X89216033Y-87526982D02*
X89216033Y-87593649D01*
X89216033Y-87593649D02*
X89182700Y-87693649D01*
X89182700Y-87693649D02*
X89149366Y-87726982D01*
X89149366Y-87726982D02*
X88916033Y-87726982D01*
X88916033Y-87726982D02*
X88916033Y-87593649D01*
X89216033Y-88026982D02*
X88516033Y-88026982D01*
X88516033Y-88026982D02*
X88516033Y-88293649D01*
X88516033Y-88293649D02*
X88549366Y-88360316D01*
X88549366Y-88360316D02*
X88582700Y-88393649D01*
X88582700Y-88393649D02*
X88649366Y-88426982D01*
X88649366Y-88426982D02*
X88749366Y-88426982D01*
X88749366Y-88426982D02*
X88816033Y-88393649D01*
X88816033Y-88393649D02*
X88849366Y-88360316D01*
X88849366Y-88360316D02*
X88882700Y-88293649D01*
X88882700Y-88293649D02*
X88882700Y-88026982D01*
X89216033Y-88726982D02*
X88516033Y-88726982D01*
X88516033Y-89193649D02*
X88516033Y-89326982D01*
X88516033Y-89326982D02*
X88549366Y-89393649D01*
X88549366Y-89393649D02*
X88616033Y-89460315D01*
X88616033Y-89460315D02*
X88749366Y-89493649D01*
X88749366Y-89493649D02*
X88982700Y-89493649D01*
X88982700Y-89493649D02*
X89116033Y-89460315D01*
X89116033Y-89460315D02*
X89182700Y-89393649D01*
X89182700Y-89393649D02*
X89216033Y-89326982D01*
X89216033Y-89326982D02*
X89216033Y-89193649D01*
X89216033Y-89193649D02*
X89182700Y-89126982D01*
X89182700Y-89126982D02*
X89116033Y-89060315D01*
X89116033Y-89060315D02*
X88982700Y-89026982D01*
X88982700Y-89026982D02*
X88749366Y-89026982D01*
X88749366Y-89026982D02*
X88616033Y-89060315D01*
X88616033Y-89060315D02*
X88549366Y-89126982D01*
X88549366Y-89126982D02*
X88516033Y-89193649D01*
X88582700Y-89760315D02*
X88549366Y-89793648D01*
X88549366Y-89793648D02*
X88516033Y-89860315D01*
X88516033Y-89860315D02*
X88516033Y-90026982D01*
X88516033Y-90026982D02*
X88549366Y-90093648D01*
X88549366Y-90093648D02*
X88582700Y-90126982D01*
X88582700Y-90126982D02*
X88649366Y-90160315D01*
X88649366Y-90160315D02*
X88716033Y-90160315D01*
X88716033Y-90160315D02*
X88816033Y-90126982D01*
X88816033Y-90126982D02*
X89216033Y-89726982D01*
X89216033Y-89726982D02*
X89216033Y-90160315D01*
X88582700Y-90426982D02*
X88549366Y-90460315D01*
X88549366Y-90460315D02*
X88516033Y-90526982D01*
X88516033Y-90526982D02*
X88516033Y-90693649D01*
X88516033Y-90693649D02*
X88549366Y-90760315D01*
X88549366Y-90760315D02*
X88582700Y-90793649D01*
X88582700Y-90793649D02*
X88649366Y-90826982D01*
X88649366Y-90826982D02*
X88716033Y-90826982D01*
X88716033Y-90826982D02*
X88816033Y-90793649D01*
X88816033Y-90793649D02*
X89216033Y-90393649D01*
X89216033Y-90393649D02*
X89216033Y-90826982D01*
X86019526Y-87693649D02*
X85986193Y-87626982D01*
X85986193Y-87626982D02*
X85986193Y-87526982D01*
X85986193Y-87526982D02*
X86019526Y-87426982D01*
X86019526Y-87426982D02*
X86086193Y-87360316D01*
X86086193Y-87360316D02*
X86152860Y-87326982D01*
X86152860Y-87326982D02*
X86286193Y-87293649D01*
X86286193Y-87293649D02*
X86386193Y-87293649D01*
X86386193Y-87293649D02*
X86519526Y-87326982D01*
X86519526Y-87326982D02*
X86586193Y-87360316D01*
X86586193Y-87360316D02*
X86652860Y-87426982D01*
X86652860Y-87426982D02*
X86686193Y-87526982D01*
X86686193Y-87526982D02*
X86686193Y-87593649D01*
X86686193Y-87593649D02*
X86652860Y-87693649D01*
X86652860Y-87693649D02*
X86619526Y-87726982D01*
X86619526Y-87726982D02*
X86386193Y-87726982D01*
X86386193Y-87726982D02*
X86386193Y-87593649D01*
X86686193Y-88026982D02*
X85986193Y-88026982D01*
X85986193Y-88026982D02*
X85986193Y-88293649D01*
X85986193Y-88293649D02*
X86019526Y-88360316D01*
X86019526Y-88360316D02*
X86052860Y-88393649D01*
X86052860Y-88393649D02*
X86119526Y-88426982D01*
X86119526Y-88426982D02*
X86219526Y-88426982D01*
X86219526Y-88426982D02*
X86286193Y-88393649D01*
X86286193Y-88393649D02*
X86319526Y-88360316D01*
X86319526Y-88360316D02*
X86352860Y-88293649D01*
X86352860Y-88293649D02*
X86352860Y-88026982D01*
X86686193Y-88726982D02*
X85986193Y-88726982D01*
X85986193Y-89193649D02*
X85986193Y-89326982D01*
X85986193Y-89326982D02*
X86019526Y-89393649D01*
X86019526Y-89393649D02*
X86086193Y-89460315D01*
X86086193Y-89460315D02*
X86219526Y-89493649D01*
X86219526Y-89493649D02*
X86452860Y-89493649D01*
X86452860Y-89493649D02*
X86586193Y-89460315D01*
X86586193Y-89460315D02*
X86652860Y-89393649D01*
X86652860Y-89393649D02*
X86686193Y-89326982D01*
X86686193Y-89326982D02*
X86686193Y-89193649D01*
X86686193Y-89193649D02*
X86652860Y-89126982D01*
X86652860Y-89126982D02*
X86586193Y-89060315D01*
X86586193Y-89060315D02*
X86452860Y-89026982D01*
X86452860Y-89026982D02*
X86219526Y-89026982D01*
X86219526Y-89026982D02*
X86086193Y-89060315D01*
X86086193Y-89060315D02*
X86019526Y-89126982D01*
X86019526Y-89126982D02*
X85986193Y-89193649D01*
X86052860Y-89760315D02*
X86019526Y-89793648D01*
X86019526Y-89793648D02*
X85986193Y-89860315D01*
X85986193Y-89860315D02*
X85986193Y-90026982D01*
X85986193Y-90026982D02*
X86019526Y-90093648D01*
X86019526Y-90093648D02*
X86052860Y-90126982D01*
X86052860Y-90126982D02*
X86119526Y-90160315D01*
X86119526Y-90160315D02*
X86186193Y-90160315D01*
X86186193Y-90160315D02*
X86286193Y-90126982D01*
X86286193Y-90126982D02*
X86686193Y-89726982D01*
X86686193Y-89726982D02*
X86686193Y-90160315D01*
X85986193Y-90393649D02*
X85986193Y-90826982D01*
X85986193Y-90826982D02*
X86252860Y-90593649D01*
X86252860Y-90593649D02*
X86252860Y-90693649D01*
X86252860Y-90693649D02*
X86286193Y-90760315D01*
X86286193Y-90760315D02*
X86319526Y-90793649D01*
X86319526Y-90793649D02*
X86386193Y-90826982D01*
X86386193Y-90826982D02*
X86552860Y-90826982D01*
X86552860Y-90826982D02*
X86619526Y-90793649D01*
X86619526Y-90793649D02*
X86652860Y-90760315D01*
X86652860Y-90760315D02*
X86686193Y-90693649D01*
X86686193Y-90693649D02*
X86686193Y-90493649D01*
X86686193Y-90493649D02*
X86652860Y-90426982D01*
X86652860Y-90426982D02*
X86619526Y-90393649D01*
X106329366Y-87598316D02*
X106296033Y-87531649D01*
X106296033Y-87531649D02*
X106296033Y-87431649D01*
X106296033Y-87431649D02*
X106329366Y-87331649D01*
X106329366Y-87331649D02*
X106396033Y-87264983D01*
X106396033Y-87264983D02*
X106462700Y-87231649D01*
X106462700Y-87231649D02*
X106596033Y-87198316D01*
X106596033Y-87198316D02*
X106696033Y-87198316D01*
X106696033Y-87198316D02*
X106829366Y-87231649D01*
X106829366Y-87231649D02*
X106896033Y-87264983D01*
X106896033Y-87264983D02*
X106962700Y-87331649D01*
X106962700Y-87331649D02*
X106996033Y-87431649D01*
X106996033Y-87431649D02*
X106996033Y-87498316D01*
X106996033Y-87498316D02*
X106962700Y-87598316D01*
X106962700Y-87598316D02*
X106929366Y-87631649D01*
X106929366Y-87631649D02*
X106696033Y-87631649D01*
X106696033Y-87631649D02*
X106696033Y-87498316D01*
X106996033Y-87931649D02*
X106296033Y-87931649D01*
X106296033Y-87931649D02*
X106296033Y-88198316D01*
X106296033Y-88198316D02*
X106329366Y-88264983D01*
X106329366Y-88264983D02*
X106362700Y-88298316D01*
X106362700Y-88298316D02*
X106429366Y-88331649D01*
X106429366Y-88331649D02*
X106529366Y-88331649D01*
X106529366Y-88331649D02*
X106596033Y-88298316D01*
X106596033Y-88298316D02*
X106629366Y-88264983D01*
X106629366Y-88264983D02*
X106662700Y-88198316D01*
X106662700Y-88198316D02*
X106662700Y-87931649D01*
X106996033Y-88631649D02*
X106296033Y-88631649D01*
X106296033Y-89098316D02*
X106296033Y-89231649D01*
X106296033Y-89231649D02*
X106329366Y-89298316D01*
X106329366Y-89298316D02*
X106396033Y-89364982D01*
X106396033Y-89364982D02*
X106529366Y-89398316D01*
X106529366Y-89398316D02*
X106762700Y-89398316D01*
X106762700Y-89398316D02*
X106896033Y-89364982D01*
X106896033Y-89364982D02*
X106962700Y-89298316D01*
X106962700Y-89298316D02*
X106996033Y-89231649D01*
X106996033Y-89231649D02*
X106996033Y-89098316D01*
X106996033Y-89098316D02*
X106962700Y-89031649D01*
X106962700Y-89031649D02*
X106896033Y-88964982D01*
X106896033Y-88964982D02*
X106762700Y-88931649D01*
X106762700Y-88931649D02*
X106529366Y-88931649D01*
X106529366Y-88931649D02*
X106396033Y-88964982D01*
X106396033Y-88964982D02*
X106329366Y-89031649D01*
X106329366Y-89031649D02*
X106296033Y-89098316D01*
X106296033Y-90031649D02*
X106296033Y-89698315D01*
X106296033Y-89698315D02*
X106629366Y-89664982D01*
X106629366Y-89664982D02*
X106596033Y-89698315D01*
X106596033Y-89698315D02*
X106562700Y-89764982D01*
X106562700Y-89764982D02*
X106562700Y-89931649D01*
X106562700Y-89931649D02*
X106596033Y-89998315D01*
X106596033Y-89998315D02*
X106629366Y-90031649D01*
X106629366Y-90031649D02*
X106696033Y-90064982D01*
X106696033Y-90064982D02*
X106862700Y-90064982D01*
X106862700Y-90064982D02*
X106929366Y-90031649D01*
X106929366Y-90031649D02*
X106962700Y-89998315D01*
X106962700Y-89998315D02*
X106996033Y-89931649D01*
X106996033Y-89931649D02*
X106996033Y-89764982D01*
X106996033Y-89764982D02*
X106962700Y-89698315D01*
X106962700Y-89698315D02*
X106929366Y-89664982D01*
X108869366Y-87566649D02*
X108836033Y-87499982D01*
X108836033Y-87499982D02*
X108836033Y-87399982D01*
X108836033Y-87399982D02*
X108869366Y-87299982D01*
X108869366Y-87299982D02*
X108936033Y-87233316D01*
X108936033Y-87233316D02*
X109002700Y-87199982D01*
X109002700Y-87199982D02*
X109136033Y-87166649D01*
X109136033Y-87166649D02*
X109236033Y-87166649D01*
X109236033Y-87166649D02*
X109369366Y-87199982D01*
X109369366Y-87199982D02*
X109436033Y-87233316D01*
X109436033Y-87233316D02*
X109502700Y-87299982D01*
X109502700Y-87299982D02*
X109536033Y-87399982D01*
X109536033Y-87399982D02*
X109536033Y-87466649D01*
X109536033Y-87466649D02*
X109502700Y-87566649D01*
X109502700Y-87566649D02*
X109469366Y-87599982D01*
X109469366Y-87599982D02*
X109236033Y-87599982D01*
X109236033Y-87599982D02*
X109236033Y-87466649D01*
X109536033Y-87899982D02*
X108836033Y-87899982D01*
X108836033Y-87899982D02*
X108836033Y-88166649D01*
X108836033Y-88166649D02*
X108869366Y-88233316D01*
X108869366Y-88233316D02*
X108902700Y-88266649D01*
X108902700Y-88266649D02*
X108969366Y-88299982D01*
X108969366Y-88299982D02*
X109069366Y-88299982D01*
X109069366Y-88299982D02*
X109136033Y-88266649D01*
X109136033Y-88266649D02*
X109169366Y-88233316D01*
X109169366Y-88233316D02*
X109202700Y-88166649D01*
X109202700Y-88166649D02*
X109202700Y-87899982D01*
X109536033Y-88599982D02*
X108836033Y-88599982D01*
X108836033Y-89066649D02*
X108836033Y-89199982D01*
X108836033Y-89199982D02*
X108869366Y-89266649D01*
X108869366Y-89266649D02*
X108936033Y-89333315D01*
X108936033Y-89333315D02*
X109069366Y-89366649D01*
X109069366Y-89366649D02*
X109302700Y-89366649D01*
X109302700Y-89366649D02*
X109436033Y-89333315D01*
X109436033Y-89333315D02*
X109502700Y-89266649D01*
X109502700Y-89266649D02*
X109536033Y-89199982D01*
X109536033Y-89199982D02*
X109536033Y-89066649D01*
X109536033Y-89066649D02*
X109502700Y-88999982D01*
X109502700Y-88999982D02*
X109436033Y-88933315D01*
X109436033Y-88933315D02*
X109302700Y-88899982D01*
X109302700Y-88899982D02*
X109069366Y-88899982D01*
X109069366Y-88899982D02*
X108936033Y-88933315D01*
X108936033Y-88933315D02*
X108869366Y-88999982D01*
X108869366Y-88999982D02*
X108836033Y-89066649D01*
X109536033Y-90033315D02*
X109536033Y-89633315D01*
X109536033Y-89833315D02*
X108836033Y-89833315D01*
X108836033Y-89833315D02*
X108936033Y-89766648D01*
X108936033Y-89766648D02*
X109002700Y-89699982D01*
X109002700Y-89699982D02*
X109036033Y-89633315D01*
X108836033Y-90266649D02*
X108836033Y-90733315D01*
X108836033Y-90733315D02*
X109536033Y-90433315D01*
X113959526Y-103121017D02*
X113926193Y-103054350D01*
X113926193Y-103054350D02*
X113926193Y-102954350D01*
X113926193Y-102954350D02*
X113959526Y-102854350D01*
X113959526Y-102854350D02*
X114026193Y-102787684D01*
X114026193Y-102787684D02*
X114092860Y-102754350D01*
X114092860Y-102754350D02*
X114226193Y-102721017D01*
X114226193Y-102721017D02*
X114326193Y-102721017D01*
X114326193Y-102721017D02*
X114459526Y-102754350D01*
X114459526Y-102754350D02*
X114526193Y-102787684D01*
X114526193Y-102787684D02*
X114592860Y-102854350D01*
X114592860Y-102854350D02*
X114626193Y-102954350D01*
X114626193Y-102954350D02*
X114626193Y-103021017D01*
X114626193Y-103021017D02*
X114592860Y-103121017D01*
X114592860Y-103121017D02*
X114559526Y-103154350D01*
X114559526Y-103154350D02*
X114326193Y-103154350D01*
X114326193Y-103154350D02*
X114326193Y-103021017D01*
X114626193Y-103454350D02*
X113926193Y-103454350D01*
X113926193Y-103454350D02*
X113926193Y-103721017D01*
X113926193Y-103721017D02*
X113959526Y-103787684D01*
X113959526Y-103787684D02*
X113992860Y-103821017D01*
X113992860Y-103821017D02*
X114059526Y-103854350D01*
X114059526Y-103854350D02*
X114159526Y-103854350D01*
X114159526Y-103854350D02*
X114226193Y-103821017D01*
X114226193Y-103821017D02*
X114259526Y-103787684D01*
X114259526Y-103787684D02*
X114292860Y-103721017D01*
X114292860Y-103721017D02*
X114292860Y-103454350D01*
X114626193Y-104154350D02*
X113926193Y-104154350D01*
X113926193Y-104621017D02*
X113926193Y-104754350D01*
X113926193Y-104754350D02*
X113959526Y-104821017D01*
X113959526Y-104821017D02*
X114026193Y-104887683D01*
X114026193Y-104887683D02*
X114159526Y-104921017D01*
X114159526Y-104921017D02*
X114392860Y-104921017D01*
X114392860Y-104921017D02*
X114526193Y-104887683D01*
X114526193Y-104887683D02*
X114592860Y-104821017D01*
X114592860Y-104821017D02*
X114626193Y-104754350D01*
X114626193Y-104754350D02*
X114626193Y-104621017D01*
X114626193Y-104621017D02*
X114592860Y-104554350D01*
X114592860Y-104554350D02*
X114526193Y-104487683D01*
X114526193Y-104487683D02*
X114392860Y-104454350D01*
X114392860Y-104454350D02*
X114159526Y-104454350D01*
X114159526Y-104454350D02*
X114026193Y-104487683D01*
X114026193Y-104487683D02*
X113959526Y-104554350D01*
X113959526Y-104554350D02*
X113926193Y-104621017D01*
X114626193Y-105587683D02*
X114626193Y-105187683D01*
X114626193Y-105387683D02*
X113926193Y-105387683D01*
X113926193Y-105387683D02*
X114026193Y-105321016D01*
X114026193Y-105321016D02*
X114092860Y-105254350D01*
X114092860Y-105254350D02*
X114126193Y-105187683D01*
X113992860Y-105854350D02*
X113959526Y-105887683D01*
X113959526Y-105887683D02*
X113926193Y-105954350D01*
X113926193Y-105954350D02*
X113926193Y-106121017D01*
X113926193Y-106121017D02*
X113959526Y-106187683D01*
X113959526Y-106187683D02*
X113992860Y-106221017D01*
X113992860Y-106221017D02*
X114059526Y-106254350D01*
X114059526Y-106254350D02*
X114126193Y-106254350D01*
X114126193Y-106254350D02*
X114226193Y-106221017D01*
X114226193Y-106221017D02*
X114626193Y-105821017D01*
X114626193Y-105821017D02*
X114626193Y-106254350D01*
X113892860Y-107054350D02*
X114792860Y-106454350D01*
X114626193Y-107287683D02*
X113926193Y-107287683D01*
X113926193Y-107287683D02*
X114426193Y-107521017D01*
X114426193Y-107521017D02*
X113926193Y-107754350D01*
X113926193Y-107754350D02*
X114626193Y-107754350D01*
X113926193Y-107987683D02*
X113926193Y-108387683D01*
X114626193Y-108187683D02*
X113926193Y-108187683D01*
X114626193Y-108621016D02*
X113926193Y-108621016D01*
X113926193Y-108621016D02*
X113926193Y-108787683D01*
X113926193Y-108787683D02*
X113959526Y-108887683D01*
X113959526Y-108887683D02*
X114026193Y-108954350D01*
X114026193Y-108954350D02*
X114092860Y-108987683D01*
X114092860Y-108987683D02*
X114226193Y-109021016D01*
X114226193Y-109021016D02*
X114326193Y-109021016D01*
X114326193Y-109021016D02*
X114459526Y-108987683D01*
X114459526Y-108987683D02*
X114526193Y-108954350D01*
X114526193Y-108954350D02*
X114592860Y-108887683D01*
X114592860Y-108887683D02*
X114626193Y-108787683D01*
X114626193Y-108787683D02*
X114626193Y-108621016D01*
X114626193Y-109321016D02*
X113926193Y-109321016D01*
X91099526Y-87628983D02*
X91066193Y-87562316D01*
X91066193Y-87562316D02*
X91066193Y-87462316D01*
X91066193Y-87462316D02*
X91099526Y-87362316D01*
X91099526Y-87362316D02*
X91166193Y-87295650D01*
X91166193Y-87295650D02*
X91232860Y-87262316D01*
X91232860Y-87262316D02*
X91366193Y-87228983D01*
X91366193Y-87228983D02*
X91466193Y-87228983D01*
X91466193Y-87228983D02*
X91599526Y-87262316D01*
X91599526Y-87262316D02*
X91666193Y-87295650D01*
X91666193Y-87295650D02*
X91732860Y-87362316D01*
X91732860Y-87362316D02*
X91766193Y-87462316D01*
X91766193Y-87462316D02*
X91766193Y-87528983D01*
X91766193Y-87528983D02*
X91732860Y-87628983D01*
X91732860Y-87628983D02*
X91699526Y-87662316D01*
X91699526Y-87662316D02*
X91466193Y-87662316D01*
X91466193Y-87662316D02*
X91466193Y-87528983D01*
X91766193Y-87962316D02*
X91066193Y-87962316D01*
X91066193Y-87962316D02*
X91066193Y-88228983D01*
X91066193Y-88228983D02*
X91099526Y-88295650D01*
X91099526Y-88295650D02*
X91132860Y-88328983D01*
X91132860Y-88328983D02*
X91199526Y-88362316D01*
X91199526Y-88362316D02*
X91299526Y-88362316D01*
X91299526Y-88362316D02*
X91366193Y-88328983D01*
X91366193Y-88328983D02*
X91399526Y-88295650D01*
X91399526Y-88295650D02*
X91432860Y-88228983D01*
X91432860Y-88228983D02*
X91432860Y-87962316D01*
X91766193Y-88662316D02*
X91066193Y-88662316D01*
X91066193Y-89128983D02*
X91066193Y-89262316D01*
X91066193Y-89262316D02*
X91099526Y-89328983D01*
X91099526Y-89328983D02*
X91166193Y-89395649D01*
X91166193Y-89395649D02*
X91299526Y-89428983D01*
X91299526Y-89428983D02*
X91532860Y-89428983D01*
X91532860Y-89428983D02*
X91666193Y-89395649D01*
X91666193Y-89395649D02*
X91732860Y-89328983D01*
X91732860Y-89328983D02*
X91766193Y-89262316D01*
X91766193Y-89262316D02*
X91766193Y-89128983D01*
X91766193Y-89128983D02*
X91732860Y-89062316D01*
X91732860Y-89062316D02*
X91666193Y-88995649D01*
X91666193Y-88995649D02*
X91532860Y-88962316D01*
X91532860Y-88962316D02*
X91299526Y-88962316D01*
X91299526Y-88962316D02*
X91166193Y-88995649D01*
X91166193Y-88995649D02*
X91099526Y-89062316D01*
X91099526Y-89062316D02*
X91066193Y-89128983D01*
X91766193Y-90095649D02*
X91766193Y-89695649D01*
X91766193Y-89895649D02*
X91066193Y-89895649D01*
X91066193Y-89895649D02*
X91166193Y-89828982D01*
X91166193Y-89828982D02*
X91232860Y-89762316D01*
X91232860Y-89762316D02*
X91266193Y-89695649D01*
X91032860Y-90895649D02*
X91932860Y-90295649D01*
X91066193Y-91128982D02*
X91632860Y-91128982D01*
X91632860Y-91128982D02*
X91699526Y-91162316D01*
X91699526Y-91162316D02*
X91732860Y-91195649D01*
X91732860Y-91195649D02*
X91766193Y-91262316D01*
X91766193Y-91262316D02*
X91766193Y-91395649D01*
X91766193Y-91395649D02*
X91732860Y-91462316D01*
X91732860Y-91462316D02*
X91699526Y-91495649D01*
X91699526Y-91495649D02*
X91632860Y-91528982D01*
X91632860Y-91528982D02*
X91066193Y-91528982D01*
X91066193Y-91995649D02*
X91066193Y-92062315D01*
X91066193Y-92062315D02*
X91099526Y-92128982D01*
X91099526Y-92128982D02*
X91132860Y-92162315D01*
X91132860Y-92162315D02*
X91199526Y-92195649D01*
X91199526Y-92195649D02*
X91332860Y-92228982D01*
X91332860Y-92228982D02*
X91499526Y-92228982D01*
X91499526Y-92228982D02*
X91632860Y-92195649D01*
X91632860Y-92195649D02*
X91699526Y-92162315D01*
X91699526Y-92162315D02*
X91732860Y-92128982D01*
X91732860Y-92128982D02*
X91766193Y-92062315D01*
X91766193Y-92062315D02*
X91766193Y-91995649D01*
X91766193Y-91995649D02*
X91732860Y-91928982D01*
X91732860Y-91928982D02*
X91699526Y-91895649D01*
X91699526Y-91895649D02*
X91632860Y-91862315D01*
X91632860Y-91862315D02*
X91499526Y-91828982D01*
X91499526Y-91828982D02*
X91332860Y-91828982D01*
X91332860Y-91828982D02*
X91199526Y-91862315D01*
X91199526Y-91862315D02*
X91132860Y-91895649D01*
X91132860Y-91895649D02*
X91099526Y-91928982D01*
X91099526Y-91928982D02*
X91066193Y-91995649D01*
X91066193Y-92428982D02*
X91066193Y-92828982D01*
X91766193Y-92628982D02*
X91066193Y-92628982D01*
X91066193Y-92995649D02*
X91766193Y-93462315D01*
X91066193Y-93462315D02*
X91766193Y-92995649D01*
X91766193Y-93728982D02*
X91066193Y-93728982D01*
X91066193Y-93728982D02*
X91066193Y-93895649D01*
X91066193Y-93895649D02*
X91099526Y-93995649D01*
X91099526Y-93995649D02*
X91166193Y-94062316D01*
X91166193Y-94062316D02*
X91232860Y-94095649D01*
X91232860Y-94095649D02*
X91366193Y-94128982D01*
X91366193Y-94128982D02*
X91466193Y-94128982D01*
X91466193Y-94128982D02*
X91599526Y-94095649D01*
X91599526Y-94095649D02*
X91666193Y-94062316D01*
X91666193Y-94062316D02*
X91732860Y-93995649D01*
X91732860Y-93995649D02*
X91766193Y-93895649D01*
X91766193Y-93895649D02*
X91766193Y-93728982D01*
X108996366Y-106169017D02*
X108963033Y-106102350D01*
X108963033Y-106102350D02*
X108963033Y-106002350D01*
X108963033Y-106002350D02*
X108996366Y-105902350D01*
X108996366Y-105902350D02*
X109063033Y-105835684D01*
X109063033Y-105835684D02*
X109129700Y-105802350D01*
X109129700Y-105802350D02*
X109263033Y-105769017D01*
X109263033Y-105769017D02*
X109363033Y-105769017D01*
X109363033Y-105769017D02*
X109496366Y-105802350D01*
X109496366Y-105802350D02*
X109563033Y-105835684D01*
X109563033Y-105835684D02*
X109629700Y-105902350D01*
X109629700Y-105902350D02*
X109663033Y-106002350D01*
X109663033Y-106002350D02*
X109663033Y-106069017D01*
X109663033Y-106069017D02*
X109629700Y-106169017D01*
X109629700Y-106169017D02*
X109596366Y-106202350D01*
X109596366Y-106202350D02*
X109363033Y-106202350D01*
X109363033Y-106202350D02*
X109363033Y-106069017D01*
X109663033Y-106502350D02*
X108963033Y-106502350D01*
X108963033Y-106502350D02*
X108963033Y-106769017D01*
X108963033Y-106769017D02*
X108996366Y-106835684D01*
X108996366Y-106835684D02*
X109029700Y-106869017D01*
X109029700Y-106869017D02*
X109096366Y-106902350D01*
X109096366Y-106902350D02*
X109196366Y-106902350D01*
X109196366Y-106902350D02*
X109263033Y-106869017D01*
X109263033Y-106869017D02*
X109296366Y-106835684D01*
X109296366Y-106835684D02*
X109329700Y-106769017D01*
X109329700Y-106769017D02*
X109329700Y-106502350D01*
X109663033Y-107202350D02*
X108963033Y-107202350D01*
X108963033Y-107669017D02*
X108963033Y-107802350D01*
X108963033Y-107802350D02*
X108996366Y-107869017D01*
X108996366Y-107869017D02*
X109063033Y-107935683D01*
X109063033Y-107935683D02*
X109196366Y-107969017D01*
X109196366Y-107969017D02*
X109429700Y-107969017D01*
X109429700Y-107969017D02*
X109563033Y-107935683D01*
X109563033Y-107935683D02*
X109629700Y-107869017D01*
X109629700Y-107869017D02*
X109663033Y-107802350D01*
X109663033Y-107802350D02*
X109663033Y-107669017D01*
X109663033Y-107669017D02*
X109629700Y-107602350D01*
X109629700Y-107602350D02*
X109563033Y-107535683D01*
X109563033Y-107535683D02*
X109429700Y-107502350D01*
X109429700Y-107502350D02*
X109196366Y-107502350D01*
X109196366Y-107502350D02*
X109063033Y-107535683D01*
X109063033Y-107535683D02*
X108996366Y-107602350D01*
X108996366Y-107602350D02*
X108963033Y-107669017D01*
X109029700Y-108235683D02*
X108996366Y-108269016D01*
X108996366Y-108269016D02*
X108963033Y-108335683D01*
X108963033Y-108335683D02*
X108963033Y-108502350D01*
X108963033Y-108502350D02*
X108996366Y-108569016D01*
X108996366Y-108569016D02*
X109029700Y-108602350D01*
X109029700Y-108602350D02*
X109096366Y-108635683D01*
X109096366Y-108635683D02*
X109163033Y-108635683D01*
X109163033Y-108635683D02*
X109263033Y-108602350D01*
X109263033Y-108602350D02*
X109663033Y-108202350D01*
X109663033Y-108202350D02*
X109663033Y-108635683D01*
X108963033Y-108869017D02*
X108963033Y-109335683D01*
X108963033Y-109335683D02*
X109663033Y-109035683D01*
X127259526Y-107980350D02*
X127292860Y-107947017D01*
X127292860Y-107947017D02*
X127326193Y-107847017D01*
X127326193Y-107847017D02*
X127326193Y-107780350D01*
X127326193Y-107780350D02*
X127292860Y-107680350D01*
X127292860Y-107680350D02*
X127226193Y-107613684D01*
X127226193Y-107613684D02*
X127159526Y-107580350D01*
X127159526Y-107580350D02*
X127026193Y-107547017D01*
X127026193Y-107547017D02*
X126926193Y-107547017D01*
X126926193Y-107547017D02*
X126792860Y-107580350D01*
X126792860Y-107580350D02*
X126726193Y-107613684D01*
X126726193Y-107613684D02*
X126659526Y-107680350D01*
X126659526Y-107680350D02*
X126626193Y-107780350D01*
X126626193Y-107780350D02*
X126626193Y-107847017D01*
X126626193Y-107847017D02*
X126659526Y-107947017D01*
X126659526Y-107947017D02*
X126692860Y-107980350D01*
X127326193Y-108280350D02*
X126626193Y-108280350D01*
X126626193Y-108280350D02*
X127126193Y-108513684D01*
X127126193Y-108513684D02*
X126626193Y-108747017D01*
X126626193Y-108747017D02*
X127326193Y-108747017D01*
X127326193Y-109080350D02*
X126626193Y-109080350D01*
X126626193Y-109080350D02*
X126626193Y-109247017D01*
X126626193Y-109247017D02*
X126659526Y-109347017D01*
X126659526Y-109347017D02*
X126726193Y-109413684D01*
X126726193Y-109413684D02*
X126792860Y-109447017D01*
X126792860Y-109447017D02*
X126926193Y-109480350D01*
X126926193Y-109480350D02*
X127026193Y-109480350D01*
X127026193Y-109480350D02*
X127159526Y-109447017D01*
X127159526Y-109447017D02*
X127226193Y-109413684D01*
X127226193Y-109413684D02*
X127292860Y-109347017D01*
X127292860Y-109347017D02*
X127326193Y-109247017D01*
X127326193Y-109247017D02*
X127326193Y-109080350D01*
X103789366Y-87693649D02*
X103756033Y-87626982D01*
X103756033Y-87626982D02*
X103756033Y-87526982D01*
X103756033Y-87526982D02*
X103789366Y-87426982D01*
X103789366Y-87426982D02*
X103856033Y-87360316D01*
X103856033Y-87360316D02*
X103922700Y-87326982D01*
X103922700Y-87326982D02*
X104056033Y-87293649D01*
X104056033Y-87293649D02*
X104156033Y-87293649D01*
X104156033Y-87293649D02*
X104289366Y-87326982D01*
X104289366Y-87326982D02*
X104356033Y-87360316D01*
X104356033Y-87360316D02*
X104422700Y-87426982D01*
X104422700Y-87426982D02*
X104456033Y-87526982D01*
X104456033Y-87526982D02*
X104456033Y-87593649D01*
X104456033Y-87593649D02*
X104422700Y-87693649D01*
X104422700Y-87693649D02*
X104389366Y-87726982D01*
X104389366Y-87726982D02*
X104156033Y-87726982D01*
X104156033Y-87726982D02*
X104156033Y-87593649D01*
X104456033Y-88026982D02*
X103756033Y-88026982D01*
X103756033Y-88026982D02*
X103756033Y-88293649D01*
X103756033Y-88293649D02*
X103789366Y-88360316D01*
X103789366Y-88360316D02*
X103822700Y-88393649D01*
X103822700Y-88393649D02*
X103889366Y-88426982D01*
X103889366Y-88426982D02*
X103989366Y-88426982D01*
X103989366Y-88426982D02*
X104056033Y-88393649D01*
X104056033Y-88393649D02*
X104089366Y-88360316D01*
X104089366Y-88360316D02*
X104122700Y-88293649D01*
X104122700Y-88293649D02*
X104122700Y-88026982D01*
X104456033Y-88726982D02*
X103756033Y-88726982D01*
X103756033Y-89193649D02*
X103756033Y-89326982D01*
X103756033Y-89326982D02*
X103789366Y-89393649D01*
X103789366Y-89393649D02*
X103856033Y-89460315D01*
X103856033Y-89460315D02*
X103989366Y-89493649D01*
X103989366Y-89493649D02*
X104222700Y-89493649D01*
X104222700Y-89493649D02*
X104356033Y-89460315D01*
X104356033Y-89460315D02*
X104422700Y-89393649D01*
X104422700Y-89393649D02*
X104456033Y-89326982D01*
X104456033Y-89326982D02*
X104456033Y-89193649D01*
X104456033Y-89193649D02*
X104422700Y-89126982D01*
X104422700Y-89126982D02*
X104356033Y-89060315D01*
X104356033Y-89060315D02*
X104222700Y-89026982D01*
X104222700Y-89026982D02*
X103989366Y-89026982D01*
X103989366Y-89026982D02*
X103856033Y-89060315D01*
X103856033Y-89060315D02*
X103789366Y-89126982D01*
X103789366Y-89126982D02*
X103756033Y-89193649D01*
X104456033Y-90160315D02*
X104456033Y-89760315D01*
X104456033Y-89960315D02*
X103756033Y-89960315D01*
X103756033Y-89960315D02*
X103856033Y-89893648D01*
X103856033Y-89893648D02*
X103922700Y-89826982D01*
X103922700Y-89826982D02*
X103956033Y-89760315D01*
X104056033Y-90560315D02*
X104022700Y-90493649D01*
X104022700Y-90493649D02*
X103989366Y-90460315D01*
X103989366Y-90460315D02*
X103922700Y-90426982D01*
X103922700Y-90426982D02*
X103889366Y-90426982D01*
X103889366Y-90426982D02*
X103822700Y-90460315D01*
X103822700Y-90460315D02*
X103789366Y-90493649D01*
X103789366Y-90493649D02*
X103756033Y-90560315D01*
X103756033Y-90560315D02*
X103756033Y-90693649D01*
X103756033Y-90693649D02*
X103789366Y-90760315D01*
X103789366Y-90760315D02*
X103822700Y-90793649D01*
X103822700Y-90793649D02*
X103889366Y-90826982D01*
X103889366Y-90826982D02*
X103922700Y-90826982D01*
X103922700Y-90826982D02*
X103989366Y-90793649D01*
X103989366Y-90793649D02*
X104022700Y-90760315D01*
X104022700Y-90760315D02*
X104056033Y-90693649D01*
X104056033Y-90693649D02*
X104056033Y-90560315D01*
X104056033Y-90560315D02*
X104089366Y-90493649D01*
X104089366Y-90493649D02*
X104122700Y-90460315D01*
X104122700Y-90460315D02*
X104189366Y-90426982D01*
X104189366Y-90426982D02*
X104322700Y-90426982D01*
X104322700Y-90426982D02*
X104389366Y-90460315D01*
X104389366Y-90460315D02*
X104422700Y-90493649D01*
X104422700Y-90493649D02*
X104456033Y-90560315D01*
X104456033Y-90560315D02*
X104456033Y-90693649D01*
X104456033Y-90693649D02*
X104422700Y-90760315D01*
X104422700Y-90760315D02*
X104389366Y-90793649D01*
X104389366Y-90793649D02*
X104322700Y-90826982D01*
X104322700Y-90826982D02*
X104189366Y-90826982D01*
X104189366Y-90826982D02*
X104122700Y-90793649D01*
X104122700Y-90793649D02*
X104089366Y-90760315D01*
X104089366Y-90760315D02*
X104056033Y-90693649D01*
X101259526Y-87566649D02*
X101226193Y-87499982D01*
X101226193Y-87499982D02*
X101226193Y-87399982D01*
X101226193Y-87399982D02*
X101259526Y-87299982D01*
X101259526Y-87299982D02*
X101326193Y-87233316D01*
X101326193Y-87233316D02*
X101392860Y-87199982D01*
X101392860Y-87199982D02*
X101526193Y-87166649D01*
X101526193Y-87166649D02*
X101626193Y-87166649D01*
X101626193Y-87166649D02*
X101759526Y-87199982D01*
X101759526Y-87199982D02*
X101826193Y-87233316D01*
X101826193Y-87233316D02*
X101892860Y-87299982D01*
X101892860Y-87299982D02*
X101926193Y-87399982D01*
X101926193Y-87399982D02*
X101926193Y-87466649D01*
X101926193Y-87466649D02*
X101892860Y-87566649D01*
X101892860Y-87566649D02*
X101859526Y-87599982D01*
X101859526Y-87599982D02*
X101626193Y-87599982D01*
X101626193Y-87599982D02*
X101626193Y-87466649D01*
X101926193Y-87899982D02*
X101226193Y-87899982D01*
X101226193Y-87899982D02*
X101226193Y-88166649D01*
X101226193Y-88166649D02*
X101259526Y-88233316D01*
X101259526Y-88233316D02*
X101292860Y-88266649D01*
X101292860Y-88266649D02*
X101359526Y-88299982D01*
X101359526Y-88299982D02*
X101459526Y-88299982D01*
X101459526Y-88299982D02*
X101526193Y-88266649D01*
X101526193Y-88266649D02*
X101559526Y-88233316D01*
X101559526Y-88233316D02*
X101592860Y-88166649D01*
X101592860Y-88166649D02*
X101592860Y-87899982D01*
X101926193Y-88599982D02*
X101226193Y-88599982D01*
X101226193Y-89066649D02*
X101226193Y-89199982D01*
X101226193Y-89199982D02*
X101259526Y-89266649D01*
X101259526Y-89266649D02*
X101326193Y-89333315D01*
X101326193Y-89333315D02*
X101459526Y-89366649D01*
X101459526Y-89366649D02*
X101692860Y-89366649D01*
X101692860Y-89366649D02*
X101826193Y-89333315D01*
X101826193Y-89333315D02*
X101892860Y-89266649D01*
X101892860Y-89266649D02*
X101926193Y-89199982D01*
X101926193Y-89199982D02*
X101926193Y-89066649D01*
X101926193Y-89066649D02*
X101892860Y-88999982D01*
X101892860Y-88999982D02*
X101826193Y-88933315D01*
X101826193Y-88933315D02*
X101692860Y-88899982D01*
X101692860Y-88899982D02*
X101459526Y-88899982D01*
X101459526Y-88899982D02*
X101326193Y-88933315D01*
X101326193Y-88933315D02*
X101259526Y-88999982D01*
X101259526Y-88999982D02*
X101226193Y-89066649D01*
X101926193Y-90033315D02*
X101926193Y-89633315D01*
X101926193Y-89833315D02*
X101226193Y-89833315D01*
X101226193Y-89833315D02*
X101326193Y-89766648D01*
X101326193Y-89766648D02*
X101392860Y-89699982D01*
X101392860Y-89699982D02*
X101426193Y-89633315D01*
X101926193Y-90366649D02*
X101926193Y-90499982D01*
X101926193Y-90499982D02*
X101892860Y-90566649D01*
X101892860Y-90566649D02*
X101859526Y-90599982D01*
X101859526Y-90599982D02*
X101759526Y-90666649D01*
X101759526Y-90666649D02*
X101626193Y-90699982D01*
X101626193Y-90699982D02*
X101359526Y-90699982D01*
X101359526Y-90699982D02*
X101292860Y-90666649D01*
X101292860Y-90666649D02*
X101259526Y-90633315D01*
X101259526Y-90633315D02*
X101226193Y-90566649D01*
X101226193Y-90566649D02*
X101226193Y-90433315D01*
X101226193Y-90433315D02*
X101259526Y-90366649D01*
X101259526Y-90366649D02*
X101292860Y-90333315D01*
X101292860Y-90333315D02*
X101359526Y-90299982D01*
X101359526Y-90299982D02*
X101526193Y-90299982D01*
X101526193Y-90299982D02*
X101592860Y-90333315D01*
X101592860Y-90333315D02*
X101626193Y-90366649D01*
X101626193Y-90366649D02*
X101659526Y-90433315D01*
X101659526Y-90433315D02*
X101659526Y-90566649D01*
X101659526Y-90566649D02*
X101626193Y-90633315D01*
X101626193Y-90633315D02*
X101592860Y-90666649D01*
X101592860Y-90666649D02*
X101526193Y-90699982D01*
X101376366Y-106296017D02*
X101343033Y-106229350D01*
X101343033Y-106229350D02*
X101343033Y-106129350D01*
X101343033Y-106129350D02*
X101376366Y-106029350D01*
X101376366Y-106029350D02*
X101443033Y-105962684D01*
X101443033Y-105962684D02*
X101509700Y-105929350D01*
X101509700Y-105929350D02*
X101643033Y-105896017D01*
X101643033Y-105896017D02*
X101743033Y-105896017D01*
X101743033Y-105896017D02*
X101876366Y-105929350D01*
X101876366Y-105929350D02*
X101943033Y-105962684D01*
X101943033Y-105962684D02*
X102009700Y-106029350D01*
X102009700Y-106029350D02*
X102043033Y-106129350D01*
X102043033Y-106129350D02*
X102043033Y-106196017D01*
X102043033Y-106196017D02*
X102009700Y-106296017D01*
X102009700Y-106296017D02*
X101976366Y-106329350D01*
X101976366Y-106329350D02*
X101743033Y-106329350D01*
X101743033Y-106329350D02*
X101743033Y-106196017D01*
X102043033Y-106629350D02*
X101343033Y-106629350D01*
X101343033Y-106629350D02*
X101343033Y-106896017D01*
X101343033Y-106896017D02*
X101376366Y-106962684D01*
X101376366Y-106962684D02*
X101409700Y-106996017D01*
X101409700Y-106996017D02*
X101476366Y-107029350D01*
X101476366Y-107029350D02*
X101576366Y-107029350D01*
X101576366Y-107029350D02*
X101643033Y-106996017D01*
X101643033Y-106996017D02*
X101676366Y-106962684D01*
X101676366Y-106962684D02*
X101709700Y-106896017D01*
X101709700Y-106896017D02*
X101709700Y-106629350D01*
X102043033Y-107329350D02*
X101343033Y-107329350D01*
X101343033Y-107796017D02*
X101343033Y-107929350D01*
X101343033Y-107929350D02*
X101376366Y-107996017D01*
X101376366Y-107996017D02*
X101443033Y-108062683D01*
X101443033Y-108062683D02*
X101576366Y-108096017D01*
X101576366Y-108096017D02*
X101809700Y-108096017D01*
X101809700Y-108096017D02*
X101943033Y-108062683D01*
X101943033Y-108062683D02*
X102009700Y-107996017D01*
X102009700Y-107996017D02*
X102043033Y-107929350D01*
X102043033Y-107929350D02*
X102043033Y-107796017D01*
X102043033Y-107796017D02*
X102009700Y-107729350D01*
X102009700Y-107729350D02*
X101943033Y-107662683D01*
X101943033Y-107662683D02*
X101809700Y-107629350D01*
X101809700Y-107629350D02*
X101576366Y-107629350D01*
X101576366Y-107629350D02*
X101443033Y-107662683D01*
X101443033Y-107662683D02*
X101376366Y-107729350D01*
X101376366Y-107729350D02*
X101343033Y-107796017D01*
X101343033Y-108329350D02*
X101343033Y-108762683D01*
X101343033Y-108762683D02*
X101609700Y-108529350D01*
X101609700Y-108529350D02*
X101609700Y-108629350D01*
X101609700Y-108629350D02*
X101643033Y-108696016D01*
X101643033Y-108696016D02*
X101676366Y-108729350D01*
X101676366Y-108729350D02*
X101743033Y-108762683D01*
X101743033Y-108762683D02*
X101909700Y-108762683D01*
X101909700Y-108762683D02*
X101976366Y-108729350D01*
X101976366Y-108729350D02*
X102009700Y-108696016D01*
X102009700Y-108696016D02*
X102043033Y-108629350D01*
X102043033Y-108629350D02*
X102043033Y-108429350D01*
X102043033Y-108429350D02*
X102009700Y-108362683D01*
X102009700Y-108362683D02*
X101976366Y-108329350D01*
X101343033Y-108996017D02*
X101343033Y-109429350D01*
X101343033Y-109429350D02*
X101609700Y-109196017D01*
X101609700Y-109196017D02*
X101609700Y-109296017D01*
X101609700Y-109296017D02*
X101643033Y-109362683D01*
X101643033Y-109362683D02*
X101676366Y-109396017D01*
X101676366Y-109396017D02*
X101743033Y-109429350D01*
X101743033Y-109429350D02*
X101909700Y-109429350D01*
X101909700Y-109429350D02*
X101976366Y-109396017D01*
X101976366Y-109396017D02*
X102009700Y-109362683D01*
X102009700Y-109362683D02*
X102043033Y-109296017D01*
X102043033Y-109296017D02*
X102043033Y-109096017D01*
X102043033Y-109096017D02*
X102009700Y-109029350D01*
X102009700Y-109029350D02*
X101976366Y-108996017D01*
X88516033Y-103670350D02*
X89216033Y-103903684D01*
X89216033Y-103903684D02*
X88516033Y-104137017D01*
X89216033Y-104370350D02*
X88516033Y-104370350D01*
X88516033Y-104370350D02*
X88516033Y-104637017D01*
X88516033Y-104637017D02*
X88549366Y-104703684D01*
X88549366Y-104703684D02*
X88582700Y-104737017D01*
X88582700Y-104737017D02*
X88649366Y-104770350D01*
X88649366Y-104770350D02*
X88749366Y-104770350D01*
X88749366Y-104770350D02*
X88816033Y-104737017D01*
X88816033Y-104737017D02*
X88849366Y-104703684D01*
X88849366Y-104703684D02*
X88882700Y-104637017D01*
X88882700Y-104637017D02*
X88882700Y-104370350D01*
X88482700Y-105570350D02*
X89382700Y-104970350D01*
X88549366Y-106170350D02*
X88516033Y-106103683D01*
X88516033Y-106103683D02*
X88516033Y-106003683D01*
X88516033Y-106003683D02*
X88549366Y-105903683D01*
X88549366Y-105903683D02*
X88616033Y-105837017D01*
X88616033Y-105837017D02*
X88682700Y-105803683D01*
X88682700Y-105803683D02*
X88816033Y-105770350D01*
X88816033Y-105770350D02*
X88916033Y-105770350D01*
X88916033Y-105770350D02*
X89049366Y-105803683D01*
X89049366Y-105803683D02*
X89116033Y-105837017D01*
X89116033Y-105837017D02*
X89182700Y-105903683D01*
X89182700Y-105903683D02*
X89216033Y-106003683D01*
X89216033Y-106003683D02*
X89216033Y-106070350D01*
X89216033Y-106070350D02*
X89182700Y-106170350D01*
X89182700Y-106170350D02*
X89149366Y-106203683D01*
X89149366Y-106203683D02*
X88916033Y-106203683D01*
X88916033Y-106203683D02*
X88916033Y-106070350D01*
X89216033Y-106503683D02*
X88516033Y-106503683D01*
X88516033Y-106503683D02*
X88516033Y-106770350D01*
X88516033Y-106770350D02*
X88549366Y-106837017D01*
X88549366Y-106837017D02*
X88582700Y-106870350D01*
X88582700Y-106870350D02*
X88649366Y-106903683D01*
X88649366Y-106903683D02*
X88749366Y-106903683D01*
X88749366Y-106903683D02*
X88816033Y-106870350D01*
X88816033Y-106870350D02*
X88849366Y-106837017D01*
X88849366Y-106837017D02*
X88882700Y-106770350D01*
X88882700Y-106770350D02*
X88882700Y-106503683D01*
X89216033Y-107203683D02*
X88516033Y-107203683D01*
X88516033Y-107670350D02*
X88516033Y-107803683D01*
X88516033Y-107803683D02*
X88549366Y-107870350D01*
X88549366Y-107870350D02*
X88616033Y-107937016D01*
X88616033Y-107937016D02*
X88749366Y-107970350D01*
X88749366Y-107970350D02*
X88982700Y-107970350D01*
X88982700Y-107970350D02*
X89116033Y-107937016D01*
X89116033Y-107937016D02*
X89182700Y-107870350D01*
X89182700Y-107870350D02*
X89216033Y-107803683D01*
X89216033Y-107803683D02*
X89216033Y-107670350D01*
X89216033Y-107670350D02*
X89182700Y-107603683D01*
X89182700Y-107603683D02*
X89116033Y-107537016D01*
X89116033Y-107537016D02*
X88982700Y-107503683D01*
X88982700Y-107503683D02*
X88749366Y-107503683D01*
X88749366Y-107503683D02*
X88616033Y-107537016D01*
X88616033Y-107537016D02*
X88549366Y-107603683D01*
X88549366Y-107603683D02*
X88516033Y-107670350D01*
X88516033Y-108203683D02*
X88516033Y-108637016D01*
X88516033Y-108637016D02*
X88782700Y-108403683D01*
X88782700Y-108403683D02*
X88782700Y-108503683D01*
X88782700Y-108503683D02*
X88816033Y-108570349D01*
X88816033Y-108570349D02*
X88849366Y-108603683D01*
X88849366Y-108603683D02*
X88916033Y-108637016D01*
X88916033Y-108637016D02*
X89082700Y-108637016D01*
X89082700Y-108637016D02*
X89149366Y-108603683D01*
X89149366Y-108603683D02*
X89182700Y-108570349D01*
X89182700Y-108570349D02*
X89216033Y-108503683D01*
X89216033Y-108503683D02*
X89216033Y-108303683D01*
X89216033Y-108303683D02*
X89182700Y-108237016D01*
X89182700Y-108237016D02*
X89149366Y-108203683D01*
X88516033Y-109237016D02*
X88516033Y-109103683D01*
X88516033Y-109103683D02*
X88549366Y-109037016D01*
X88549366Y-109037016D02*
X88582700Y-109003683D01*
X88582700Y-109003683D02*
X88682700Y-108937016D01*
X88682700Y-108937016D02*
X88816033Y-108903683D01*
X88816033Y-108903683D02*
X89082700Y-108903683D01*
X89082700Y-108903683D02*
X89149366Y-108937016D01*
X89149366Y-108937016D02*
X89182700Y-108970350D01*
X89182700Y-108970350D02*
X89216033Y-109037016D01*
X89216033Y-109037016D02*
X89216033Y-109170350D01*
X89216033Y-109170350D02*
X89182700Y-109237016D01*
X89182700Y-109237016D02*
X89149366Y-109270350D01*
X89149366Y-109270350D02*
X89082700Y-109303683D01*
X89082700Y-109303683D02*
X88916033Y-109303683D01*
X88916033Y-109303683D02*
X88849366Y-109270350D01*
X88849366Y-109270350D02*
X88816033Y-109237016D01*
X88816033Y-109237016D02*
X88782700Y-109170350D01*
X88782700Y-109170350D02*
X88782700Y-109037016D01*
X88782700Y-109037016D02*
X88816033Y-108970350D01*
X88816033Y-108970350D02*
X88849366Y-108937016D01*
X88849366Y-108937016D02*
X88916033Y-108903683D01*
M02*
