%TF.GenerationSoftware,KiCad,Pcbnew,8.0.0*%
%TF.CreationDate,2024-03-13T03:04:33+09:00*%
%TF.ProjectId,esp32tester,65737033-3274-4657-9374-65722e6b6963,rev?*%
%TF.SameCoordinates,Original*%
%TF.FileFunction,Soldermask,Bot*%
%TF.FilePolarity,Negative*%
%FSLAX46Y46*%
G04 Gerber Fmt 4.6, Leading zero omitted, Abs format (unit mm)*
G04 Created by KiCad (PCBNEW 8.0.0) date 2024-03-13 03:04:33*
%MOMM*%
%LPD*%
G01*
G04 APERTURE LIST*
%ADD10R,1.700000X1.700000*%
%ADD11O,1.700000X1.700000*%
%ADD12O,1.200000X2.000000*%
%ADD13R,1.200000X2.000000*%
%ADD14C,3.250000*%
%ADD15R,1.500000X1.500000*%
%ADD16C,1.500000*%
%ADD17C,2.300000*%
%ADD18R,2.100000X2.100000*%
%ADD19C,2.100000*%
G04 APERTURE END LIST*
D10*
%TO.C,REF\u002A\u002A*%
X83794600Y-80162400D03*
D11*
X86334600Y-80162400D03*
X88874600Y-80162400D03*
X91414600Y-80162400D03*
X93954600Y-80162400D03*
X96494600Y-80162400D03*
X99034600Y-80162400D03*
X101574600Y-80162400D03*
X104114600Y-80162400D03*
X106654600Y-80162400D03*
X109194600Y-80162400D03*
X111734600Y-80162400D03*
X114274600Y-80162400D03*
X116814600Y-80162400D03*
X119354600Y-80162400D03*
X121894600Y-80162400D03*
X124434600Y-80162400D03*
X126974600Y-80162400D03*
X129514600Y-80162400D03*
%TD*%
D10*
%TO.C,REF\u002A\u002A*%
X83820000Y-116078000D03*
D11*
X86360000Y-116078000D03*
X88900000Y-116078000D03*
X91440000Y-116078000D03*
X93980000Y-116078000D03*
X96520000Y-116078000D03*
X99060000Y-116078000D03*
X101600000Y-116078000D03*
X104140000Y-116078000D03*
X106680000Y-116078000D03*
X109220000Y-116078000D03*
X111760000Y-116078000D03*
X114300000Y-116078000D03*
X116840000Y-116078000D03*
X119380000Y-116078000D03*
X121920000Y-116078000D03*
X124460000Y-116078000D03*
X127000000Y-116078000D03*
X129540000Y-116078000D03*
%TD*%
D12*
%TO.C,U1*%
X83830160Y-85623400D03*
X86370160Y-85623400D03*
X88910160Y-85623400D03*
X91450160Y-85623400D03*
X93990160Y-85623400D03*
X96530160Y-85623400D03*
X99070160Y-85623400D03*
X101610160Y-85623400D03*
X104150160Y-85623400D03*
X106690160Y-85623400D03*
X109230160Y-85623400D03*
X111770160Y-85623400D03*
X114310160Y-85623400D03*
X116850160Y-85623400D03*
X119390160Y-85623400D03*
X121930160Y-85623400D03*
X124470160Y-85623400D03*
X127007440Y-85627080D03*
X129547440Y-85627080D03*
X129550160Y-111023400D03*
X127010160Y-111023400D03*
X124470160Y-111023400D03*
X121930160Y-111023400D03*
X119390160Y-111023400D03*
X116850160Y-111023400D03*
X114310160Y-111023400D03*
X111770160Y-111023400D03*
X109230160Y-111023400D03*
X106690160Y-111023400D03*
X104150160Y-111023400D03*
X101610160Y-111023400D03*
X99070160Y-111023400D03*
X96530160Y-111023400D03*
X93990160Y-111023400D03*
X91450160Y-111023400D03*
X88910160Y-111023400D03*
X86370160Y-111023400D03*
D13*
X83830160Y-111023400D03*
%TD*%
D10*
%TO.C,J6*%
X60026000Y-80015000D03*
D11*
X57486000Y-80015000D03*
%TD*%
D14*
%TO.C,J2*%
X42549000Y-114429000D03*
X42549000Y-101729000D03*
D15*
X45089000Y-111639000D03*
D16*
X46869000Y-110623000D03*
X45089000Y-109607000D03*
X46869000Y-108591000D03*
X45089000Y-107575000D03*
X46869000Y-106559000D03*
X45089000Y-105543000D03*
X46869000Y-104527000D03*
X51689000Y-114939000D03*
X51689000Y-112649000D03*
X51689000Y-103509000D03*
X51689000Y-101219000D03*
D17*
X45979000Y-116209000D03*
X45979000Y-99949000D03*
%TD*%
D10*
%TO.C,J4*%
X63393000Y-91009000D03*
D11*
X65933000Y-91009000D03*
%TD*%
D14*
%TO.C,J1*%
X42549000Y-94744000D03*
X42549000Y-82044000D03*
D15*
X45089000Y-91954000D03*
D16*
X46869000Y-90938000D03*
X45089000Y-89922000D03*
X46869000Y-88906000D03*
X45089000Y-87890000D03*
X46869000Y-86874000D03*
X45089000Y-85858000D03*
X46869000Y-84842000D03*
X51689000Y-95254000D03*
X51689000Y-92964000D03*
X51689000Y-83824000D03*
X51689000Y-81534000D03*
D17*
X45979000Y-96524000D03*
X45979000Y-80264000D03*
%TD*%
D10*
%TO.C,J3*%
X65913000Y-104775000D03*
D11*
X63373000Y-104775000D03*
%TD*%
D18*
%TO.C,J5*%
X77811000Y-82169000D03*
D19*
X72811000Y-82169000D03*
%TD*%
M02*
