M48
; DRILL file {KiCad 8.0.0} date 2024-03-13T03:04:36+0900
; FORMAT={-:-/ absolute / metric / decimal}
; #@! TF.CreationDate,2024-03-13T03:04:36+09:00
; #@! TF.GenerationSoftware,Kicad,Pcbnew,8.0.0
; #@! TF.FileFunction,Plated,1,2,PTH
FMAT,2
METRIC
; #@! TA.AperFunction,Plated,PTH,ViaDrill
T1C0.300
; #@! TA.AperFunction,Plated,PTH,ComponentDrill
T2C0.800
; #@! TA.AperFunction,Plated,PTH,ComponentDrill
T3C0.890
; #@! TA.AperFunction,Plated,PTH,ComponentDrill
T4C1.000
; #@! TA.AperFunction,Plated,PTH,ComponentDrill
T5C1.100
; #@! TA.AperFunction,Plated,PTH,ComponentDrill
T6C1.570
%
G90
G05
T1
X39.624Y-85.471
X40.386Y-109.728
X54.864Y-83.185
X59.309Y-103.505
X69.723Y-103.632
X72.644Y-104.902
X127.0Y-91.694
X127.0Y-96.52
T2
X83.83Y-85.623
X83.83Y-111.023
X86.37Y-85.623
X86.37Y-111.023
X88.91Y-85.623
X88.91Y-111.023
X91.45Y-85.623
X91.45Y-111.023
X93.99Y-85.623
X93.99Y-111.023
X96.53Y-85.623
X96.53Y-111.023
X99.07Y-85.623
X99.07Y-111.023
X101.61Y-85.623
X101.61Y-111.023
X104.15Y-85.623
X104.15Y-111.023
X106.69Y-85.623
X106.69Y-111.023
X109.23Y-85.623
X109.23Y-111.023
X111.77Y-85.623
X111.77Y-111.023
X114.31Y-85.623
X114.31Y-111.023
X116.85Y-85.623
X116.85Y-111.023
X119.39Y-85.623
X119.39Y-111.023
X121.93Y-85.623
X121.93Y-111.023
X124.47Y-85.623
X124.47Y-111.023
X127.007Y-85.627
X127.01Y-111.023
X129.547Y-85.627
X129.55Y-111.023
T3
X45.089Y-85.858
X45.089Y-87.89
X45.089Y-89.922
X45.089Y-91.954
X45.089Y-105.543
X45.089Y-107.575
X45.089Y-109.607
X45.089Y-111.639
X46.869Y-84.842
X46.869Y-86.874
X46.869Y-88.906
X46.869Y-90.938
X46.869Y-104.527
X46.869Y-106.559
X46.869Y-108.591
X46.869Y-110.623
X51.689Y-81.534
X51.689Y-83.824
X51.689Y-92.964
X51.689Y-95.254
X51.689Y-101.219
X51.689Y-103.509
X51.689Y-112.649
X51.689Y-114.939
T4
X57.486Y-80.015
X60.026Y-80.015
X63.373Y-104.775
X63.393Y-91.009
X65.913Y-104.775
X65.933Y-91.009
X83.795Y-80.162
X83.82Y-116.078
X86.335Y-80.162
X86.36Y-116.078
X88.875Y-80.162
X88.9Y-116.078
X91.415Y-80.162
X91.44Y-116.078
X93.955Y-80.162
X93.98Y-116.078
X96.495Y-80.162
X96.52Y-116.078
X99.035Y-80.162
X99.06Y-116.078
X101.575Y-80.162
X101.6Y-116.078
X104.115Y-80.162
X104.14Y-116.078
X106.655Y-80.162
X106.68Y-116.078
X109.195Y-80.162
X109.22Y-116.078
X111.735Y-80.162
X111.76Y-116.078
X114.275Y-80.162
X114.3Y-116.078
X116.815Y-80.162
X116.84Y-116.078
X119.355Y-80.162
X119.38Y-116.078
X121.895Y-80.162
X121.92Y-116.078
X124.435Y-80.162
X124.46Y-116.078
X126.975Y-80.162
X127.0Y-116.078
X129.515Y-80.162
X129.54Y-116.078
T5
X72.811Y-82.169
X77.811Y-82.169
T6
X45.979Y-80.264
X45.979Y-96.524
X45.979Y-99.949
X45.979Y-116.209
M30
