%TF.GenerationSoftware,KiCad,Pcbnew,8.0.0*%
%TF.CreationDate,2024-03-13T03:04:33+09:00*%
%TF.ProjectId,esp32tester,65737033-3274-4657-9374-65722e6b6963,rev?*%
%TF.SameCoordinates,Original*%
%TF.FileFunction,Soldermask,Top*%
%TF.FilePolarity,Negative*%
%FSLAX46Y46*%
G04 Gerber Fmt 4.6, Leading zero omitted, Abs format (unit mm)*
G04 Created by KiCad (PCBNEW 8.0.0) date 2024-03-13 03:04:33*
%MOMM*%
%LPD*%
G01*
G04 APERTURE LIST*
G04 Aperture macros list*
%AMRoundRect*
0 Rectangle with rounded corners*
0 $1 Rounding radius*
0 $2 $3 $4 $5 $6 $7 $8 $9 X,Y pos of 4 corners*
0 Add a 4 corners polygon primitive as box body*
4,1,4,$2,$3,$4,$5,$6,$7,$8,$9,$2,$3,0*
0 Add four circle primitives for the rounded corners*
1,1,$1+$1,$2,$3*
1,1,$1+$1,$4,$5*
1,1,$1+$1,$6,$7*
1,1,$1+$1,$8,$9*
0 Add four rect primitives between the rounded corners*
20,1,$1+$1,$2,$3,$4,$5,0*
20,1,$1+$1,$4,$5,$6,$7,0*
20,1,$1+$1,$6,$7,$8,$9,0*
20,1,$1+$1,$8,$9,$2,$3,0*%
G04 Aperture macros list end*
%ADD10R,1.700000X1.700000*%
%ADD11O,1.700000X1.700000*%
%ADD12O,1.200000X2.000000*%
%ADD13R,1.200000X2.000000*%
%ADD14C,3.250000*%
%ADD15R,1.500000X1.500000*%
%ADD16C,1.500000*%
%ADD17C,2.300000*%
%ADD18RoundRect,0.237500X-0.250000X-0.237500X0.250000X-0.237500X0.250000X0.237500X-0.250000X0.237500X0*%
%ADD19RoundRect,0.237500X0.237500X-0.300000X0.237500X0.300000X-0.237500X0.300000X-0.237500X-0.300000X0*%
%ADD20R,1.050000X0.600000*%
%ADD21RoundRect,0.237500X-0.300000X-0.237500X0.300000X-0.237500X0.300000X0.237500X-0.300000X0.237500X0*%
%ADD22R,0.780000X0.780000*%
%ADD23R,1.550000X0.700000*%
%ADD24R,2.100000X2.100000*%
%ADD25C,2.100000*%
%ADD26RoundRect,0.237500X0.237500X-0.250000X0.237500X0.250000X-0.237500X0.250000X-0.237500X-0.250000X0*%
%ADD27RoundRect,0.237500X-0.237500X0.250000X-0.237500X-0.250000X0.237500X-0.250000X0.237500X0.250000X0*%
%ADD28RoundRect,0.237500X0.250000X0.237500X-0.250000X0.237500X-0.250000X-0.237500X0.250000X-0.237500X0*%
G04 APERTURE END LIST*
D10*
%TO.C,REF\u002A\u002A*%
X83794600Y-80162400D03*
D11*
X86334600Y-80162400D03*
X88874600Y-80162400D03*
X91414600Y-80162400D03*
X93954600Y-80162400D03*
X96494600Y-80162400D03*
X99034600Y-80162400D03*
X101574600Y-80162400D03*
X104114600Y-80162400D03*
X106654600Y-80162400D03*
X109194600Y-80162400D03*
X111734600Y-80162400D03*
X114274600Y-80162400D03*
X116814600Y-80162400D03*
X119354600Y-80162400D03*
X121894600Y-80162400D03*
X124434600Y-80162400D03*
X126974600Y-80162400D03*
X129514600Y-80162400D03*
%TD*%
D10*
%TO.C,REF\u002A\u002A*%
X83820000Y-116078000D03*
D11*
X86360000Y-116078000D03*
X88900000Y-116078000D03*
X91440000Y-116078000D03*
X93980000Y-116078000D03*
X96520000Y-116078000D03*
X99060000Y-116078000D03*
X101600000Y-116078000D03*
X104140000Y-116078000D03*
X106680000Y-116078000D03*
X109220000Y-116078000D03*
X111760000Y-116078000D03*
X114300000Y-116078000D03*
X116840000Y-116078000D03*
X119380000Y-116078000D03*
X121920000Y-116078000D03*
X124460000Y-116078000D03*
X127000000Y-116078000D03*
X129540000Y-116078000D03*
%TD*%
D12*
%TO.C,U1*%
X83830160Y-85623400D03*
X86370160Y-85623400D03*
X88910160Y-85623400D03*
X91450160Y-85623400D03*
X93990160Y-85623400D03*
X96530160Y-85623400D03*
X99070160Y-85623400D03*
X101610160Y-85623400D03*
X104150160Y-85623400D03*
X106690160Y-85623400D03*
X109230160Y-85623400D03*
X111770160Y-85623400D03*
X114310160Y-85623400D03*
X116850160Y-85623400D03*
X119390160Y-85623400D03*
X121930160Y-85623400D03*
X124470160Y-85623400D03*
X127007440Y-85627080D03*
X129547440Y-85627080D03*
X129550160Y-111023400D03*
X127010160Y-111023400D03*
X124470160Y-111023400D03*
X121930160Y-111023400D03*
X119390160Y-111023400D03*
X116850160Y-111023400D03*
X114310160Y-111023400D03*
X111770160Y-111023400D03*
X109230160Y-111023400D03*
X106690160Y-111023400D03*
X104150160Y-111023400D03*
X101610160Y-111023400D03*
X99070160Y-111023400D03*
X96530160Y-111023400D03*
X93990160Y-111023400D03*
X91450160Y-111023400D03*
X88910160Y-111023400D03*
X86370160Y-111023400D03*
D13*
X83830160Y-111023400D03*
%TD*%
D10*
%TO.C,J6*%
X60026000Y-80015000D03*
D11*
X57486000Y-80015000D03*
%TD*%
D14*
%TO.C,J2*%
X42549000Y-114429000D03*
X42549000Y-101729000D03*
D15*
X45089000Y-111639000D03*
D16*
X46869000Y-110623000D03*
X45089000Y-109607000D03*
X46869000Y-108591000D03*
X45089000Y-107575000D03*
X46869000Y-106559000D03*
X45089000Y-105543000D03*
X46869000Y-104527000D03*
X51689000Y-114939000D03*
X51689000Y-112649000D03*
X51689000Y-103509000D03*
X51689000Y-101219000D03*
D17*
X45979000Y-116209000D03*
X45979000Y-99949000D03*
%TD*%
D18*
%TO.C,R1*%
X64111500Y-101727000D03*
X65936500Y-101727000D03*
%TD*%
D10*
%TO.C,J4*%
X63393000Y-91009000D03*
D11*
X65933000Y-91009000D03*
%TD*%
D19*
%TO.C,C1*%
X60325000Y-91032500D03*
X60325000Y-89307500D03*
%TD*%
D20*
%TO.C,L1*%
X66857000Y-97544000D03*
X64207000Y-97544000D03*
X64207000Y-98544000D03*
X66857000Y-98544000D03*
%TD*%
D21*
%TO.C,C3*%
X72797500Y-91948000D03*
X74522500Y-91948000D03*
%TD*%
D22*
%TO.C,D1*%
X60454000Y-98994000D03*
X60454000Y-97094000D03*
X58164000Y-98044000D03*
%TD*%
D23*
%TO.C,IC1*%
X75496000Y-99949000D03*
X75496000Y-98679000D03*
X75496000Y-97409000D03*
X75496000Y-96139000D03*
X70046000Y-96139000D03*
X70046000Y-97409000D03*
X70046000Y-98679000D03*
X70046000Y-99949000D03*
%TD*%
D14*
%TO.C,J1*%
X42549000Y-94744000D03*
X42549000Y-82044000D03*
D15*
X45089000Y-91954000D03*
D16*
X46869000Y-90938000D03*
X45089000Y-89922000D03*
X46869000Y-88906000D03*
X45089000Y-87890000D03*
X46869000Y-86874000D03*
X45089000Y-85858000D03*
X46869000Y-84842000D03*
X51689000Y-95254000D03*
X51689000Y-92964000D03*
X51689000Y-83824000D03*
X51689000Y-81534000D03*
D17*
X45979000Y-96524000D03*
X45979000Y-80264000D03*
%TD*%
D10*
%TO.C,J3*%
X65913000Y-104775000D03*
D11*
X63373000Y-104775000D03*
%TD*%
D21*
%TO.C,C4*%
X72797500Y-93980000D03*
X74522500Y-93980000D03*
%TD*%
D19*
%TO.C,C2*%
X69977000Y-94207500D03*
X69977000Y-92482500D03*
%TD*%
D24*
%TO.C,J5*%
X77811000Y-82169000D03*
D25*
X72811000Y-82169000D03*
%TD*%
D26*
%TO.C,R4*%
X54864000Y-112672500D03*
X54864000Y-110847500D03*
%TD*%
D27*
%TO.C,R3*%
X54991000Y-102362000D03*
X54991000Y-104187000D03*
%TD*%
D28*
%TO.C,R2*%
X65936500Y-94615000D03*
X64111500Y-94615000D03*
%TD*%
M02*
